<?xml version="1.0" encoding="utf-8"?>
<!-- Generator: Adobe Illustrator 18.0.0, SVG Export Plug-In . SVG Version: 6.00 Build 0)  -->
<!DOCTYPE svg PUBLIC "-//W3C//DTD SVG 1.1//EN" "http://www.w3.org/Graphics/SVG/1.1/DTD/svg11.dtd">
<svg version="1.1" id="Layer_1" xmlns="http://www.w3.org/2000/svg" xmlns:xlink="http://www.w3.org/1999/xlink" x="0px" y="0px"
	 viewBox="0 0 190.8 123.7" enable-background="new 0 0 190.8 123.7" xml:space="preserve">
<path fill="#ffffff" d="M113.2,51.4c0.1,0,0.3,0,0.4-0.1l-0.1-0.2c-1.3,0.2-2.3,0.4-1.5,0.4c-1.2,0.2-2.4,0.3-3.6,0.5
	c2.2-0.6,0.4-1.7-1.8-2.1c-0.1,0.2,0,0.3-2.6,0.9c0.9,0.1,5.8-0.3,3.7,0.4c-3.4,0.7-2.8,0.2-4.5,0.3c1.3,0.3-3,1.1-3.5,1.7
	c-6.9,1-13.9,2-20.8,2.8c0.1-0.1,0.1-0.1-0.2-0.2l-1.9,0.3c-1.8-0.2,3.6-1,1.1-0.9c2.5-0.6,5.4-1.5,9-1.7l0.8,0.5
	c-0.1-0.2-2.4,0-3.4,0.3c1.5-0.5,5.7,0.1,7.2-1l-2.6-0.1c2.6-0.7,5.7-1.8,8.9-2c-1.6-0.4-0.7,0.2-3.1-0.2c2.1,0.6-8.3,1.1-4.9,1.6
	c-2.5-0.5-4.1,0.2-7.3-0.1c0.1,0.2,1.1,0.2-1.6,0.5c-0.1,0.1-0.4,0.2-0.6,0.3c-0.1,0-0.1,0-0.2,0c0.1,0,0.1,0,0.2,0
	c-0.1,0-0.1,0.1,0.1,0c0.7,0,1.2,0,1.4,0.1c-1.3,0.6-5.6,1.2-7,1.6c-1.6,0.1,0.6-0.3-0.3-0.4l-2.1,0.6C72,54.8,68,55,71.7,54.3
	l-3.4,0.4c-2-0.1-4.8,0.1-6.5,0.5c-1.6,0-4,0.8-2.6,0.4c0,0-1.3,0.2-2.7,0.3c-1.3,0.2-2.7,0.3-2.7,0.3L53.8,56
	c-2.6,0.1-5.3,0.4-8.1,0.6c-0.4,0-0.9,0.1-1.3,0.1c-0.3,0-0.6,0-0.9,0c-0.6,0-1.1-0.1-1.2-0.4c-0.3,0-0.5,0.1-0.8,0.1
	c-0.1,0-0.3,0-0.4,0c-0.1,0-0.4,0.1-0.2,0c0.2-0.2,0.6-0.5,1.1-0.8c0,0,0.2-0.1,0.5-0.1c0.2-0.1,0.5-0.1,0.5-0.1
	c0.1-0.2,0.7-0.5,1.1-0.7c0.2-0.1,0.3-0.2,0.4-0.3c0.2-0.1,0.3-0.3,0.4-0.4c0.2-0.2,0.3-0.3,0.3-0.4c2.6-0.7,8.8-7,12-9.6l-0.2-0.5
	c2.1-1.8,4-3.7,6.5-6.1l-0.5-0.2c2-2.3,5.9-4.9,9.4-8c-0.1,0.3-1,1.1-1.7,1.6c2.4-1.5,4.5-3.6,6.6-5.7c0.5-0.5,1-1,1.5-1.5l0.7-0.7
	c0.1-0.1,0.2-0.2,0.4-0.3c1.2-0.6,2.5-1.2,3.7-1.6c1.1-0.7,1.9-1,2.8-1.3c-0.1,0.1-0.2,0.1-0.3,0.2c0.1-0.1,0.3-0.1,0.5-0.2
	c0.5-0.2,1.1-0.3,1.7-0.5c-0.5,0.1-1,0.3-1.4,0.4c0.5-0.2,1.1-0.5,1.7-0.9c0.9-0.5,2-1,2.9-1.6c0,0,0.5-0.7,0.5-0.7
	c0-0.2,0-0.4,0-0.6c0-0.2,0.1-0.7,0.1-0.9c0-0.3,0-0.6,0-0.7c0-0.2-0.1-0.2-0.1-0.3c-0.1,0-0.3,0.1-0.5,1c0-0.4,0-0.8,0-0.9l0-0.3
	l0-0.1l0-0.4c0-0.2,0-0.2,0-0.2l0-0.2c0-0.1,0-0.2,0-0.3c0-0.2,0-0.4-0.2-0.5c-0.1-0.4-0.4-0.9-0.8-1.4c-0.2-0.3-0.3-0.5-0.5-0.6
	c-0.2-0.2-0.3-0.4-0.5-0.6c-0.7-0.7-1.4-1.5-1.5-2.4c-0.5-0.3-1.7-1.6-2.9-3C84.2,3,83.6,2.4,83,1.9c-0.5-0.5-0.9-0.9-1.2-1
	l-0.5-0.6l-0.1-0.2c-0.1,0-0.1,0-0.2,0l-0.4,0c-0.5,0-1.1,0-1.6,0c-0.3,0-0.5,0-0.8,0l-0.4,0c-0.1,0-0.3,0-0.4,0.1
	c-0.4,0.2-0.9,0.5-1.2,0.7l-0.9-0.2l-2.8,2.3c-2.1,0.6-3,0.8-1.3-0.5c-1.1,0.7-1.9,1.2-2.5,1.6c-0.3,0.2-0.6,0.3-0.8,0.5
	c-0.3,0.2-0.5,0.3-0.7,0.4C67.1,5,67,5,66.9,5.1c-0.1,0.1-0.2,0.2-0.3,0.4l-0.2,0.2l-0.1,0.2C66.1,5.9,66,6,65.9,6.2
	c-0.4,0.5-0.9,1.1-1.6,2l-0.1-0.4c-1.1,1.1-2.6,3.2-3.5,3.6c-3.1,1.9-12.7,11.9-19.9,17.4c2.1-0.3-3.5,2.4-3.1,3.3
	c-0.6,0.1-1.6,0.8-0.7-0.3c-3.3,3.2-5.5,4.2-7.4,6.8c-0.6,0.1,0.5-0.9,0-0.8c-0.2,0.3-1,1.1-1.4,1.3c-0.5,0.2,0.4-0.6,0.9-1.2
	c-3.6,3-3.4,3.9-3.2,4.8c-2.1,1.2-3,1.9-4,3.4C21,46.4,19.8,47,22,45.2c-0.7,0.5-2.7,1.9-4.6,3.2c-1.9,1.3-3.6,2.6-3.5,2.9
	c-0.5,0.1-1.9,1.2-2.3,1.5c-1.5,1-2.4,1.5-3.3,2c-0.9,0.5-1.7,1-3.2,1.9l0.9-0.4c-0.4,0.7-1.1,1.1-1.9,1.5c-0.5,0.2-1,0.5-1.6,0.8
	c-0.2,0.1-0.3,0.2-0.5,0.3C2,59,1.7,59,1.7,59.3c-0.1,0.4-0.2,0.8-0.2,1.3l-0.1-0.1c-1,3.7-0.9,3.9-1.1,5c-0.1,0.5-0.1,0.9-0.3,1.8
	c0,0.1-0.1,0.2,0,0.3c0.1,0.1,0.2,0.2,0.3,0.3C0.5,68,0.7,68.2,1,68.5c0.2,0.3,0.5,0.5,0.8,0.9c0.2,0.3,0.5,0.6,0.8,0.9l0.1-0.6
	c0.6-0.2,1.6,0.9,2.8,2.4c1.2,1.4,2.8,3.1,4.4,4.2l-0.9-1.1c0.9,0.5,1.8,1.8,2.7,3c0.9,1.2,1.8,2.5,2.6,3.2c0.3,0.4-0.7-0.3-1.2-0.7
	c4,3.9,0.9,0,4.3,2.4c0.4,0.7-1.3,0.1,0.9,1.8c0.9,1.1,7.2,3.9,10,6.5c-0.6-0.7-1.1-1.3,0.6-0.5c2.5,1.6,6.2,5.1,8.9,5.8
	c0.3,0.3,0.4,0.4,0.4,0.4c1,0.5,2.6,1.3,4.2,2.1c1.5,0.8,3,1.4,3.7,1.6c1,2.5,12.6,6.1,11.8,7.4l6.1,3.2l-0.2,0.1
	c3.8,2.2,5.3,2.6,6.9,3.1c0.8,0.6,0.1,0.3,0,0.4c2.7,1.7,4.2,2.6,5.7,3.4c1.4,0.8,2.9,1.3,5.4,2.4l0.2,0.7c0.3,0.1,1,0.5,1.9,1.1
	c0.3,0.2,0.6,0.4,0.9,0.6c0.2,0.1,0.4,0.2,0.5,0.4c0.2,0.1,0.4,0,0.7,0.1c0.7,0,1.5,0.1,2.4,0.1c0.4,0,0.7,0,1.1,0.1
	c0.5,0,0.9,0,1.4,0c0.3,0,0.6,0,0.9,0l0.5,0c0.1,0,0.2,0,0.2,0l0.2-0.1c0.5-0.4,0.9-0.8,1.4-1.2l1-0.9l1.1-1
	c0.9-0.8,1.8-1.7,2.5-2.5c0,0.1,0,0.2-0.5,0.8c0.5-0.5,0.9-0.9,1.4-1.4c0.1-0.1,0.1-0.1,0.2-0.2l-0.2-0.2l-0.4-0.4
	c-0.2-0.3-0.5-0.5-0.7-0.8c-0.5-0.5-0.9-1.1-1.4-1.6c-0.4-0.5-0.9-1-1.3-1.6l-0.9-1.2c-0.1-0.1-0.4-0.5-0.7-0.8l-0.7-0.6
	c-0.8-0.6-1.5-1.2-2.2-1.8c-2.9-2.3-5.5-4.1-7.1-4.1l-4.1-2.2c5,3.5-1.2,0.2,0.7,1.8c-2-1.2-4.8-3.8-2.3-2.3l0.3,0.3
	c1.4-0.2-6.1-4.4-5.6-4.9c-5-3.2-9.9-6.5-14.6-9.8c-2.4-1.7-4.7-3.3-7-5c-1.1-0.8-2.3-1.7-3.4-2.5c-0.8-0.6-1.6-1.2-2.4-1.8
	c0,0-0.1,0.2-0.1,0.4c0,0.2,0,0.4,0,0.4s-0.5-0.4-1-0.7c-0.5-0.4-0.9-0.7-0.9-0.7c-0.2-0.4,0.4-0.4,1.4,0.4c0-0.3-0.5-0.5-1.2-0.8
	c-0.7-0.3-1.6-0.7-1.8-0.8c-1-1,0-0.5,0.8-0.1c0.8,0.4,1.6,0.8,1.3,0.6l-0.8-0.6L43,75.9c-0.4-0.2-0.8-0.4-1.1-0.5
	c-0.2-0.1-0.3-0.2-0.5-0.3c-0.1,0-0.2-0.1-0.3-0.1c0,0,0,0,0,0c0.1-0.1,0.4-0.1,1.3-0.1c1.5,0.2,1.4,0.5,1.9,0.5
	c0.1,0.1,0.2,0.1,0.6,0c0,0,0.6,0,1.1,0c0.5,0,1.1,0,1.1,0c-0.1,0-0.2-0.1-0.5-0.3c-0.3-0.1-0.6-0.3-0.6-0.3
	c0.3-0.1,0.6-0.1,0.9-0.2c0.5,0,0.8-0.1,1.1-0.1c0.6-0.1,0.6-0.1-0.5-0.4c1.7,0.5,6.3,0.4,10.7,0c4.4-0.3,8.7-0.8,9.7-0.8
	c3-0.7,6-1.1,9.7-1.5c-0.9,0-1.6-0.6,1.6-0.9c-1,1.5,5.9-0.2,8.6,0.4c-2.4-0.3,9-1.4,5.3-1.8c2.7-0.3,0.2,0.5,2.3,0.5
	c6.2-1.4,13.9-1.6,21.7-2.8c0.1-0.2-1.2-0.3,0.4-0.8l4.2,0.4c1.5-0.3,1.3-1.2,4.2-0.8c-0.4-0.1-1-0.3,0-0.4c7.7-0.3,15.5-1,23.3-1.2
	c7.8-0.1,15.8,0.3,23.3,2.2c-2-0.6-0.6-0.5,0.9-0.3c-1-0.2,0.1-0.4-0.1-0.7c0,0,0.4,0.1,1,0.2c0.6,0.2,1.4,0.3,2.2,0.6
	c1.6,0.5,3.1,0.9,3.1,0.9c1.3-0.5,6.8,1.4,7.6,1c0,0-0.5-0.1-1-0.2c-0.5-0.1-1-0.2-1-0.2c1.6-0.1,0.4-0.8-0.9-1.6
	c2.1,0.5,4.2,1,6.3,1.6c0-4.8,0-9.6,0-14.3C164.9,46.5,139,48.1,113.2,51.4z M107.9,52.1c-1.5,0.2-3,0.4-4.4,0.6
	C104.5,52.4,106.2,52.1,107.9,52.1z M102.6,52.8C102.6,52.8,102.6,52.8,102.6,52.8c-0.1,0-0.2,0.1-0.3,0.1L102.6,52.8z M65.7,55.2
	C65.7,55.2,65.7,55.2,65.7,55.2C63.7,55.2,64.4,55.2,65.7,55.2z M43.4,58.5c0.9-0.2,1.6-0.4,2.7-0.6c1.1-0.2,2.3-0.3,3.7-0.5
	c4.2-0.4,1.9,0.5,2.6,0.3c4-0.2,5.6-0.6,7.1-1.1c1.5-0.4,2.8-0.8,6.1-0.8c2.7,0.3,0.2,1.1,0.8,1.4c-3.4,0.6-5.3,0.1-7.6,0.4l2.9,0
	c-1.1,0.3-3.4,0.6-4.6,0.5c0.3,0,0.7,0.1,1.2,0.1c-5.5,0.4-10.9,0.6-16.4,0.6C42.3,58.7,42.8,58.6,43.4,58.5z M43.6,51.3
	c-0.5,0.6-1,1.1-1.4,1.5c0-0.2-0.4-0.1-0.8,0.1c0.9-0.7,1.8-1.4,2.7-2.1C43.9,50.9,43.8,51.1,43.6,51.3z M60.2,38.7
	c-0.3,0.2-5.2,3.6-6.5,4.2C53.5,43,53.3,43,53.3,43c1-0.9,2.1-1.8,3.1-2.7l0.6,0.5l-0.1-0.9c1-0.9,2-1.8,3.1-2.7
	C60.3,37.6,60.5,38.1,60.2,38.7z M79.2,20.8c-0.2,0.2-0.4,0.3-0.5,0.5c-0.1,0.2-0.2,0.4-0.4,0.7c-0.7,1-1.4,1.9-2.3,2.8L75,25.1
	l-2.6,2.8c0.5-0.9,1.5-2.5,2.6-4.2c1.1-1,2.2-2,3.3-2.9c0.6-0.3,1.1-0.5,1.7-0.8C79.7,20.2,79.5,20.5,79.2,20.8z M81.8,0.9
	c-0.1-0.1-0.2-0.1-0.3-0.1C81.5,0.6,81.2,0.1,81.8,0.9z M72.2,3.1c-0.1,0.3,0.1,0.5,0.4,0.8c-0.8,0.4-1.7,0.9-2.5,1.3
	C71.3,4,72.2,3.1,72.2,3.1z M23.6,45.2c0.9-0.8,1.7-1.6,1.7-1.6c0.5-0.3,0.3,0.2-0.2,0.9c0.2-0.2,0.4-0.5,0.6-0.7
	c0.6-0.3,0.9-0.4,0.9-0.3c-0.6,0.5-1.2,1-1.9,1.5c0.1-0.2,0.2-0.4,0.3-0.5c-0.3,0.3-0.5,0.6-0.8,0.9c-0.2,0.2-0.5,0.4-0.7,0.6
	c-0.7,0.3-1.3,0.6-1.8,0.8C21.9,46.7,22.8,46,23.6,45.2z M44.3,75.1L43.7,75C44.5,74.8,44.4,74.9,44.3,75.1z"/>
</svg>
