<svg xmlns="http://www.w3.org/2000/svg" xmlns:xlink="http://www.w3.org/1999/xlink" version="1.1" enable-background="new 0 330.4 612 131.4" xml:space="preserve" width="610" height="130.8">

<rect id="backgroundrect" width="100%" height="100%" x="0" y="0" fill="none" stroke="none"/>
<g class="currentLayer"><title>Layer 1</title><polygon fill="#FFFFFF" points="611.9,0 0,0 0,14.5 53.7,31.6 82.9,95.3 98,109 93.9,65.6 115.4,29.8 196.6,46.4 352.3,50.9 517.6,32.6 588.7,16.1" id="svg_1" class=""/>
<path opacity="5.000000e-02" enable-background="new    " d="M113.6 448.4L113.6 448.4C113.6 448.4 113.6 448.5 113.6 448.4 C113.6 448.5 113.6 448.4 113.6 448.4z" id="svg_4" class=""/>
<path opacity="5.000000e-02" enable-background="new    " d="M604.9094138145447 3.1 l-0.20000000298023224 0.7 c-4.5 1.3 -1.1 -0.1 -5.6 1.1 c-0.4000000059604645 -0.4 3.7 -1.5 7.4 -2.5 c-3.299999952316284 0.8 -6.6 1.2 -7.7 2.1 c-3.200000047683716 0.6 0.2 -0.7 -3.5 0.1 c-2.5999999046325684 0.8 -5.9 2.1 -9 2.6 v-0.10000000149011612 c-7.5 1.3 -11.1 3.5 -17.9 4.7 l0.699999988079071 -0.4 c-2.4000000953674316 0.3 -7 1.8 -11.4 2.6 c1.2000000476837158 -0.2 2.4 -0.1 -0.2 0.6 c-5 0.9 -8.3 2 -12 2.5 l-3.299999952316284 1.2 c-8.600000381469727 2 -29.8 7.2 -51 11.8 c-10.5 2.2 -21.2 4.5 -29.9 5.6 c-1.100000023841858 0.2 -2.2 0.3 -3.3 0.5 c-1.100000023841858 0.1 -2.1 0.2 -3.2 0.3 c-2 0.2 -3.9 0.4 -5.7 0.6 c-0.9000000357627869 0.1 -1.7 0.2 -2.6 0.3 c-0.9000000357627869 0.1 -1.6 0.1 -2.3 0.2 c-1.399999976158142 0.1 -2.8 0.2 -3.8 0.3 l0.699999988079071 -0.1 c-13.300000190734863 1.1 -33.8 2.1 -54.4 2.8 c-20.799999237060547 0.6 -41.5 1.1 -55.5 1.5 c-4.300000190734863 -0.5 -10.2 -0.3 -14.8 -0.4 c2.5 0.2 1.6 0.5 -0.3 0.5 c-13.800000190734863 0 -1 0.3 -14.8 0.6 c-8 0.3 -27.3 0.2 -46.4 -0.1 c-19 -0.3 -38 -0.9 -44.7 -1.5 c-1.9000000953674316 0.1 -3.8 0 -5.8 -0.1 c-2 -0.1 -4.1 -0.2 -6.2 -0.4 c-2.0999999046325684 -0.2 -4.1 -0.4 -6.1 -0.6 s-3.9000000953674316 -0.4 -5.7 -0.5 l0.800000011920929 -0.1 c-3.9000000953674316 -0.4 -16.8 -2.2 -29.6 -5.3 c-6.400000095367432 -1.5 -12.8 -3.3 -18 -4.9 c-1.2999999523162842 -0.4 -2.6 -0.8 -3.7 -1.1 c-1.100000023841858 -0.4 -2.2 -0.8 -3.3 -1.1 c-0.5 -0.2 -1 -0.3 -1.4 -0.5 c-0.4000000059604645 -0.1 -0.8 -0.3 -1.1 -0.4 c-0.4000000059604645 -0.1 -0.8 -0.3 -1.1 -0.4 c-1.399999976158142 -0.6 -2.7 -1 -3.6 -1.3 l2.0999999046325684 1 c-1.2000000476837158 -0.5 -2.3 -0.9 -3.3 -1.1 c-1 -0.4 -1.8 -0.8 -2.7 -1.1 c-1.600000023841858 -0.7 -2.9 -1.2 -3.9 -1.7 c-0.20000000298023224 0.1 -0.3 0.3 -0.5 0.4 c-0.20000000298023224 0.2 -0.3 0.4 -0.5 0.5 c-0.30000001192092896 0.3 -0.6 0.7 -0.9 1 c-0.6000000238418579 0.6 -1.1 1.2 -1.7 1.8 c-0.6000000238418579 0.7 -1.2 1.4 -2.1 2.4 c-0.800000011920929 1 -1.7 2.1 -2.8 3.6 c0.4000000059604645 -0.2 0.2 0.4 -0.3 1.3 c-0.20000000298023224 0.5 -0.6 1.1 -0.9 1.7 c-0.20000000298023224 0.3 -0.4 0.7 -0.6 1 c-0.10000000149011612 0.2 -0.2 0.5 -0.4 0.7 c-1 1.9 -2.1 4.2 -2.9 5.5 l-0.10000000149011612 -0.2 c-1 1.9 -2.5 5.1 -4 8.7 c-0.800000011920929 1.8 -1.4 3.7 -2.1 5.5 c-0.699999988079071 1.9 -1.3 3.7 -1.8 5.5 l-0.30000001192092896 -0.4 c-0.800000011920929 3 -2 7.1 -2.7 11.3 c-0.5 2 -0.7 4.2 -0.9 6 c-0.10000000149011612 0.5 -0.1 0.9 -0.2 1.3 c0 0.4 0 0.9 0 1.2 c0 0.8 0 1.4 -0.1 2 c-0.20000000298023224 5.1 0 11.4 1 17.9 c1 6.5 2.6 13.2 4.7 19.2 c0 0 0.1 0.5 0.2 1.2 c0.10000000149011612 0.8 0.3 1.8 0.5 2.8 c0.4000000059604645 2 0.8 4.1 0.8 4.1 l0.5 1.1 c0 0 1.1 0.5 2.8 0.9 c1.600000023841858 0.4 3.8 0.8 5.9 0.6 s4 -1.1 5.4 -2.6 c1.2999999523162842 -1.6 1.9 -4.1 1.4 -7.9 l0.5 0.1 c0 0 -0.3 -0.7 -0.5 -1.4 c-0.30000001192092896 -0.7 -0.5 -1.4 -0.5 -1.4 c-0.9000000357627869 -3.5 -1.8 -5 -1.3 -4.9 c0 0 0.3 1.1 0.7 2.4 c0.30000001192092896 1.1 0.7 2.4 0.7 2.4 c-1 -3.5 0 -1.1 0.7 0.1 c-0.5 -1.4 -0.8 -2.9 -1.1 -4 c-0.4000000059604645 -0.7 0 0.6 0.1 1.1 c-0.4000000059604645 -0.9 -0.9 -2 -1.2 -3.2 s-0.800000011920929 -2.4 -1 -3.5 c-0.4000000059604645 -1.8 -0.3 -1.9 -0.1 -2.1 c0.10000000149011612 -0.2 0.2 -0.4 -0.2 -2.5 c-1.100000023841858 -5.5 -1.8 -10.9 -1.9 -16.1 c0 -1.2 -0.1 -2.6 0 -3.8 c0.10000000149011612 -1.2 0.1 -2.5 0.3 -3.6 c0.20000000298023224 -1.1 0.3 -2.3 0.6 -3.5 s0.5 -2.5 0.9 -3.6 c1.2999999523162842 -4.9 3.3 -9.8 5.5 -14.7 c1.100000023841858 -2.4 2.5 -4.8 3.8 -7.2 c0.699999988079071 -1.1 1.4 -2.4 2.1 -3.5 l0.699999988079071 -1.1 c0.10000000149011612 0.1 0.1 0.1 0.2 0.2 c0 -0.1 0 -0.3 0.1 -0.3 c0.10000000149011612 0 0.2 0 0.3 0 l0 0 l0 0 l0 0 h0.10000000149011612 l0.20000000298023224 0.1 l1.600000023841858 0.6 c1.100000023841858 0.4 2.2 0.7 3.3 1.1 c1.7999999523162842 0.8 2.2 1.1 2.7 1.5 c-0.30000001192092896 -0.2 1.9 0.4 5.4 1.3 c1.7000000476837158 0.5 3.7 1 5.9 1.5 c2.200000047683716 0.6 4.6 1.1 7 1.7 c4.800000190734863 1.1 9.7 2.1 13.3 2.8 c3.700000047683716 0.8 6.2 1.1 6.4 1.1 l0.6000000238418579 -0.7 c3.700000047683716 0.6 4.2 0.9 4.6 1.1 c0.5 0.3 0.8 0.6 4.2 0.9 c1.399999976158142 -0.4 4.2 0.1 7.1 0.5 c2.799999952316284 0.4 5.5 0.9 6.8 0.7 c-0.10000000149011612 0.1 3.3 0.5 3.1 0.8 c1.100000023841858 -0.5 3.4 0.1 5.6 0.1 c0.800000011920929 -0.1 -0.6 -0.2 -1.1 -0.5 l4.900000095367432 0.2 c1.9000000953674316 0.3 2.3 0.7 0.3 0.6 c1.600000023841858 0.2 3.9 0.3 6.9 0.4 c1.399999976158142 0.1 3.1 0.2 4.8 0.3 c1.7000000476837158 0.1 3.4 0.1 5.4 0.2 c7.599999904632568 0.3 16.5 0.5 25.6 0.7 c18.100000381469727 0.4 36.3 0.5 42.9 0.3 c-1.7000000476837158 -0.5 -5.8 -0.2 -7.4 -0.9 c3.5 -0.4 5.2 0.2 6.8 -0.3 c1.2999999523162842 1.1 7.7 0.3 10.4 1.3 l1.100000023841858 -0.6 l1.7000000476837158 0.4 c15.5 -0.7 3.5 -0.3 17.3 -0.2 c7.800000190734863 -0.1 11.7 -1 16 -0.8 c-0.800000011920929 -0.1 -2 -0.4 -0.2 -0.5 c0.4000000059604645 0.5 5.5 -0.5 6.5 0.1 c2 -0.1 8.6 -0.1 6.3 -0.8 c1.100000023841858 0.3 7 0.4 3.4 0.8 c2 0 3.9 0.1 5.3 -0.1 l-2.5 -0.2 c6.699999809265137 -0.2 10.3 0.3 14.6 -0.5 l-2.5 -0.2 c4 -0.1 7.3 -0.3 8.9 0.4 l-4.099999904632568 0.3 c6.599999904632568 -0.2 10.6 -0.3 16.1 -0.9 h-2 c3.5 -0.5 14.4 -1.1 25.2 -1.9 c5.5 -0.4 10.8 -0.9 15.3 -1.2 c2.200000047683716 -0.2 4.2 -0.4 5.8 -0.6 s3 -0.4 3.7 -0.6 l-3.0999999046325684 -0.3 l5.5 -0.9 c-0.699999988079071 0 -2.6 1.9 -3.2 1.8 c1.5 -0.1 3.8 -0.3 6.7 -0.5 c1.399999976158142 -0.1 3.1 -0.2 4.7 -0.4 c1.7000000476837158 -0.2 3.5 -0.4 5.5 -0.6 c1.9000000953674316 -0.2 3.9 -0.4 6.1 -0.7 c2.0999999046325684 -0.3 4.4 -0.6 6.6 -1 c1.100000023841858 -0.2 2.3 -0.3 3.4 -0.5 c1.100000023841858 -0.2 2.3 -0.4 3.3 -0.6 c2.299999952316284 -0.4 4.6 -0.8 6.9 -1.2 c18.200000762939453 -3.5 36 -7.6 41.3 -8.6 c4.400000095367432 -0.7 1 0.7 1 0.8 c5.300000190734863 -1.4 2.1 -1.1 6.6 -2.1 c1.2000000476837158 -0.2 -0.2 0.5 -0.9 0.7 c1.9000000953674316 -0.5 3.8 -0.8 3.9 -1.1 c-2.5 0.4 -1.6 -0.5 -2.8 -0.7 l5.699999809265137 -1.2 l-0.20000000298023224 0.5 c1.2000000476837158 -0.3 3 -1.9 8.7 -3 c9.600000381469727 -2.1 19.8 -4.7 29.4 -7 c-0.10000000149011612 0.3 -2 1 -4 1.5 c1.2000000476837158 -0.3 3.3 -0.9 4.4 -1 c-2.4000000953674316 0.1 3.9 -1.2 2.1 -1.1 c6.699999809265137 -2.8 16 -4.1 22 -6.3 c0.30000001192092896 -1.1 9.2 -18.8 8.9 -20 c1.9000000953674316 -0.5 3.8 -1 4.4 -1 C610.5093894004822 1.6 606.8 2.5 604.9 3.1 z" id="svg_6" class=""/><path fill="#848484" d="M604.1452991962433 11.5 c2.700000047683716 -1.1 5 -2.3 7 -3.3 v-6.900000095367432 c-8 3.6 -16.4 7 -24.8 9.9 c-22.100000381469727 7.7 -45.3 13 -69.3 15.8 c-8.899999618530273 2.4 -21.4 3 -32 5.4 l0.699999988079071 -0.5 c-9.100000381469727 1.5 -11.6 1.1 -23.2 1.6 c-0.10000000149011612 0.5 -4.5 0.6 -2.7 1.2 c-3.9000000953674316 1.1 -7.4 -0.5 -13.2 0.5 c-0.20000000298023224 -0.3 0.2 0.5 -1.1 0.4 c-14.899999618530273 2.4 2.8 -0.7 -16.3 0.2 c-26.399999618530273 2.7 -53.5 5.5 -79 6.4 c1.2999999523162842 0 1.9 0.6 -0.5 0.7 c-2.5999999046325684 -1.2 -8.6 0.8 -13.2 0.5 c0.30000001192092896 -0.3 2.5 -0.5 3.6 -0.7 c-11.5 0.1 -21.1 1.1 -32 0.8 c-4.900000095367432 0.4 -10.1 0.3 -15 0.2 c-5.699999809265137 -0.1 -11 -0.2 -14.8 0.1 c1.7000000476837158 -0.5 -4.7 -0.5 -6.9 -0.8 c-3.799999952316284 0.8 -8.9 0.6 -14.2 0.3 c-5.400000095367432 -0.4 -10.9 -0.9 -15.7 -0.6 l0.4000000059604645 -0.3 c-28.299999237060547 -1.1 -59.1 -4.1 -88.5 -7.6 c-8.199999809265137 -1.1 -17 -2.6 -25.8 -4.5 c-2.200000047683716 -0.5 -4.5 -0.9 -6.7 -1.3 c-1.100000023841858 -0.2 -2.2 -0.5 -3.3 -0.7 l-4.599999904632568 -0.9 c-2.0999999046325684 -0.4 -4.1 -0.7 -6.2 -1.1 h-0.20000000298023224 c-0.10000000149011612 0 -0.1 0.1 -0.1 0.1 l-0.20000000298023224 0.4 l-0.30000001192092896 0.8 l-0.6000000238418579 1.4 l-1.100000023841858 2.8 l-1.100000023841858 2.7 l-0.5 1.2 l-0.30000001192092896 0.9 c-0.4000000059604645 1.1 -0.8 2.2 -1.1 3.3 c-1 3.3 0.3 0.9 -0.5 3.5 c-1.600000023841858 4.4 -0.5 -0.2 -1.2 1.4 c-1.2000000476837158 4.5 -2.9 9.6 -4.5 14.9 c-1.600000023841858 5.5 -3.3 11.2 -4.3 17 c0 1.4 -0.4 4.8 0.2 3.7 c-0.30000001192092896 1.2 -0.4 2.6 -0.6 3.9 c-0.10000000149011612 0.7 -0.1 1.4 -0.1 2.1 c0 0.8 -0.1 1.5 0 2.2 c0 1.3 0.1 2.8 0.2 4.1 c0 0.5 0.1 1.1 0.1 1.5 l0.10000000149011612 0.6 c0.10000000149011612 0.7 0.3 1.4 0.5 2.2 c0.20000000298023224 0.9 0.4 1.6 0.6 2.5 c0.10000000149011612 0.5 0.2 0.9 0.3 1.3 v0.10000000149011612 l-0.10000000149011612 -0.1 l-0.20000000298023224 -0.2 l-0.30000001192092896 -0.4 c-0.20000000298023224 -0.3 -0.4 -0.6 -0.6 -1 c0.6000000238418579 1.3 1 2.2 1.1 2.5 c0 0.3 -0.2 0.2 -0.6 -0.2 c-0.4000000059604645 -0.4 -0.9 -1 -1.2 -1.4 c-0.4000000059604645 -0.5 -0.8 -1 -1.1 -1.2 c-0.699999988079071 -1 -0.6 -1.5 -0.4 -1.7 c-0.30000001192092896 -0.4 -0.6 -0.7 -0.8 -1.1 c-0.10000000149011612 -0.2 -0.2 -0.3 -0.3 -0.5 c-0.20000000298023224 -0.3 -0.3 -0.5 -0.5 -0.8 c-0.6000000238418579 -0.9 -1.1 -1.8 -1.7 -2.7 c-1.100000023841858 -1.8 -2.1 -3.6 -3.3 -5.7 c-0.6000000238418579 -1.1 -1.1 -2.2 -1.7 -3.4 c-0.6000000238418579 -1.2 -1.2 -2.5 -1.9 -3.9 c-1.2000000476837158 -2.3 -2.2 -3.6 -3.1 -5.3 c-0.5 -0.8 -1 -1.6 -1.4 -2.6 c-0.5 -1 -1.1 -2.1 -1.6 -3.6 c-0.800000011920929 -3.9 -5 -12.2 -6.5 -18.2 c-0.20000000298023224 0.9 -1 -0.5 -2 -2.9 c-0.5 -1.1 -1 -2.6 -1.4 -4.1 c-0.20000000298023224 -0.8 -0.5 -1.5 -0.7 -2.3 c-0.20000000298023224 -0.8 -0.4 -1.5 -0.5 -2.3 l1.600000023841858 1.5 c-0.4000000059604645 -1.1 -0.7 -2.4 -1.1 -3.6 c-0.20000000298023224 -0.6 -0.4 -1.2 -0.6 -1.9 c-0.20000000298023224 -0.7 -0.4 -1.4 -0.5 -2.1 c-0.30000001192092896 -1.1 -0.5 -2.2 -0.8 -3.3 c-0.10000000149011612 -0.6 -0.3 -1.1 -0.4 -1.7 l-0.10000000149011612 -0.4 l-0.4000000059604645 -0.5 c0 -0.1 -0.1 -0.1 -0.2 -0.1 l-0.9000000357627869 -0.2 c-2 -0.5 -4.1 -1 -6.2 -1.5 c-5.599999904632568 -1.4 -11.6 -3 -17.6 -4.8 c-5.900000095367432 -1.8 -12 -3.8 -17.8 -5.8 c-5.800000190734863 -2.1 -11.5 -4.3 -16.9 -6.4 c0 0 -0.3 -0.3 -0.6 -0.6 v7.699999809265137 c1.2000000476837158 0.5 2.7 1.1 4.4 2 c-3.5999999046325684 -1 1 1.4 -0.7 1.2 c3 1.5 1.2 -0.4 5.5 1.8 l-0.699999988079071 0.2 c8.199999809265137 3.4 17.7 6.6 27 9.1 c4.699999809265137 1.1 9.4 2.1 13.7 3 c0.6000000238418579 0.1 1.1 0.2 1.6 0.3 l0.800000011920929 0.2 l0.4000000059604645 0.1 h0.20000000298023224 c0.5 0 0.9 0.1 1.3 0.1 c0.20000000298023224 0 0.2 0.1 0.2 0.2 l0.10000000149011612 0.3 c0.10000000149011612 0.2 0.2 0.4 0.3 0.6 l0.20000000298023224 0.3 l0.10000000149011612 0.2 l0.10000000149011612 0.4 c0.20000000298023224 0.5 0.3 1 0.5 1.3 c0 1.4 0.4 3.5 1 6.4 c0.699999988079071 2.8 1.5 6.3 2.7 10.6 c-1 -3.8 0.7 -0.4 1.4 1.7 l0.699999988079071 4.3 c0.6000000238418579 2.6 1.8 5.3 3.1 7.9 c1.2999999523162842 2.6 2.7 5.2 3.9 7.3 c0.20000000298023224 0.9 0.1 1.1 0 1.4 c1.399999976158142 4.4 2.4 4.1 3.3 5.6 l0.9000000357627869 3 l0.800000011920929 0.3 c1.2000000476837158 2 2.6 4.3 3.4 6.1 c1 1.8 1.4 3.2 0.9 3.1 c1.100000023841858 1.5 2.1 3 1.1 0.8 c0.20000000298023224 0.6 0.6 1.1 0.9 1.9 c0.4000000059604645 0.7 0.9 1.5 1.3 2.4 c0.30000001192092896 0.4 0.5 0.9 0.8 1.3 c0.5 0.7 0.9 1.4 1.3 2.2 c1 1.5 2 3 3.2 4.5 c1.100000023841858 1.5 2.2 3.1 3.3 4.6 c1.100000023841858 1.3 2.2 2.6 3.3 3.9 c2.200000047683716 2.6 4.3 4.8 6.1 6.7 c-3.5999999046325684 -4.4 -3.4 -4.6 -4 -6.1 c0.30000001192092896 -0.5 0.7 0.1 1.2 1 c0.699999988079071 0.9 1.5 2.1 2.7 3 c0.30000001192092896 0.9 4 5.5 0.7 2.2 c0.9000000357627869 1.1 1.9 2.4 3 3.6 s2.0999999046325684 2.5 3.2 3.7 l0.4000000059604645 0.5 l0.20000000298023224 0.2 c0.10000000149011612 0.1 0.1 0 0.1 0.1 l0.30000001192092896 0.1 c0.20000000298023224 0.1 0.3 0.2 0.7 0.4 l0.4000000059604645 0.3 c0.10000000149011612 0.1 0.3 0.2 0.5 0.3 c0.4000000059604645 0.3 0.8 0.6 1.1 1 c-1.2999999523162842 -4.9 -2.8 -10 -4.2 -15.1 c-0.4000000059604645 -1.2 -0.7 -2.5 -1.1 -3.7 l-0.5 -1.8 c-0.20000000298023224 -0.6 -0.3 -1.2 -0.5 -1.7 c-0.30000001192092896 -1.1 -0.5 -2.2 -0.8 -3.3 c-0.20000000298023224 -1.1 -0.4 -2 -0.6 -3.1 c-0.4000000059604645 -2 -0.7 -3.9 -1 -5.8 c-0.20000000298023224 -1 -0.2 -1.8 -0.3 -2.8 l-0.10000000149011612 -1.2 l-0.10000000149011612 -0.9 c-0.20000000298023224 -2.2 -0.4 -4.6 -0.2 -6.4 c0 -2.5 -0.2 -1.7 -0.4 -3 c1.7999999523162842 -7.9 3.5 -18.3 6.6 -26.9 c-1 1.8 -1.2 -1.2 0.3 -6.1 c1.100000023841858 -5.5 1.7 -1.7 3.9 -6.3 c0.20000000298023224 -1.2 0.8 -3 1.3 -4.6 c0.10000000149011612 -0.3 0.2 -0.6 0.3 -0.9 c0.10000000149011612 -0.2 0.2 -0.5 0.3 -0.7 c0.20000000298023224 -0.5 0.3 -0.8 0.4 -1 l0.10000000149011612 0.2 c0 -0.2 0.1 -0.4 0.1 -0.7 c0 -0.1 0 -0.3 0.1 -0.3 c0.10000000149011612 0 0.2 0 0.3 0 c0.4000000059604645 0 1 0 1.4 0.1 h0.4000000059604645 l0.6000000238418579 0.1 c0.5 0.1 1.1 0.2 1.5 0.3 c1.100000023841858 0.2 2 0.4 2.9 0.7 h-0.6000000238418579 c3 0.6 6.3 1.7 9.5 2.2 c0.800000011920929 -0.3 3.1 0.1 5.4 0.4 c2.299999952316284 0.4 4.7 0.6 5.6 0.4 c0.4000000059604645 0.1 -0.2 0.1 0.6 0.4 l0.5 -1 l6.099999904632568 1.2 c-1.2999999523162842 0.1 -1.7 0.3 -3.5 0.2 c6.599999904632568 1.4 2.3 -0.3 5.9 -0.1 c4.699999809265137 0.2 4.4 0.9 6.6 1.4 c-2 0 -3.3 -0.7 -4.6 -0.7 c-2.700000047683716 0.1 2.8 0.6 2.8 1 c1 0.2 1.5 -0.6 4.9 0.1 c3 0.5 9.9 1.1 9 1.7 c2.5999999046325684 -0.1 5.5 0.4 7.5 0.3 c-2.4000000953674316 -0.4 -6.8 -1.1 -7.3 -1.6 c2.200000047683716 0.2 6.5 0.5 7.2 0.9 h-1.7999999523162842 c1.7999999523162842 0 8.1 1.1 4.9 0 l4.400000095367432 1.4 c1.7000000476837158 -0.3 6.3 0.1 10.1 0.4 c0.10000000149011612 0.8 -3 1.2 4 2 l6.099999904632568 -0.2 c3.200000047683716 0.2 4 0.5 3.4 0.9 c2.700000047683716 0.4 4.8 0.4 6.5 0.4 s3.0999999046325684 -0.2 4.3 -0.4 c2.5 -0.3 4.8 -0.6 9 0 c-3.5999999046325684 0.6 -0.7 0.9 3.2 1.3 c0.20000000298023224 -0.1 0.6 -0.4 2.1 -0.3 c-1.100000023841858 -0.5 -2.3 0.5 -5.2 -0.3 c-0.9000000357627869 -0.6 3.5 -0.1 5.4 -0.2 c3.700000047683716 1.1 10 1.4 17 1.7 c3.4000000953674316 0.1 7.1 0.3 10.6 0.4 c3.5 0.1 7 0.2 10 0.5 c-0.9000000357627869 -1.1 5.5 -0.2 8 -0.6 c-0.4000000059604645 0.6 1.3 0.5 3.6 0.5 c2.299999952316284 -0.1 5.1 -0.3 6.7 0 l-1.7999999523162842 -1.1 c7.599999904632568 0.6 12.2 -1.6 16.9 -0.5 c4.199999809265137 0.3 -1.4 0.8 -3.2 1 c1.399999976158142 0.3 3.2 0.4 5 0.3 c1.7999999523162842 0 3.7 -0.2 5.6 -0.4 c3.700000047683716 -0.3 7.4 -0.7 9.7 -0.1 c0.5 -0.5 -1.2 -1.1 3.8 -1.6 c4.099999904632568 0.4 12.2 0.6 11.5 0.8 c3.299999952316284 -0.4 4.2 -0.8 7.9 -0.6 c-0.30000001192092896 0.3 -1.9 0.4 -3.1 0.6 c5.800000190734863 0 10.5 -0.7 15.7 -1.3 c3.200000047683716 0.6 13.5 -0.5 20.2 -0.4 c3.700000047683716 -1.1 10.9 -0.4 11.3 -1.7 c-0.20000000298023224 0.2 0.7 0.3 1.1 0.3 c2.5 -0.6 4.4 -1.5 7.6 -1.8 l-1 0.9 c-0.699999988079071 1.1 7.7 -0.3 9.7 -0.1 c-1.7999999523162842 -0.4 3.9 -0.3 4.1 -0.9 l3.700000047683716 -0.6 c5.900000095367432 -0.8 0.7 -0.5 8 -1.2 c4.199999809265137 -0.4 1.5 0.9 0.1 0.9 c3.5 0.1 7 -0.4 10.5 -0.9 c-1.2000000476837158 0.1 -1.6 0.1 -0.5 -0.2 c0.10000000149011612 0.1 0.4 0.2 0.9 0.2 c1.2999999523162842 -0.2 2.8 -0.4 4.1 -0.5 c0 0 0 0 -0.1 0.1 c-1.5 0.2 -2.9 0.4 -3.9 0.5 c1 0 2.4 -0.1 3.8 -0.3 c0.20000000298023224 0.1 0.6 0 1.2 -0.1 c1.100000023841858 -0.1 2.3 -0.2 3 -0.1 l-1 0.8 c2.5999999046325684 -0.2 9.6 -1.6 9.4 -1.9 c10 -0.4 26.5 -2.5 33.3 -3.5 c-1.2000000476837158 0.3 -1.3 0.5 -0.1 0.2 c3.4000000953674316 -0.5 7.3 -1.4 7.6 -1.1 c3.299999952316284 -0.6 3.2 0.1 8.3 -0.4 c0.10000000149011612 0.1 0.5 -0.4 0 -0.5 c8.800000190734863 -0.1 19.6 -2.6 30 -3.3 c-0.9000000357627869 0.1 -2.1 0.7 -3 1.1 c1.7000000476837158 -0.3 3.5 -0.6 5.3 -1 c2 -0.4 4 -0.8 6 -1.1 c3.9000000953674316 -1 7.7 -1.7 11.4 -3 c-0.699999988079071 0.5 -0.4 0.7 -2.3 1.2 c2.799999952316284 -0.6 5.7 -1.1 8.3 -1.8 c2.5999999046325684 -0.7 4.8 -1.4 6 -2 c-3.799999952316284 0.6 -0.2 0.4 -2.7 1 c-4.099999904632568 0.3 2.9 -1.8 6.5 -2.6 l0.10000000149011612 0.1 c2.700000047683716 -0.7 4.1 -1.1 5.5 -1.6 c1.399999976158142 -0.5 2.8 -1 5.5 -1.7 c3.299999952316284 -0.6 -2.8 1 -1.3 1.1 c0.800000011920929 0.3 3.9 -0.4 7 -1.2 c3.0999999046325684 -1 6 -1.9 6.6 -2.1 c1.2000000476837158 -0.6 3 -1.4 2.7 -1.6 c4.099999904632568 -1.7 2.1 -0.1 5 -1.1 c0 0 2.9 -1.5 5.6 -3.2 c1.399999976158142 -0.8 2.8 -1.6 3.8 -2.2 c0.5 -0.3 0.9 -0.5 1.1 -0.7 C603.1452991962433 10.9 607.5 9.8 604.1 11.5 zM439.84531140327454 42.1 c1.100000023841858 -0.2 2 -0.3 2.7 -0.4 C441.7453052997589 41.8 440.9 41.9 439.8 42.1 z" id="svg_7" class=""/><path opacity="5.000000e-02" enable-background="new    " d="M57.05470156669617 26.9 l-0.10000000149011612 0.6 c-0.800000011920929 0.2 -0.2 -0.4 -0.9 -0.4 c0 -0.5 0.7 -0.6 1.2 -0.6 c-0.5 -0.1 -1.1 -0.5 -1.2 0 c-0.5 -0.3 0.1 -0.6 -0.5 -0.9 c-0.5 0.1 -1.1 0.6 -1.5 0.2 v-0.10000000149011612 c-1.100000023841858 -0.6 -2 0.6 -3.1 -0.1 l0.10000000149011612 -0.2 c-0.4000000059604645 -0.3 -1.2 0 -1.9 -0.4 c0.20000000298023224 0.1 0.3 0.5 -0.1 0.5 c-0.800000011920929 -0.4 -1.4 -0.2 -1.9 -0.7 l-0.699999988079071 0.4 c-1.399999976158142 -0.3 -5.1 -0.6 -8.6 -1.1 c-3.5 -0.6 -7.2 -1.1 -8.5 -1.5 h0.10000000149011612 c-2.200000047683716 -0.5 -5.5 -1.3 -8.6 -2.3 c-3.299999952316284 -1.1 -6.8 -2.2 -9.2 -2.8 c-0.6000000238418579 -0.7 -1.5 -1 -2.2 -1.3 c0.4000000059604645 0.4 0.1 0.6 -0.2 0.5 c-2.200000047683716 -1 -0.3 0.3 -2.6 -0.5 c-1.100000023841858 -0.3 -3.3 -1.1 -5.8 -2.1 V35.230804443359375 c1.399999976158142 0.2 0.1 0 2 0.9 c1.2999999523162842 0.4 2.3 -0.1 3 0.5 c-0.10000000149011612 0 -0.3 -0.5 0.1 -0.5 c-0.10000000149011612 0.5 1.1 0 1.1 0.6 c0.4000000059604645 0.1 1.4 0.6 1.3 -0.3 c0.10000000149011612 0.4 1 0.9 0.3 1 c0.30000001192092896 0.2 0.6 0.4 0.9 0.3 L9.154700994491577 37.2 c1.100000023841858 0.3 1.6 1.1 2.6 0.8 l-0.4000000059604645 -0.4 c0.699999988079071 0.2 1.2 0.4 1.3 1.1 l-0.800000011920929 -0.1 c0.6000000238418579 0.2 1.1 0.4 1.4 0.5 c0.5 0.1 1 0.2 1.5 0.1 l-0.4000000059604645 -0.1 c1.5 -0.2 8.3 1.3 9.7 0.7 l-0.4000000059604645 -0.7 l1.100000023841858 -0.2 c-0.10000000149011612 0 -1 1.5 -1 1.3 c1.100000023841858 0.3 4.4 1.1 7.7 1.6 c3.299999952316284 0.7 6.7 1.2 7.6 1.5 c0.800000011920929 0.5 0 0.9 0 1 c1.100000023841858 0 0.5 -0.5 1.3 -0.3 c0.20000000298023224 0.1 -0.1 0.4 -0.3 0.5 c0.4000000059604645 0 0.7 0.2 0.8 0 c-0.5 -0.3 -0.1 -0.9 -0.3 -1.3 l1.100000023841858 0.2 l-0.10000000149011612 0.4 c0.30000001192092896 0.1 0.8 -1.1 1.8 -0.7 c1.7000000476837158 0.4 3.7 0.5 5.5 0.9 c-0.10000000149011612 0.3 -0.5 0.4 -0.9 0.5 c0.30000001192092896 0 0.6 0 0.9 0.2 c-0.4000000059604645 -0.5 0.8 -0.2 0.5 -0.5 c1.399999976158142 -0.9 3.1 0.2 4.3 -0.4 c0.10000000149011612 -0.5 1.1 -4.4 1.9 -8.4 c0.9000000357627869 -4 1.6 -8 1.6 -8.5 c0.20000000298023224 0 0.3 0 0.4 0.1 c0.10000000149011612 0 0.2 0.1 0.2 0.1 C58.05470156669617 26.9 57.5 26.7 57.1 26.9 z" id="svg_8" class=""/></g>
</svg>