<svg xmlns="http://www.w3.org/2000/svg" xmlns:xlink="http://www.w3.org/1999/xlink" version="1.1" enable-background="new 0 367.9 612 58.8" width="609" height="43.3">

<rect id="backgroundrect" width="100%" height="100%" x="0" y="0" fill="none" stroke="none"/>
<g class="currentLayer">
<title>Layer 1</title>
<polygon fill="#FFFFFF" points="0.9,51.9 612.9,51.9 612.9,35.7 380.5,6.7 192.4,6.7 71.7,19.9 0.9,33.6" id="svg_1" class=""/>
<polygon fill="#848484" points="270.8,4.2 270.8,4.2 271.5,3.8" id="svg_2" class=""/>
<g id="svg_3" class="">
<path fill="#848484" d="M0.8695652484893799 41.8 v0.800000011920929 c0.4000000059604645 -0.1 0.7 -0.3 1.1 -0.4 c1.600000023841858 -0.6 3 -1 3.6 -1.1 c5.599999904632568 -3.3 -4.8 1.7 -4 0.4 C1.3695652484893799 41.6 1.1 41.7 0.9 41.8 z" id="svg_4"/>
<path fill="#848484" d="M10.469565629959106 31.3 c-7.300000190734863 1.7 -5.7 1.3 -9.6 2.3 v7.5 c5.099999904632568 -1.4 10.6 -2.9 17.1 -4.4 c-1.399999976158142 0.6 -2.4 1.1 -2.5 1.3 c0 0 0.7 -0.3 1.7 -0.8 c0.6000000238418579 -0.3 1.2 -0.6 2 -0.9 c5 -1.1 9.2 -1.8 12.9 -2.5 c-7.800000190734863 2.2 -16.3 4.9 -24 8 c3 -1.2 3.5 -2.2 0.9 -1.5 c-2 1.1 -4.8 2.5 -8.1 4 v4.800000190734863 c0.6000000238418579 -0.3 1.1 -0.5 1.7 -0.8 c0.800000011920929 -0.2 1.5 -0.5 2.5 -0.8 c1 -0.3 1.9 -0.7 3.1 -1.1 c2.200000047683716 -0.8 4.6 -1.8 7.3 -2.8 c2.5999999046325684 -1 5.5 -2 8.3 -3 c1.399999976158142 -0.5 2.9 -1 4.3 -1.3 c1.399999976158142 -0.4 2.9 -0.8 4.3 -1.1 c1.600000023841858 -0.6 3.5 -1.2 5.5 -1.8 c2.0999999046325684 -0.6 4.3 -1.1 6.4 -1.7 c4.300000190734863 -1.1 8.4 -2.3 10.7 -3.4 l0.5 0.5 c8.899999618530273 -2 21 -4.4 32.9 -6 c5.5 -0.8 6.5 -1.4 9.4 -2.2 c1.100000023841858 -0.1 2.1 -0.3 3.2 -0.4 l0.20000000298023224 0.2 c0.9000000357627869 -0.2 1.6 -0.4 2.3 -0.5 c2.4000000953674316 -0.3 4.7 -0.6 7.1 -0.8 c-0.30000001192092896 0.1 -0.7 0.3 -1 0.4 c3.299999952316284 -0.3 6.4 -1 9.4 -1.5 c5.199999809265137 -0.5 11.2 -0.9 15.6 -1.6 l2.700000047683716 0.3 c2.299999952316284 -0.4 5.1 -0.8 7.5 -0.8 l-0.10000000149011612 0.2 c3.4000000953674316 -0.7 7.5 -0.7 9.2 -1 l-0.10000000149011612 0.2 l4.199999809265137 -0.4 l-0.699999988079071 0.3 c6 -0.8 12.3 -1.2 17.9 -1.3 l-0.5 -0.6 c5.900000095367432 0 9.9 -0.4 13.9 -0.8 c0.800000011920929 -0.1 1.4 -0.1 2.2 -0.2 c-0.20000000298023224 0.1 -0.3 0.1 -0.3 0.1 c0.800000011920929 -0.1 1.5 -0.2 2.3 -0.3 c2.5999999046325684 -0.2 5.4 -0.3 8.8 -0.2 l-0.10000000149011612 0.1 c6.699999809265137 -1.1 12 -1.1 17.5 -1 c5.5 0.1 10.9 0.1 17.8 -0.8 c-1.7000000476837158 0.2 0.8 0.3 0.6 0.4 c6.400000095367432 -0.3 13.3 -0.6 13.4 -1.7 c4.699999809265137 -0.1 3.8 0.3 4.4 0.7 c0 -0.5 4 -0.8 7.7 -0.9 l-1.7000000476837158 0.2 l10.399999618530273 -0.4 l-2.0999999046325684 -0.9 c5.5 0.2 1.4 1.1 6.7 0.8 l-0.10000000149011612 -0.8 c7.599999904632568 0.1 12.2 1.1 19.6 1.7 c30.899999618530273 0.3 64.2 -1 92.8 1.6 l1.2000000476837158 0.6 c0.5 0.9 7.9 -0.9 9 0 l3.299999952316284 -0.2 c1 0.2 2.9 0.5 1.2 0.6 c3.0999999046325684 0.2 3.2 0.1 5.5 -0.1 l3.299999952316284 0.7 c6 0.6 11.7 0.8 17.4 1 c5.699999809265137 0.3 11.5 0.5 17.9 1.1 c7.599999904632568 1.3 18.6 2.3 29.8 3.5 c2.799999952316284 0.3 5.6 0.6 8.4 0.8 c2.799999952316284 0.3 5.5 0.6 8.1 0.9 c1.399999976158142 0.2 2.9 0.3 4.3 0.4 c0.699999988079071 0.1 1.2 0.2 1.9 0.3 c6.800000190734863 1.1 13.7 2.2 20.6 3.3 c-2.9000000953674316 -0.8 0.3 -0.8 3.2 -0.4 l0.699999988079071 0.4 l3.299999952316284 0.1 c1.100000023841858 0.2 2.2 0.4 3.3 0.6 c0.4000000059604645 0.3 -1.2 0.4 -3.5 0.1 c5.5 0.9 10.7 2 16 3 c5.199999809265137 1.1 10.3 2 15.4 3 c5.199999809265137 1 10.1 2.2 15.2 3.3 c5.099999904632568 1.1 10.2 2.4 15.4 3.6 c0.800000011920929 -0.3 3.5 0.3 6.2 1 c2.700000047683716 0.7 5.2 1.3 5.6 1 c1 0.4 0 0.2 -0.7 0.3 c5.900000095367432 1.3 9.6 2.2 12.7 3 v-10 c-2.5 -0.4 -5 -0.7 -7.5 -0.9 c-1.100000023841858 -1.3 -9.8 -1.9 -12.4 -2.8 h0.30000001192092896 c-3.700000047683716 -0.2 -7.5 -1.1 -11.1 -1.9 c-3.5999999046325684 -0.9 -7.4 -1.6 -10.9 -1.9 c0.30000001192092896 0 0.5 -0.3 2.1 -0.1 c-5.199999809265137 -0.8 -12.1 -1.7 -12.4 -2.4 c-12.199999809265137 -1.9 -29.3 -4.8 -37.3 -5 l0.6000000238418579 -0.1 c-0.699999988079071 0 -1.2 0 -1.8 0 c-5.300000190734863 -0.9 -10.6 -1.6 -16 -2.5 c-1.399999976158142 -0.2 -3 -0.5 -4.4 -0.7 l-4.400000095367432 -0.6 c-3 -0.4 -5.8 -0.8 -8.8 -1.1 c-5.800000190734863 -0.8 -11.6 -1.4 -17.1 -2.1 c-5.5 -0.6 -11 -1 -16.1 -1.2 c-1 -0.3 0.3 -0.3 0.9 -0.4 c-6.300000190734863 -0.2 -12.7 -1.2 -18.7 -2 c-6 -0.7 -11.7 -1.1 -16.4 -0.7 l-3.299999952316284 0.5 c-3 -0.6 -2.7 -1.1 -5 -1.5 c-1.2000000476837158 0.2 -4.1 -0.1 -6.9 -0.2 c-1.2999999523162842 -0.1 -2.7 -0.1 -3.8 -0.1 l-0.699999988079071 -0.2 c-0.699999988079071 -0.1 -1.1 -0.1 -1.5 -0.1 c0.20000000298023224 0 0.4 -0.1 0.4 -0.2 c-2.5999999046325684 -0.2 -5.4 -0.2 -8.1 -0.2 c-0.699999988079071 -0.1 -1 -0.2 0 -0.3 c-3.799999952316284 -0.5 -7.8 -0.5 -12 -0.5 c-27.799999237060547 -2.6 -62.5 -4 -85.2 -1.7 c-1.7000000476837158 -0.1 -3.5 -0.1 -5.3 -0.2 c-0.30000001192092896 -0.3 -0.1 -0.6 -1.5 -0.5 c-3.5 0.2 -7.3 0.5 -11 0.8 c-2 -0.2 -1 -1 -6.8 -0.6 l-1.399999976158142 0.7 c-7.300000190734863 1.1 -4 -1 -12 0.5 c1.2999999523162842 -0.1 1.8 0.1 1.6 0.3 c-1.100000023841858 0 -2.1 0.1 -3.2 0.1 h0.10000000149011612 c-0.30000001192092896 0 -0.6 0 -0.8 0.1 c-1.100000023841858 0 -2.2 0.1 -3.3 0.1 c0.9000000357627869 -0.3 0.1 -0.6 -2.9 -0.5 l2.0999999046325684 -0.7 l-6.099999904632568 1 c-4.699999809265137 -0.4 -12.1 0.5 -14.2 -0.1 c0 0 -2.5 0 -5.4 0.1 c-2.799999952316284 0.1 -5.9 0.3 -7.1 0.8 c2 -0.5 -3.5 -0.5 -2 -1.1 c-2.5999999046325684 0.6 -10.3 1.2 -13.5 1 l0.6000000238418579 -0.1 c-5.699999809265137 0 -10.6 0.4 -15.4 0.8 c-4.800000190734863 0.5 -9.4 0.9 -14.5 0.9 c0.5 0.5 -5 0.6 -3.5 1.1 c-10.600000381469727 1.3 -19.5 -0.1 -23.1 2.3 c-4.800000190734863 0.5 -5.7 -0.1 -8.2 0 l1.100000023841858 -0.2 c-9 0.9 -11.7 1.1 -18.4 1.6 c-3.299999952316284 0.5 -3.7 1.5 -9.8 1.9 c1.9000000953674316 -0.6 -0.6 -0.3 -2.8 -0.1 c1.399999976158142 -0.2 1.8 -0.4 -1.1 -0.4 c-0.4000000059604645 0.2 -1.1 0.3 -1.6 0.4 c0 0 -0.2 0 -0.1 -0.1 c-3.700000047683716 0.5 -3.1 0.6 -1.3 0.5 c-0.10000000149011612 0.1 0.1 0.1 0.7 0.2 c-3.9000000953674316 -0.1 -10.8 1.2 -11.4 0.6 c-11.300000190734863 1.5 -19.2 3.3 -28.4 5.2 c-1.100000023841858 -0.2 1.1 -0.9 3.7 -1.4 l-6.599999904632568 1.1 c0 -0.5 3.7 -1 5.7 -1.3 c-8 0.4 -16.1 3.4 -25.4 4.5 l-1.7999999523162842 0.8 h-0.6000000238418579 c0.10000000149011612 0.2 -1.9 0.9 -3.3 1.2 c-1.2999999523162842 -0.2 -0.1 -1.1 -4.7 -0.1 c-3.4000000953674316 0.6 -9.8 2.6 -14.4 3.9 c2.5999999046325684 -0.5 1.8 -0.1 0.8 0.3 c-2.299999952316284 0.5 -3.6 0.4 -5.4 1 l-0.30000001192092896 -0.4 c-0.20000000298023224 0.5 -5.9 1.9 -6.6 2.3 C5.169565439224243 32.9 10 31.8 10.5 31.3 z" id="svg_5"/></g><path opacity="5.000000e-02" enable-background="new    " d="MNaN nan c-2.4000000953674316 -0.4 -4.9 -0.8 -7.7 -1.5 h0.9000000953674316 c-2.700000047683716 -0.9 -8.2 -1.5 -13.1 -2.9 c1.399999976158142 0.4 2.6 1 -0.5 0.4 c-5.599999904632568 -1.4 -9.7 -1.9 -13.8 -3.2 l-4.099999904632568 -0.4 c-2.5 -0.5 -5.9 -1.2 -10 -2 c-2 -0.4 -4.3 -0.9 -6.6 -1.3 c-1.100000023841858 -0.2 -2.4 -0.5 -3.6 -0.8 c-1.2000000476837158 -0.2 -2.6 -0.5 -3.9 -0.8 c-10.800000190734863 -2.1 -23.4 -4.1 -36.1 -5.6 c-25.299999237060547 -3.3 -50.8 -5.2 -61 -5.8 h0.800000011920929 c-3.9000000953674316 -0.1 -8.4 -0.4 -13.2 -0.7 c-4.800000190734863 -0.3 -10 -0.6 -15.5 -0.9 c-2.799999952316284 -0.1 -5.5 -0.3 -8.4 -0.5 c-2.9000000953674316 -0.1 -5.7 -0.2 -8.7 -0.4 c-5.800000190734863 -0.2 -11.9 -0.6 -17.9 -0.7 c-24 -0.9 -48.2 -1 -64.4 -0.9 c-5 -0.5 -11.9 -0.4 -17.1 -0.6 c2.9000000953674316 0.2 1.9 0.6 -0.4 0.5 c-15.899999618530273 -0.1 -1.1 0.3 -17.1 0.5 c-18.600000381469727 0.1 -89.3 0.7 -105.8 0.8 c-4.400000095367432 0.5 -9.4 0.7 -14.3 0.9 c-5 0.2 -9.9 0.6 -14.2 1 l0.9000000953674316 -0.2 c-2.299999952316284 0.2 -7.4 0.5 -13.8 0.9 c-6.400000095367432 0.6 -14.2 1.1 -22.1 1.7 c-7.800000190734863 0.8 -15.7 1.5 -22.3 2.2 c-6.599999904632568 0.8 -11.9 1.5 -14.5 1.9 l1.399999976158142 -0.1 c-9.399999618530273 1.6 -8.1 0.7 -15.6 1.5 c1.100000023841858 0.7 -6.9 2.3 -9.9 2.8 l0.10000000149011612 -0.2 c-2.299999952316284 0.4 -6 1.2 -10.1 2.1 c-4.099999904632568 1 -8.6 1.8 -12.3 2.6 l0.20000000298023224 -0.5 c-3.200000047683716 0.9 -7.7 1.7 -12 2.6 s-8.399999618530273 1.7 -10.7 2.2 c-4.300000190734863 1 -9.6 1.9 -15.3 3.1 v18.600000381469727 c4.599999904632568 -1.1 9.3 -2 13.9 -3 c3.299999952316284 -0.7 6.7 -1.3 9.9 -1.9 l5 -1 l5 -0.9 c3.299999952316284 -0.6 6.7 -1.1 10 -1.8 c3.299999952316284 -0.6 6.7 -1.1 10 -1.6 c3.299999952316284 -0.6 6.7 -1.1 10.1 -1.6 s6.800000190734863 -1.1 10.2 -1.5 c0.699999988079071 0.1 -0.1 0.2 -0.9 0.4 c2.0999999046325684 -0.4 4.1 -0.7 6 -1 c2 -0.3 3.9 -0.6 5.8 -0.8 c3.799999952316284 -0.5 7.6 -1.1 11.3 -1.6 c2.0999999046325684 -0.1 2.7 0.1 3.3 0.2 c-0.699999988079071 -0.2 9.8 -1.3 20.5 -2.5 c5.400000095367432 -0.6 10.8 -1 14.9 -1.2 c4.099999904632568 -0.3 7 -0.6 7.1 -0.6 l0.5 -0.8 c8.199999809265137 -0.6 2.5 0.7 10 0.1 c2.9000000953674316 -1.2 12.6 -0.6 15.2 -1.3 c-0.10000000149011612 0.1 3.6 0 3.4 0.3 c1.100000023841858 -0.7 3.8 -0.3 6.2 -0.5 c0.9000000953674316 -0.2 -0.7 -0.2 -1.2 -0.3 l5.400000095367432 -0.4 c2.0999999046325684 0.1 2.7 0.5 0.4 0.6 c1.7000000476837158 0 4.4 -0.1 7.6 -0.2 c1.600000023841858 0 3.3 -0.1 5.3 -0.1 s4 0 6.1 0 c8.600000381469727 -0.1 18.9 -0.2 29.4 -0.2 c10.300000190734863 -0.1 20.8 -0.1 29.5 -0.2 c4.400000095367432 0 8.3 -0.1 11.7 -0.1 c3.299999952316284 0 6.1 0 8 -0.1 c-2 -0.5 -6.7 -0.1 -8.5 -0.9 c4 -0.4 5.9 0.1 7.7 -0.3 c1.5 1.1 8.9 0.3 12 1.2 l1.100000023841858 -0.6 l2 0.4 c17.799999237060547 -0.6 4 -0.3 19.8 -0.1 c9 -0.1 13.3 -0.8 18.3 -0.4 c-0.9000000953674316 -0.1 -2.3 -0.4 -0.2 -0.5 c0.4000000059604645 0.5 6.3 -0.3 7.5 0.3 c2.299999952316284 0 9.8 0.2 7.3 -0.6 c1.2000000476837158 0.4 7.9 0.7 3.9 0.9 c2.299999952316284 0.1 4.4 0.2 6 0.1 l-2.9000000953674316 -0.3 c7.699999809265137 0.1 11.8 0.7 16.7 0.2 l-2.799999952316284 -0.4 c4.599999904632568 0.1 8.3 0.2 10.1 1 l-4.699999809265137 0.1 c7.599999904632568 0.2 12 0.3 18.4 0.2 l-2.200000047683716 -0.1 c2 -0.1 6.1 -0.1 11.3 -0.1 c5.199999809265137 0.1 11.4 0.1 17.6 0.3 c6.199999809265137 0.2 12.3 0.3 17.5 0.5 c5.099999904632568 0.1 9.1 0.3 10.9 0.2 l-3.299999952316284 -0.8 h6.300000190734863 c-0.800000011920929 -0.1 -3.2 1.5 -3.8 1.3 c1.7000000476837158 0.1 4.3 0.3 7.6 0.5 c1.600000023841858 0.1 3.4 0.2 5.4 0.4 c1.9000000953674316 0.2 4 0.3 6.1 0.5 c4.300000190734863 0.4 9.1 0.8 14.2 1.1 c5 0.5 10.1 1.1 15.4 1.6 c1.2999999523162842 0.1 2.6 0.3 3.9 0.4 c1.2000000476837158 0.2 2.6 0.3 3.8 0.5 c2.5999999046325684 0.3 5.1 0.7 7.6 1 c2.5 0.3 4.9 0.7 7.2 1 c2.299999952316284 0.4 4.5 0.7 6.6 1.1 c4.199999809265137 0.7 8 1.2 11.1 1.8 s5.5 1.1 7 1.4 c4.900000095367432 1.2 0.8 1.1 0.7 1.1 c6 1 2.7 -0.1 7.7 1 c1.399999976158142 0.4 -0.4 0.4 -1.1 0.3 c2.200000047683716 0.4 4.3 1 4.6 0.8 c-2.799999952316284 -0.8 -1.4 -1.1 -2.6 -1.8 l6.599999904632568 1.4 l-0.4000000059604645 0.4 c1.399999976158142 0.3 4 -0.4 10.4 1.1 c11 2.4 22.9 4.7 34 7 c-0.20000000298023224 0.2 -2.6 -0.1 -5 -0.4 c1.5 0.3 3.7 0.7 5.1 1.1 c-2.5999999046325684 -1 4.7 0.7 2.7 0 c2.4000000953674316 0.2 5 0.6 7.7 1 v-18.600000381469727 HNaN z" id="svg_6" class=""/>
</g>
</svg>