<?xml version="1.0" encoding="utf-8"?>
<!-- Generator: Adobe Illustrator 18.0.0, SVG Export Plug-In . SVG Version: 6.00 Build 0)  -->
<!DOCTYPE svg PUBLIC "-//W3C//DTD SVG 1.1//EN" "http://www.w3.org/Graphics/SVG/1.1/DTD/svg11.dtd">
<svg version="1.1" id="Layer_1" xmlns="http://www.w3.org/2000/svg" xmlns:xlink="http://www.w3.org/1999/xlink" x="0px" y="0px"
	 viewBox="0 0 140 140" enable-background="new 0 0 140 140" xml:space="preserve">
<path fill="#010101" d="M136.1,82c-0.2-0.1-0.3-0.8-0.4-1c0.3-0.7,0.6,0.4,0.8-1.2c-0.7-0.4,0.5-3.2-0.5-0.8c0-1.6,0.4-1.6,0.5-3.5
	c-0.4,0.4-0.9-0.5-1.3-1.6c0-0.7,0.1-1.3,0.1-2c0,0,0.1-0.1,0.1-0.1c0-0.8,0.1-1.5,0.1-2.1c0-0.7,0.1-1.3,0.1-1.9
	c0.1-1.2,0.1-2.4,0-3.8c0.2-0.3,0.3-1.7,0.6-1.2c-0.2-0.4-0.5-0.8-0.6-1.7c0.4-1.9,0.4,2,1,0.6c-0.5-0.1-0.9-2.3-1.4-3.5
	c-0.3,0.3-0.2,1,0,1.8c0.2,0.8,0.5,1.8,0.7,2.4c-0.3,0-0.7-0.2-1-0.7c-0.4-3.2-1-6.2-1.8-9.2c0-0.3-0.1-0.7-0.2-1.1
	c-0.1-0.4-0.2-0.9-0.3-1.4c-0.2-0.5-0.3-1-0.5-1.5c-0.3-1.1-0.7-2.2-1.1-3.2c-0.4-1.1-0.8-2.1-1-2.9c-0.3-0.4-0.7-0.9-0.9-1
	c-1.8-3.7-3.8-7.1-6.2-10.4c0.1,0,0.2-0.1,0.2-0.2c0,0-0.3-0.3-0.6-0.6c-0.2-0.2-0.4-0.4-0.5-0.5c0,0-0.1-0.1-0.1-0.1
	c0.1,0,0.6,0.3,0.4-0.2c-0.2,0.1-0.4,0-0.7-0.2c-0.5-0.7-1.1-1.3-1.6-2c0,0,0-0.1-0.1-0.1c0,0-0.1,0-0.1,0c-0.5-0.5-0.9-1.1-1.4-1.6
	c0-0.1-0.1-0.1-0.2-0.2c-0.1-0.1-0.2-0.2-0.3-0.3C105.8,12.2,88.9,4.2,70.2,4.2c-1.3,0-2.5,0-3.7,0.1C65.7,4,65,3.6,65,3.1
	c-0.4,0.3-1,0.3-1.5,0.3c-0.6,0-1.2-0.1-1.9-0.1c-1.4-0.2-2.9-0.1-4.3,0.8c-0.7-0.1,0.5-0.4,0.1-0.6c-0.7,0.6-1.5,0.9-3.2,1.1
	l0.2-0.2c-2.3,0.6-4,1-5.7,1.5c-0.9,0.2-1.8,0.4-2.7,0.8c-1,0.3-2.1,0.6-3.4,1.1L43.1,8c-1.1,0.4-1.4,0.4-1.9,0.5
	c-0.9,1.3,3-1.3,2.2,0c-0.5-0.1-1.1,0.1-2,0.4c-0.8,0.3-1.7,0.8-2.6,1.2c-1.8,0.9-3.4,1.9-4.2,1.6c-1.5,1,0.8,0.2-0.7,1.2l-0.6,0
	l-0.2,0.6c-1,0.6-1.7,0.6-1.9,0.4c0.3-0.1,0.6-0.5,0.9-0.7c-0.7,0.3-1.6,0.9-2.3,1.5c-0.7,0.6-1.3,1.2-1.6,1.3l1.5-0.9
	c-3.8,3.1-8.4,7-10.9,11.1l0.4-0.1c-1,1.5-1.4,2-2,2.6c-0.6,0.5-1.1,1.1-2.2,2.8l0-0.1c-0.3,0.8-0.7,1.7-1.3,2.6c0.3-1-1.5,1.3-1,0
	c-1.6,3.6-0.7,1.9-1.1,4.5l-0.6,0.3c-0.1,1,0,1.1-0.7,2.9c0.3-1.6-1.1,0.9-0.8-1c-0.6,0.8-1.1,1.6-1.4,2.4c-0.3,0.7-0.4,1.4-0.6,2.1
	C7.2,46.3,7,47.3,6.1,48c0.4,2.1,1.8-3.2,1.7-2.1c0.3-0.3,0.4,0.1,0.3,0.8c-0.1,0.7-0.3,1.6-0.5,2.2c-0.2,0.6-0.7,1-1.3,1.7
	c-0.5,0.7-1.2,1.6-1.6,3.2c0.1-0.3,0-0.4,0.1-0.7c-0.5,1.2-0.2,2.5-0.9,3.9c0.5,1-0.4,2,0.4,2.3l0.3-3c0,0.9,0.1,1.7,0.2,2.7
	c0.1,1,0.1,2.1-0.4,3.4c-0.1-0.2-0.3-1.1-0.3-1.7c-0.3,0.8-0.1,1.6-0.4,2.4c-0.4-0.2-0.4-1.1-0.3-2.2c0.1-0.6,0.1-1.2,0.2-1.8
	c0.1-0.6,0.1-1.2,0-1.6c-0.3,0.4-0.3,1.3-0.3,2c0,0.7,0,1.1-0.4,0.5c0.5,0.8,0.4,1.6,0.2,2.5c-0.2,0.9-0.3,2,0,3.1l-0.5-0.2
	c0,0.4,0.3,1.1,0.2,1.8L2.2,66c0.5,1.9-0.6,3.5-0.2,5.3c-0.1-3.7,0.6-0.8,1-2.4c0.8,4.4-1.3,2.7-0.8,7.4c0-0.8,0.2-2.1,0.5-1.2
	c-0.1,1-0.1,2.3-0.3,2.9c0.5,3.4,0.5-0.6,1,0.8c-0.5,1.2,0.5,1.6,1,3l-0.5,0.1c0.4,3.8,1.3,0.8,1.6,4.2l-1-1.2c0,0,0.1,0.4,0.3,0.9
	c0.1,0.4,0.3,0.8,0.3,0.8l-0.7-0.2c1,1.8,1,2.4,1.4,4.3c0.2-0.5,1-0.1,1.5,1.5c0.1,1.2-0.7-0.4,0.2,1.8c-0.5-0.4-1.1-0.8-1-2
	c-0.2,0-0.5-0.4-0.7-0.4c0,1.3,1,3,1.3,3.8c-0.1-0.3-0.2-0.7-0.2-0.9c0,0,0.5,0.7,1,1.5c0.5,0.7,1.1,1.4,1.1,1.4
	c0,0.6-0.3,0.3-0.6-0.1c0.4,0.6,0.7,1,1.3,1.9c-0.5-0.1-0.9,0.2-1.7-1.1c0,0,0.1,0.2,0.3,0.4c0.2,0.3,0.4,0.6,0.6,1
	c0.5,0.7,1,1.4,1,1.4c-0.1,0.3,0.3,1.8,0,1.5c0.4,0.9,1.1,1.8,1.9,2.7c0.8,0.9,1.7,1.9,2.2,3c0.1,0.1,0.4,0.2,0.7,0.6
	c0.3,0.5,0.6,1,0.9,1.5c0.3,0.5,0.6,0.9,0.9,1.4c0.6,1,1.4,1.9,2.6,2.7c0,0,0.1,0.4,0.2,0.8c0.1,0.4,0.2,0.8,0.2,0.8
	c1.6,1.4-0.7-2.2,1.9,0.2c1.9,1.6,0.2,1.1,0.7,1.9c0.6,0.3,1.4,0.7,2.3,1.2c0.8,0.6,1.7,1.2,2.4,2.2c-0.7-0.4-1.1-0.9-1.6-1.3
	l1.1,1.5c-2.1-0.9-3.1-2.1-2.2-0.5c0.6-0.5,1.9,0.7,3.3,1.7c0.7,0.5,1.4,1,2,1.4c0.6,0.3,1.1,0.4,1.4,0.1l0.8,0.9
	c-0.3-0.2-0.4-0.2-0.6-0.4c1.5,1.9,2,0.1,4.3,1.8c0.8,0.6,1.3,1.1,0.6,1l2.1,0.8c0.5,0.3,0.4,0.4,0,0.3c0.1,0,0.1,0.1,0.2,0.1
	c0.3,0.1,0.7,0.3,1.1,0.5c0.8,0.4,1.6,0.7,1.6,0.7l0,0c0.5,0,1.7,0.1,2.3,0.2c0.7,0.6-0.5,0-0.3,0.2c0,0,0.5,0.1,0.9,0.2
	c0.5,0.1,0.9,0.2,0.9,0.2c0.3,0.3,0,0.4-0.5,0.4c-0.5-0.1-1.2-0.3-1.8-0.6c1,2.1,1.6,0.3,4.8,2.5c0,0-0.4-0.1-0.9-0.2
	c-0.4-0.1-0.9-0.2-0.9-0.2c0.8,1.2,2.2,1.4,4.1,2.6c-0.4-0.4-3.5-2.6-1.4-2.3c0.5,0.3,1.2,0.6,2.4,0.7c-0.1,0.5,0.9,0.7,2.3,1
	l-0.3,0.7c1.5,0.2,1.5-0.2,2.4-0.3c1.6,0.4,1.8,1.1,2.1,1.6c2.6,0.6-1.6-1.2,1.5-0.8c1.1,0.3,2,0.5,3,0.5c1,0,2,0,3.4-0.1
	c1.5,0.4-0.3,0.4,0.2,0.7l1.4-0.5c0.3,0,0.2,0.2,0.2,0.3c1.2-0.2,0.1-0.7,1.9-0.8c0.3-0.4,1.1-0.1,2.3,0.2c1.1,0.2,2.5,0.5,3.6,0
	c0.6,0.2-0.2,0.4-0.1,0.7c3-0.8,2.6-0.6,5-1.7c0,0,0.5,0,1.1,0.1c0.5,0,1.1,0.1,1.1,0.1c-1.6-0.2,0.3-1.2,1.8-2
	c-0.1,0-0.2,0-0.2-0.1c0.2,0,0.4-0.1,0.5-0.1c-0.1,0.1-0.2,0.1-0.3,0.2c0.1,0,0.2,0.1,0.3,0.1c0.1-0.1,0.2-0.2,0.3-0.3
	c0.4-0.1,0.9-0.2,1.3-0.3c0,0.2-0.2,0.5-0.6,0.8c-0.4-0.1-0.7-0.1-1-0.2c-0.6,0.5-1.1,1.1-0.9,1.5c0.2-0.1,0.5-0.2,0.9-0.3
	c-0.2,0.1-0.2,0.3-0.2,0.3c0.1,0.1,0.4-0.1,0.8-0.4l0.8,0.6l0.1-0.3c0,0,0.9-0.1,1.8-0.2c0.9-0.1,1.8-0.2,1.8-0.2
	c0.6-0.4,1.1-0.8,1.7-1.1c0.5-0.4,1.1-0.8,1.7-1.3c1.2-0.8,2.5-1.8,4.3-2.7c-0.7,0.9,0.2,1,0.4,1.6c-1.3-0.3-2.8,1.5-4.9,2
	c1.1-0.3,1,0.1,0.7,0.3c0,0,0.2-0.1,0.5-0.3c0.3-0.2,0.7-0.4,1.2-0.7c0.8-0.5,1.7-1,1.7-1c0.1,0.6,0.9,0.1,1.9-0.1
	c-1.1-0.7,2.3-1.8,3.5-2.9c0.3,0.3,0.1,0.8-1.6,1.6c2.2-0.2,1.8-2.3,3.9-2.8c-0.4,0.2-0.6,0.3-0.7,0.6c0.4-0.4,1.2-0.9,1.8-1.2
	c0.6-0.3,1.1-0.5,1-0.2l-0.4,0.3c0.7-0.4,1.5-0.9,2.4-1.5c0.9-0.6,1.7-1.3,2.5-1.9c1.5-1.3,2.7-2.6,2.5-3.1c0.1,0.1,0.4,1.1,0.4,1.4
	c0,0,0.2-0.4,0.3-0.9c0.2-0.6,0.4-1.3,0.7-2c0.1-0.4,0.3-0.8,0.4-1.1c0.4-0.4,0.8-0.8,1.2-1.2c0.8,0.5,1.7,1,0.6,2.4
	c0.6-0.4,1.4-0.9,2.3-2.3c-0.4,0.3-1.7,0.1-1.3-0.5c1.9-0.7,1.2-0.6,3.4-1.8c-0.6,0.5-1-1-0.2-1.9c0,0.3,1,0.7,0.8,1.1
	c0,0,0.2-0.8,0.5-1.5c0.2-0.8,0.4-1.5,0.4-1.5c-0.3,0.7,0.7,0.8,1.4,0.4c-0.2,0,0.2-0.5,0.7-1.1c0.5-0.6,1-1.3,1.2-1.7l-1,0.9
	c2.1-2.6,0.5-3.7,2.2-6.3c0,0.5,0.9,1.7,1.8,0.3c-0.1-0.5-0.3-1.8-0.5-3.2c0.6-1.1,1.1-2.1,1.6-3.2c0,0.2,0,0.5,0,0.7
	c0.1,1.6,0,3.2-0.2,4.4c0.8-1,0.5-0.1,1.4-1.8c0.6-0.4,0,1.1-0.2,1.7c0,0,0.6-1,1.1-1.9c0.3-0.5,0.5-1,0.7-1.3
	c0.2-0.4,0.3-0.6,0.3-0.6c-0.4-0.1-0.2-0.9,0-1.7c0.2-0.8,0.3-1.7,0-1.7c0,0-0.1,0.3-0.2,0.7c-0.1,0.4-0.2,1-0.4,1.6
	c-0.3,1.2-0.6,2.3-0.6,2.3c-0.8-0.2-0.7-3.3,0.5-6.1c0.6-0.6,1,1,1.3,1c-0.1-0.5,0.5-2.9,0.8-3.1l0,1.4c0.8-1.6,0-2.9,1.2-4.7
	c0.3-0.7,1.5-1.8,1.1-2.1c-0.6,0.6-1.8,0.6-2.8,0.4c0.2-0.8,0.4-1.5,0.5-2.3l0.3,0.2l0.1-0.4l-0.3,0c0.2-0.8,0.3-1.6,0.4-2.4
	C135.1,80.5,135.5,82.7,136.1,82z M85.3,134c0.4-0.2,1-0.2,1.6-0.3C86.6,134,86,134,85.3,134z M46,132.8c0.8-0.3,1.1,0.1,1.8,0.5
	C47.3,133.3,46.2,133.2,46,132.8z"/>
</svg>
