<?xml version="1.0" encoding="utf-8"?>
<!-- Generator: Adobe Illustrator 18.0.0, SVG Export Plug-In . SVG Version: 6.00 Build 0)  -->
<!DOCTYPE svg PUBLIC "-//W3C//DTD SVG 1.1//EN" "http://www.w3.org/Graphics/SVG/1.1/DTD/svg11.dtd">
<svg version="1.1" id="Layer_1" xmlns="http://www.w3.org/2000/svg" xmlns:xlink="http://www.w3.org/1999/xlink" x="0px" y="0px"
	 viewBox="0 0 140 140" enable-background="new 0 0 140 140" xml:space="preserve">
<path fill="#010101" d="M94.7,11.7c-1.1-0.2-2.3-0.8-3.4-1.3c-1.1-0.5-2.2-0.8-3-0.6c0.7,0.8,3.1,0.5,2.8,1.6c0,0-1.2-0.4-2.5-0.9
	c-0.6-0.2-1.3-0.4-1.7-0.5c-0.5-0.1-0.8-0.2-0.8-0.2c1.4,1.1,5,1.6,6.8,2.5c1.4,0.5-2.6-1.2-1.8-1.6c2.3,0.9,3.7,1.7,4.6,2.5
	c1,0.8,1.6,1.6,2.4,2.6c0.3,0.4,0.2,0.6-0.1,0.5c-1.2-0.6-2.3-1.2-3.5-1.7c-2.3-2.1-6.2-4-10.6-4.5c0,0-0.7,0.1-1.4,0.1
	c-0.7,0.1-1.4,0.2-1.4,0.2c-2.2-1.2-1-2.6-5.4-2.9c0,0,0.3,0.2,0.6,0.4C76.7,8,77,8.2,77,8.2c-1,0.1-1.6,0.2-2.1,0.1
	c0.9,0.3,1.8,0.6,2.7,1c0.6,0.2,1.2,0.5,1.7,0.7c-1.9-0.3-3.8-0.5-5.8-0.6c-0.3-0.1-0.7-0.2-1-0.3c-1-0.2-1.9-0.4-2.8-0.5
	c0.2,0.1,1.4,0.2,1.8,0.6c-2.7,0.1-5.4-0.1-8-0.2c-1.3,0-2.6-0.1-3.8,0c-1.2,0-2.4,0.1-3.4,0.3c-1.6,0.9,3.5-0.4,2.8,0.7
	c-2.2,0.1-4.4,1.4-5.2,0.8c0.6,0.4-0.6,0.8-1.4,1c-0.5,0.2-0.8,0.3-0.6,0.3c-0.7,0.2-1.4,0.5-2.2,0.7c-0.6-0.1-1.2-0.1-2.3,0.2
	c0.7,0.2-0.4,0.6-1.4,1.1c0.3-0.1,0.7-0.2,1-0.2c-2.7,1.2-5.4,2.5-7.9,4.1c-2.6,1.3-5.2,2.8-7.5,4.4c0.4,0,0.6,0.2,0.6,0.5
	c-0.4,0.3-0.8,0.7-1.2,1c-0.2,0.1-0.4,0.1-0.6,0.2c-0.4,0.1-0.8,0.3-1.3,0.6c-0.5,0.4-1.2,0.9-2,2c-0.5,1.1-0.3,1,0.1,0.9
	c-1.6,1.7-3.1,3.4-4.5,5.3c-0.4,0.5-0.8,0.9-1.2,1.3c0.1,0,0.2,0,0.3,0c-0.3,0.5-0.7,0.9-1,1.4c-0.7,0.9-1.4,1.7-2,2l0.3,0.5
	c-0.8,1.4-1.6,2.8-2.4,4.3c0-0.1-0.2,0.2-0.4,0.7c0.1-0.1,0.1-0.2,0.2-0.3c-0.2,0.4-0.3,0.7-0.5,1.1c0.1-0.3,0.2-0.5,0.3-0.7
	c-1.4,2-2.8,5.7-3.5,8c0.2-0.1,0.4-0.3,0.7-0.6c-0.1,0.3-0.2,0.5-0.3,0.8c-0.4,1.3-0.7,2.7-1.1,4c-0.8,2-0.9,0.9-0.9-0.2
	c-0.1-1.2-0.1-2.5-1.1-0.3c0,0,0.1-0.4,0.2-0.9c0.1-0.4,0.2-0.9,0.2-0.9c-0.1,0.2-0.2,0.2-0.3,0.1l0.6-2.3c-0.3,0.7-0.7,1.9-1.1,2.7
	c-0.3,0.8-0.6,1.2-0.8,0.3c0,0,0-0.2,0.1-0.5c0.1-0.3,0.2-0.8,0.3-1.2c0.2-0.9,0.4-1.7,0.4-1.7c-0.8,0.8-0.7-0.6-1.2-0.5
	c0,0-0.2,0.6-0.6,1.5c-0.2,0.5-0.4,1-0.6,1.6c-0.2,0.6-0.4,1.2-0.6,1.9c-0.5,1.3-0.8,2.6-1.1,3.6c-0.3,1-0.4,1.6-0.4,1.6
	c0.4-0.4,0.8-1.9,1.1-1.2c-0.1,1.4-0.3,2-0.5,2.5c-0.2,0.5-0.4,1.1-0.2,2.4l0.5-1.1c-0.2,0.2-0.3,0.6-0.3,0c-0.2-1,0.2-1.3,0.5-1.3
	c0.4,1-0.1,3.6-0.6,4.4c0,3.4,1,0.7,1.2,1.5c-1.1,1.8,0.1,5.7-0.1,7.8l0.5-1.4C8,74.8,8.2,76,8.3,77.1c0,1.1,0,2.1,0,2.8l0.4-0.7
	c0.5,3.6,2.7,4.8,1.7,7.8l0.2-0.5c0.6,1.3,1.6,3.3,1.7,4.8c0.2,0,0.5,0.1,0.8,0.6c-0.2,0.5,0,1,0.4,1.7c0.4,0.7,0.9,1.4,1.4,2.3
	c-0.5-1.3,0.5-1.3,0.1-2.7c1,1.3,1.2,2,1.2,2.8c0,0.8-0.2,1.5,0.5,2.7c1.2,1.2-0.3-1.5-0.2-2c0.4,1,1,1.9,1.6,2.7
	c0.7,0.8,1.4,1.6,2.1,2.3c0.7,0.7,1.3,1.4,1.8,2.1c0.5,0.7,0.8,1.4,0.8,2.2l-1.5-1.1c0.7,1.6,1.3,2.3,1.3,2
	c-0.4-0.4-0.4-0.6-0.3-0.9c1.9,1.7,2.9,3.4,4,5.1c1.1,1.7,2.2,3.4,4.3,5c-0.1-0.5-0.5-1.1-0.4-1.3c1,0.7,1.2,1.3,1.5,2.1
	c0.3,0.8,0.9,1.7,2.7,2.5l-0.4-0.8c1.2,0.6,1.6,1.6,1.4,1.6c0.2-0.3,0.8-0.2,1.5,0.2c0.7,0.4,1.6,0.9,2.7,1.5c2,1.2,4.5,2.2,6.1,1.8
	c0.6,0.8,2.2,1.8,3.8,2.6c1.6,0.8,3.3,1.4,4.1,1.3c2.5-0.3-1.7-1.5-0.6-2.1c1.7,0.5,2.4,1.6,5.1,1.9c-0.1,0.9-5.7,0.5-0.7,2.1
	l0.8-0.3c-0.5-0.1-1.3-0.1-2-0.3c-1.3-0.8,1-0.4,1.4-0.5c0,0,0.3,0.1,0.8,0.2c0.5,0.1,1.2,0.3,1.8,0.4c1.3,0.3,2.7,0.5,2.7,0.5
	c0.1,0.5-0.6,0.6-1.4,0.5c-0.8-0.1-1.7-0.2-1.9-0.1c1.1,0.2,2.3,0.2,3.5,0.2c1.2,0,2.4,0,3.6-0.1c2.4-0.1,4.7-0.3,6.7-0.1l-0.4-0.3
	c5.2,0.4,2.8-1.8,7-0.9c2.1-0.6-0.9-0.8,2.2-1.4c0.9-0.2,0.4,0.2,0.3,0.4c3.9-0.6,1.5-1.2,5.2-1.3l-0.9-0.6c0.2-0.1,0.5-0.1,0.7-0.2
	c1.9-0.2,3.9-0.4,5.8-0.7c1.1-0.2,2.1-0.5,3.1-0.8c1-0.4,1.9-0.8,2.7-1.3c-0.6-0.6-2.6,0.6-3.7,0.4c2.6-0.5,5.4-1.9,7.9-3.6
	c2.5-1.7,4.8-3.5,6.8-4.9c-0.7,1.4,2.7-0.4,0.7,2c-1.2-0.2-2,1.2-3.4,2.1c0.8,0,1.8-0.5,2.8-1.2c0.9-0.8,1.9-1.7,2.8-2.7
	c0.9-1,1.7-2,2.3-2.7c0.7-0.7,1.3-1.1,1.7-1l-0.1-1c0.6-0.5,2.3-1.6,1.6-0.4c0,0,0.2-0.3,0.5-0.7c0.3-0.4,0.7-1,1-1.6
	c0.4-0.6,0.7-1.1,1-1.6c0.3-0.4,0.4-0.7,0.4-0.7c-1.5,1.3-5,3.5-5.3,4.9c-1.6,0.6,1-2-0.5-1.6c1.6-0.9,1.9-1.4,2-2
	c0.1-0.6,0.2-1.2,1.4-2.6c0,1,0.8,0.5,1.7-0.3c0.9-0.7,1.7-1.7,1.9-1.5c0.3-0.6,0.8-1.3,1.4-2.1c0.6-0.8,1.3-1.5,1.7-1.9
	c0.5-0.9,1.2-2.6,1.8-4.5c0.6-1.8,1.3-3.8,2-5.4c-0.7,1.2-1.9,2.9-2.5,2.5c1-1.4,1.5-3.2,0.9-3.7c-1.6,2.5-1.4,3.1-1,3.7
	c0.3,0.5,0.8,1.1-0.7,3.4c-0.7,0.4-1.2,0.9-1.8,1.6c-0.6,0.7-1.1,1.6-1.9,2.7c0.1-0.6,0-0.9-0.1-1c0.4-0.8,0.8-1.5,1.2-2.3
	c0.1-0.1,0.2-0.3,0.3-0.4c0.5-0.9,1-1.9,1.4-2.9c0.4-1.1,0.8-2.2,1.1-3.2c0.3-1.1,0.8-2.1,1.3-3.1c0.5-0.8,1-0.8,1.5-1.1
	c0.5-0.3,1-0.9,1.6-2.9c0,0-0.1,0.9-0.1,1.8c0,0.5-0.1,0.9-0.1,1.3c0,0.3-0.1,0.6-0.1,0.6c0.3-2,0.4-2.2,0.7-2.3
	c0.3-0.1,0.6-0.1,1.1-1.7l-0.9,1.2c0.4-2,0.5-2.7,1.2-3.8l-1.2,1.5c0.1-1.1,0.3-3.1,0.8-3.1c-0.2-0.3-0.4-0.4-0.5-0.5
	c0.2-0.2,0.3-0.7,0.5-2c-0.2,0.7-0.2,1.3-0.5,1.3c0.2-1.2,0.2-1.9,0.2-2.3c-0.1-0.4-0.2-0.5-0.3-0.5c-0.3-0.1-0.6,0.1-0.4-1.4
	c-0.2,0.5-0.5-0.4-0.6-1.5c0.7,0.1,1.3-1.4,1.5-3.1c0.3-1.7,0.4-3.6,0.8-4.4l0,0c0,0,0-0.3,0-0.7c0-0.4,0-0.9,0-1.4
	c0-0.5,0-1.1,0-1.4c0-0.4,0-0.7,0-0.7c0,0.9-0.5,0-0.9-1.1l0,0.2c-0.5-1.2-1.3,1.8-1.6-2.1c0,0,0-0.5,0-1c0-0.5,0-1,0-1
	c0,0.4-0.3,0.1-0.4-0.1l-0.2-2.1c-0.5-0.7-0.9-1.4-1.2-2.1c-0.2-0.7-0.4-1.5-0.5-2.3c-0.3-1.6-0.6-3.3-1.7-4.8
	c0.6,0.9,1.1,2.5,0.4,2c-0.4-0.6-0.7-1.7-0.8-2.3l-0.1,0.2c0,0-0.1-0.4-0.4-1.1c-0.2-0.6-0.5-1.5-0.9-2.3c-0.3-0.8-0.7-1.7-1-2.3
	c-0.3-0.6-0.5-1-0.5-1c-0.1,0.4,0.5,1.4,0.8,2.3c0.3,0.8,0.4,1.4-0.3,0.7c-0.5-0.3-0.9-1-1.3-1.7c-0.3-0.7-0.6-1.6-1-2.1
	c0.4-0.1,2,1.7,0.9-0.4c-0.3-0.1-2-1.8-1.6-0.7c-0.5-1.1-1.3-2.4-2.1-3.7c-0.8-1.3-1.6-2.5-2.1-3.6c-0.6-0.4,0,0.5,0.2,0.8l0.2,0.1
	c0.8,1.3-0.6,0.8,1.6,2.8c-0.4,0.5-1.2-0.2-2-1.3c-0.4-0.6-0.9-1.1-1.4-1.7c-0.5-0.6-1-1.2-1.5-1.6c0,0,0.6,0.9,1.1,1.8
	c0.5,0.9,1,1.8,1,1.8c-2.9-1.9-5.7-4.6-8.6-7.2c-2.9-2.6-6.1-5.1-9.1-6.6c2,0.5,3.2,1.7,3.5,0.7c-1.7-1.3-2.5-1.7-3.3-2.2
	c-0.8-0.5-1.7-0.8-3.6-1.8L94.7,11.7z M50,125.9c-1.1-0.2-2.2-0.7-2.5-1.2c1.9,0.6,3.9,1.4,4.5,1.2C52.1,126.1,51.1,126.1,50,125.9z
	 M96.4,123.3l2.1-0.7l-0.1,0.2l-2.1,0.7L96.4,123.3z M116,30.8c-0.2-0.4-0.5-0.8-0.8-1.2C115.7,30.3,115.9,30.6,116,30.8
	c0,0,0,0.1,0.1,0.1C116,30.9,116,30.9,116,30.8C116,30.8,116,30.8,116,30.8z M10.9,58.2c0.4-0.6,1.1-1.6,1.5-2.7
	c-0.3,1.3-0.5,2.5-0.7,3.8c-0.3,0.8-0.6,1.6-0.6,1.6C10.9,60,10.3,60.5,10.9,58.2z M10.9,69.5c0,0.6,0,1.2,0.1,1.8
	c-0.1,0.1-0.3,0-0.4,0.1C10.6,70.6,10.7,69.7,10.9,69.5z M10.6,84.3c0,0-0.2-0.5-0.3-1c-0.1-0.5-0.3-1-0.3-1c0.3-2.4,1-0.3,1.7,1.7
	c0.1,0,0.3,0.2,0.6,0.5c0.2,0.3,0.1,0.6,0.1,1c0.2,0.4,0.4,0.7,0.5,0.9l-0.1,0.2c-0.4-0.3-0.5-0.7-0.4-1.1c-0.2-0.4-0.4-0.9-0.7-1.5
	c-0.7-0.2-0.4,2.1-0.6,2.8c-0.1-1.1,0.1-2.2-0.6-3.5C10.5,83.5,10.3,83.4,10.6,84.3z M25.9,110c-0.5-0.7-1-1.6-1.6-2.2
	c0-0.8,0.6,0.4,1.2,0.6c0,0,0.1,0.2,0.3,0.4c0.2,0.3,0.4,0.6,0.7,0.9c0.3,0.3,0.5,0.7,0.7,0.9c0.2,0.3,0.3,0.4,0.3,0.4
	C26.9,111.3,26.4,110.7,25.9,110z M43.9,123c0.2-0.5-2.7-1.9-2.9-2.2c0-0.2,0-0.3,0.1-0.4c0.9,0.5,1.7,0.9,2.6,1.4
	c0.4,0.3,0.9,0.6,1.4,0.7L43.9,123z M113.8,111.5l-1.1,0.5l1.3-1.5L113.8,111.5z M111.3,111.7c0.4-0.4,0.8-0.8,1.2-1.2
	c1.1-0.9,2.2-2.4,2.7-2.8C114.3,109.1,112.2,111.5,111.3,111.7z M119.7,34.2c0,0,0.2,0.3,0.4,0.7c0.2,0.4,0.5,0.9,0.8,1.5
	c0.3,0.5,0.6,1.1,0.8,1.5c0.2,0.4,0.3,0.7,0.3,0.7s-0.1-0.3-0.4-0.6c-0.2-0.4-0.5-0.9-0.8-1.4c-0.3-0.5-0.6-1-0.8-1.4
	c-0.2-0.4-0.4-0.6-0.4-0.6l-0.1,0.8l-0.1-1.1l0.2,0.3L119.7,34.2z M118.8,33.8c0,0-0.1-0.2-0.2-0.4c-0.1-0.2-0.3-0.6-0.5-0.9
	c-0.4-0.6-0.7-1.3-0.7-1.3l0.5,1.5c0,0-0.5-1-1-2c-0.5-1-1.1-2-1.1-2C117.9,30.3,119.1,33.1,118.8,33.8z"/>
</svg>
