<?xml version="1.0" encoding="utf-8"?>
<!-- Generator: Adobe Illustrator 18.0.0, SVG Export Plug-In . SVG Version: 6.00 Build 0)  -->
<!DOCTYPE svg PUBLIC "-//W3C//DTD SVG 1.1//EN" "http://www.w3.org/Graphics/SVG/1.1/DTD/svg11.dtd">
<svg version="1.1" id="Layer_1" xmlns="http://www.w3.org/2000/svg" xmlns:xlink="http://www.w3.org/1999/xlink" x="0px" y="0px"
	 viewBox="0 0 140 140" enable-background="new 0 0 140 140" xml:space="preserve">
<path fill="#010101" d="M26,121.9c2.5,2.1,5.1,4.1,7.7,6.1c0.8,1,7,4.9,14,7c6.9,2.3,14.2,2.7,15.4,2.5c0,0-0.7-0.3-1.5-0.8
	c-0.7-0.4-1.4-0.8-1.4-0.8c4.8,0.4,8.3,0.6,11.7,0.6c3.4,0,6.6-0.3,10.5-1.6l-0.4,0.3c0.6,0,1-0.7,2.8-1.3c0.9-0.4,2.2-0.7,4.1-1.1
	c1-0.2,2.1-0.4,3.4-0.6c1.3-0.2,2.8-0.5,4.5-0.7l0,0.1c0.4-0.2,0.3-0.4,1.1-0.5c-0.2,0-0.6,0.1-1,0.1c-0.6,0.1-1.2,0.1-1.2,0.1
	c1.2-0.8,2-1.9,3.6-2.7c0.4,0,0.6,0.1,0.8,0.3c0,0,1-0.6,1.9-1.2c0.5-0.3,1-0.6,1.3-0.8c0.3-0.2,0.6-0.4,0.6-0.4l1.6-0.1
	c0.9-1.1-0.5-2.1,3-3.4c-1.8-0.1,1-1.6,0.3-1.8c0.2,0,0.7-0.1,1.1-0.1c0.8-0.7,1.9-1.8,2.8-2.8c0.9-1.1,1.7-2.1,1.8-2.6
	c0,0-0.5,0.2-1.2,0.6c-0.8,0.4-1.8,0.9-2.9,1.3c-2.2,0.9-4.8,1.7-6,1.8c2.4-1.4,0.5-0.5-0.1-0.5l0,0.3c-1.5,0.7-1.9,0.1-2.7,0.4
	c0,0,0.1,0.1,0.1,0.1l0-0.1c0.1,0.1,0.1,0.2,0.1,0.3c0.1,0.1,0.1,0.3-0.3,0.5l0-0.1c-0.5,0.4-1.6,1-2.1,1.2l-0.3-0.5
	c-0.1,0.4-0.7,0.7-1.5,1.1c-0.4,0.1-0.8,0.3-1.3,0.4c5.2-2.7,10.1-6.1,14.5-10.4c0.1-0.1,0.1-0.2,0.2-0.2c0.5,0.2,1.1,0.5,1.8,0.7
	c1.3,0.5,2.6,1,2.6,1s0.5-0.1,1.2-0.4c0.7-0.3,1.7-0.6,2.7-0.9c1-0.3,2-0.8,2.7-1.1c0.7-0.3,1.2-0.5,1.2-0.5s0.2-0.3,0.5-0.7
	c0.3-0.5,0.7-1.1,1.3-1.9c1-1.6,2.3-3.8,3.4-6.1c0.5-1.2,1.1-2.3,1.5-3.4c0.4-1.1,0.8-2.1,1.2-3c0.6-1.8,1-3,1-3s0.4-0.9,1-2.3
	c0.3-0.7,0.6-1.5,1-2.4c0.4-0.9,0.7-1.8,1-2.8c0.3-1,0.7-1.9,0.9-2.9c0.3-0.9,0.5-1.8,0.7-2.5c0.4-1.5,0.6-2.5,0.6-2.5
	s0-0.6,0.1-1.7c0.1-1.1,0.1-2.7,0.2-4.5c0-3.8-0.3-8.8-1.3-13.7c-1-4.9-2.6-9.7-4-13.1c-0.4-0.9-0.7-1.6-1-2.3
	c-0.3-0.7-0.6-1.3-0.9-1.8c-0.2-0.5-0.4-0.9-0.6-1.1c-0.1-0.3-0.2-0.4-0.2-0.4l-2.4-1.9c-1-3.9-3.7-7.6-6.7-10.9
	c-3.1-3.3-6.5-6.3-9.4-9.5l-0.8,0.7c-1.9-1.4-1.4-1.7-1.8-2.3c-4.5-3.2-9.5-5.8-14.7-7.6c-2.6-1-5.2-1.7-7.9-2.4
	c-2.7-0.6-5.3-1.1-8-1.4C73,2.4,67.6,2.4,62.5,2.9c-5.2,0.5-10.2,1.4-15,2.8c-1,0-2.9,0.6-4.6,1.3c-1.8,0.6-3.4,1.4-4.3,1.4
	c-2.6,2-5.3,4-7.9,6c-2.6,2-5.2,4-7.5,6.2l0.1-0.2c0,0-0.5,0.5-1,1.1c-0.5,0.6-1,1.1-1,1.1c-0.1,0-0.2,0-0.2-0.2
	c-0.4,0.8-1,1.5-1.7,2.3c-0.7,0.8-1.4,1.6-2.2,2.5c-1.6,1.7-3.2,3.4-4.5,5.1l0-0.3c-1.7,2.5-3.2,5.2-4.5,8c-1.2,2.8-2.4,5.5-3.2,8.4
	C3.2,54.1,2.3,60,2.1,65.8c-0.3,11.7,2.1,23.3,7,34.5c1.9,5.4,5.5,10.6,9.9,15.1C21.1,117.7,23.6,119.8,26,121.9z"/>
</svg>
