<?xml version="1.0" encoding="utf-8"?>
<!-- Generator: Adobe Illustrator 18.0.0, SVG Export Plug-In . SVG Version: 6.00 Build 0)  -->
<!DOCTYPE svg PUBLIC "-//W3C//DTD SVG 1.1//EN" "http://www.w3.org/Graphics/SVG/1.1/DTD/svg11.dtd">
<svg version="1.1" id="Layer_1" xmlns="http://www.w3.org/2000/svg" xmlns:xlink="http://www.w3.org/1999/xlink" x="0px" y="0px"
	 viewBox="8.4 103.6 589.1 585.3" enable-background="new 8.4 103.6 589.1 585.3" xml:space="preserve">
<path fill="#010101" d="M595,448.5c-0.9-0.4-1.3-3.5-1.7-4.4c1.3-3.1,2.6,1.7,3.5-5.2c-3.1-1.7,2.2-14-2.2-3.5c0-7,1.7-7,2.2-15.3
	c-1.7,1.7-3.9-2.2-5.7-7c0-3.1,0.4-5.7,0.4-8.7l0.4-0.4c0-3.5,0.4-6.6,0.4-9.2c0-3.1,0.4-5.7,0.4-8.3c0.4-5.2,0.4-10.5,0-16.6
	c0.9-1.3,1.3-7.4,2.6-5.2c-0.9-1.7-2.2-3.5-2.6-7.4c1.7-8.3,1.7,8.7,4.4,2.6c-2.2-0.4-3.9-10.1-6.1-15.3c-1.3,1.3-0.9,4.4,0,7.9
	c0.9,3.5,2.2,7.9,3.1,10.5c-1.3,0-3.1-0.9-4.4-3.1c-1.7-14-4.4-27.1-7.9-40.2c0-1.3-0.4-3.1-0.9-4.8s-0.9-3.9-1.3-6.1
	c-0.9-2.2-1.3-4.4-2.2-6.6c-1.3-4.8-3.1-9.6-4.8-14c-1.7-4.8-3.5-9.2-4.4-12.7c-1.3-1.7-3.1-3.9-3.9-4.4
	c-7.9-16.2-16.6-31-27.1-45.5c0.4,0,0.9-0.4,0.9-0.9c0,0-1.3-1.3-2.6-2.6c-0.9-0.9-1.7-1.7-2.2-2.2l-0.4-0.4c0.4,0,2.6,1.3,1.7-0.9
	c-0.9,0.4-1.7,0-3.1-0.9c-2.2-3.1-4.8-5.7-7-8.7c0,0,0-0.4-0.4-0.4h-0.4c-2.2-2.2-3.9-4.8-6.1-7c0-0.4-0.4-0.4-0.9-0.9
	c-0.4-0.4-0.9-0.9-1.3-1.3c-52.9-56-126.8-90.9-208.5-90.9c-5.7,0-10.9,0-16.2,0.4c-3.5-1.3-6.6-3.1-6.6-5.2
	c-1.7,1.3-4.4,1.3-6.6,1.3c-2.6,0-5.2-0.4-8.3-0.4c-6.1-0.9-12.7-0.4-18.8,3.5c-3.1-0.4,2.2-1.7,0.4-2.6c-3.1,2.6-6.6,3.9-14,4.8
	l0.9-0.9c-10.1,2.6-17.5,4.4-24.9,6.6c-3.9,0.9-7.9,1.7-11.8,3.5c-4.4,1.3-9.2,2.6-14.9,4.8l2.2,0.9c-4.8,1.7-6.1,1.7-8.3,2.2
	c-3.9,5.7,13.1-5.7,9.6,0c-2.2-0.4-4.8,0.4-8.7,1.7c-3.5,1.3-7.4,3.5-11.4,5.2c-7.9,3.9-14.9,8.3-18.4,7c-6.6,4.4,3.5,0.9-3.1,5.2
	h-2.6l-0.9,2.6c-4.4,2.6-7.4,2.6-8.3,1.7c1.3-0.4,2.6-2.2,3.9-3.1c-3.1,1.3-7,3.9-10.1,6.6c-3.1,2.6-5.7,5.2-7,5.7l6.6-3.9
	c-16.6,13.6-36.7,30.6-47.6,48.5l1.7-0.4c-4.4,6.6-6.1,8.7-8.7,11.4c-2.6,2.2-4.8,4.8-9.6,12.2v-0.4c-1.3,3.5-3.1,7.4-5.7,11.4
	c1.3-4.4-6.6,5.7-4.4,0c-7,15.7-3.1,8.3-4.8,19.7l-2.6,1.3c-0.4,4.4,0,4.8-3.1,12.7c1.3-7-4.8,3.9-3.5-4.4c-2.6,3.5-4.8,7-6.1,10.5
	c-1.3,3.1-1.7,6.1-2.6,9.2c-1.3,4.8-2.2,9.2-6.1,12.2c1.7,9.2,7.9-14,7.4-9.2c1.3-1.3,1.7,0.4,1.3,3.5c-0.4,3.1-1.3,7-2.2,9.6
	s-3.1,4.4-5.7,7.4c-2.2,3.1-5.2,7-7,14c0.4-1.3,0-1.7,0.4-3.1c-2.2,5.2-0.9,10.9-3.9,17c2.2,4.4-1.7,8.7,1.7,10.1l1.3-13.1
	c0,3.9,0.4,7.4,0.9,11.8c0.4,4.4,0.4,9.2-1.7,14.9c-0.4-0.9-1.3-4.8-1.3-7.4c-1.3,3.5-0.4,7-1.7,10.5c-1.7-0.9-1.7-4.8-1.3-9.6
	c0.4-2.6,0.4-5.2,0.9-7.9c0.4-2.6,0.4-5.2,0-7c-1.3,1.7-1.3,5.7-1.3,8.7s0,4.8-1.7,2.2c2.2,3.5,1.7,7,0.9,10.9s-1.3,8.7,0,13.6
	l-2.2-0.9c0,1.7,1.3,4.8,0.9,7.9l-2.6-5.2c2.2,8.3-2.6,15.3-0.9,23.2c-0.4-16.2,2.6-3.5,4.4-10.5c3.5,19.2-5.7,11.8-3.5,32.3
	c0-3.5,0.9-9.2,2.2-5.2c-0.4,4.4-0.4,10.1-1.3,12.7c2.2,14.9,2.2-2.6,4.4,3.5c-2.2,5.2,2.2,7,4.4,13.1L17,448
	c1.7,16.6,5.7,3.5,7,18.4l-4.4-5.2c0,0,0.4,1.7,1.3,3.9c0.4,1.7,1.3,3.5,1.3,3.5l-3.1-0.9c4.4,7.9,4.4,10.5,6.1,18.8
	c0.9-2.2,4.4-0.4,6.6,6.6c0.4,5.2-3.1-1.7,0.9,7.9c-2.2-1.7-4.8-3.5-4.4-8.7c-0.9,0-2.2-1.7-3.1-1.7c0,5.7,4.4,13.1,5.7,16.6
	c-0.4-1.3-0.9-3.1-0.9-3.9c0,0,2.2,3.1,4.4,6.6c2.2,3.1,4.8,6.1,4.8,6.1c0,2.6-1.3,1.3-2.6-0.4c1.7,2.6,3.1,4.4,5.7,8.3
	c-2.2-0.4-3.9,0.9-7.4-4.8c0,0,0.4,0.9,1.3,1.7c0.9,1.3,1.7,2.6,2.6,4.4c2.2,3.1,4.4,6.1,4.4,6.1c-0.4,1.3,1.3,7.9,0,6.6
	c1.7,3.9,4.8,7.9,8.3,11.8c3.5,3.9,7.4,8.3,9.6,13.1c0.4,0.4,1.7,0.9,3.1,2.6c1.3,2.2,2.6,4.4,3.9,6.6c1.3,2.2,2.6,3.9,3.9,6.1
	c2.6,4.4,6.1,8.3,11.4,11.8c0,0,0.4,1.7,0.9,3.5c0.4,1.7,0.9,3.5,0.9,3.5c7,6.1-3.1-9.6,8.3,0.9c8.3,7,0.9,4.8,3.1,8.3
	c2.6,1.3,6.1,3.1,10.1,5.2c3.5,2.6,7.4,5.2,10.5,9.6c-3.1-1.7-4.8-3.9-7-5.7l4.8,6.6c-9.2-3.9-13.6-9.2-9.6-2.2
	c2.6-2.2,8.3,3.1,14.4,7.4c3.1,2.2,6.1,4.4,8.7,6.1c2.6,1.3,4.8,1.7,6.1,0.4l3.5,3.9c-1.3-0.9-1.7-0.9-2.6-1.7
	c6.6,8.3,8.7,0.4,18.8,7.9c3.5,2.6,5.7,4.8,2.6,4.4l9.2,3.5c2.2,1.3,1.7,1.7,0,1.3c0.4,0,0.4,0.4,0.9,0.4c1.3,0.4,3.1,1.3,4.8,2.2
	c3.5,1.7,7,3.1,7,3.1l0,0c2.2,0,7.4,0.4,10.1,0.9c3.1,2.6-2.2,0-1.3,0.9c0,0,2.2,0.4,3.9,0.9c2.2,0.4,3.9,0.9,3.9,0.9
	c1.3,1.3,0,1.7-2.2,1.7c-2.2-0.4-5.2-1.3-7.9-2.6c4.4,9.2,7,1.3,21,10.9c0,0-1.7-0.4-3.9-0.9c-1.7-0.4-3.9-0.9-3.9-0.9
	c3.5,5.2,9.6,6.1,17.9,11.4c-1.7-1.7-15.3-11.4-6.1-10.1c2.2,1.3,5.2,2.6,10.5,3.1c-0.4,2.2,3.9,3.1,10.1,4.4l-1.3,3.1
	c6.6,0.9,6.6-0.9,10.5-1.3c7,1.7,7.9,4.8,9.2,7c11.4,2.6-7-5.2,6.6-3.5c4.8,1.3,8.7,2.2,13.1,2.2c4.4,0,8.7,0,14.9-0.4
	c6.6,1.7-1.3,1.7,0.9,3.1l6.1-2.2c1.3,0,0.9,0.9,0.9,1.3c5.2-0.9,0.4-3.1,8.3-3.5c1.3-1.7,4.8-0.4,10.1,0.9c4.8,0.9,10.9,2.2,15.7,0
	c2.6,0.9-0.9,1.7-0.4,3.1c13.1-3.5,11.4-2.6,21.9-7.4c0,0,2.2,0,4.8,0.4c2.2,0,4.8,0.4,4.8,0.4c-7-0.9,1.3-5.2,7.9-8.7
	c-0.4,0-0.9,0-0.9-0.4c0.9,0,1.7-0.4,2.2-0.4c-0.4,0.4-0.9,0.4-1.3,0.9c0.4,0,0.9,0.4,1.3,0.4c0.4-0.4,0.9-0.9,1.3-1.3
	c1.7-0.4,3.9-0.9,5.7-1.3c0,0.9-0.9,2.2-2.6,3.5c-1.7-0.4-3.1-0.4-4.4-0.9c-2.6,2.2-4.8,4.8-3.9,6.6c0.9-0.4,2.2-0.9,3.9-1.3
	c-0.9,0.4-0.9,1.3-0.9,1.3c0.4,0.4,1.7-0.4,3.5-1.7l3.5,2.6l0.4-1.3c0,0,3.9-0.4,7.9-0.9c3.9-0.4,7.9-0.9,7.9-0.9
	c2.6-1.7,4.8-3.5,7.4-4.8c2.2-1.7,4.8-3.5,7.4-5.7c5.2-3.5,10.9-7.9,18.8-11.8c-3.1,3.9,0.9,4.4,1.7,7c-5.7-1.3-12.2,6.6-21.4,8.7
	c4.8-1.3,4.4,0.4,3.1,1.3c0,0,0.9-0.4,2.2-1.3c1.3-0.9,3.1-1.7,5.2-3.1c3.5-2.2,7.4-4.4,7.4-4.4c0.4,2.6,3.9,0.4,8.3-0.4
	c-4.8-3.1,10.1-7.9,15.3-12.7c1.3,1.3,0.4,3.5-7,7c9.6-0.9,7.9-10.1,17-12.2c-1.7,0.9-2.6,1.3-3.1,2.6c1.7-1.7,5.2-3.9,7.9-5.2
	c2.6-1.3,4.8-2.2,4.4-0.9l-1.7,1.3c3.1-1.7,6.6-3.9,10.5-6.6s7.4-5.7,10.9-8.3c6.6-5.7,11.8-11.4,10.9-13.6c0.4,0.4,1.7,4.8,1.7,6.1
	c0,0,0.9-1.7,1.3-3.9c0.9-2.6,1.7-5.7,3.1-8.7c0.4-1.7,1.3-3.5,1.7-4.8c1.7-1.7,3.5-3.5,5.2-5.2c3.5,2.2,7.4,4.4,2.6,10.5
	c2.6-1.7,6.1-3.9,10.1-10.1c-1.7,1.3-7.4,0.4-5.7-2.2c8.3-3.1,5.2-2.6,14.9-7.9c-2.6,2.2-4.4-4.4-0.9-8.3c0,1.3,4.4,3.1,3.5,4.8
	c0,0,0.9-3.5,2.2-6.6c0.9-3.5,1.7-6.6,1.7-6.6c-1.3,3.1,3.1,3.5,6.1,1.7c-0.9,0,0.9-2.2,3.1-4.8c2.2-2.6,4.4-5.7,5.2-7.4l-4.4,3.9
	c9.2-11.4,2.2-16.2,9.6-27.5c0,2.2,3.9,7.4,7.9,1.3c-0.4-2.2-1.3-7.9-2.2-14c2.6-4.8,4.8-9.2,7-14c0,0.9,0,2.2,0,3.1
	c0.4,7,0,14-0.9,19.2c3.5-4.4,2.2-0.4,6.1-7.9c2.6-1.7,0,4.8-0.9,7.4c0,0,2.6-4.4,4.8-8.3c1.3-2.2,2.2-4.4,3.1-5.7
	c0.9-1.7,1.3-2.6,1.3-2.6c-1.7-0.4-0.9-3.9,0-7.4c0.9-3.5,1.3-7.4,0-7.4c0,0-0.4,1.3-0.9,3.1c-0.4,1.7-0.9,4.4-1.7,7
	c-1.3,5.2-2.6,10.1-2.6,10.1c-3.5-0.9-3.1-14.4,2.2-26.7c2.6-2.6,4.4,4.4,5.7,4.4c-0.4-2.2,2.2-12.7,3.5-13.6v6.1
	c3.5-7,0-12.7,5.2-20.5c1.3-3.1,6.6-7.9,4.8-9.2c-2.6,2.6-7.9,2.6-12.2,1.7c0.9-3.5,1.7-6.6,2.2-10.1l1.3,0.9l0.4-1.7h-1.3
	c0.9-3.5,1.3-7,1.7-10.5C590.6,441.9,592.3,451.5,595,448.5z M372.9,675.8c1.7-0.9,4.4-0.9,7-1.3
	C378.6,675.8,375.9,675.8,372.9,675.8z M201.1,670.5c3.5-1.3,4.8,0.4,7.9,2.2C206.8,672.7,202,672.3,201.1,670.5z"/>
</svg>
