<?xml version="1.0" encoding="utf-8"?>
<!-- Generator: Adobe Illustrator 18.0.0, SVG Export Plug-In . SVG Version: 6.00 Build 0)  -->
<!DOCTYPE svg PUBLIC "-//W3C//DTD SVG 1.1//EN" "http://www.w3.org/Graphics/SVG/1.1/DTD/svg11.dtd">
<svg version="1.1" id="Layer_1" xmlns="http://www.w3.org/2000/svg" xmlns:xlink="http://www.w3.org/1999/xlink" x="0px" y="0px"
	 viewBox="0 0 140 140" enable-background="new 0 0 140 140" xml:space="preserve">
<path fill="#010101" d="M115.6,121.9c0.7-1,1.9-1.9,2.9-2.7c1-0.9,1.9-1.7,2.1-2.7c-1.2,0.3-2,2.8-2.9,2c0,0,1-1,2.1-2
	c0.5-0.5,1-1.1,1.4-1.5c0.4-0.4,0.6-0.7,0.6-0.7c-1.7,0.9-4,4.2-5.8,5.5c-1.1,1.1,2.5-2,2.5-1c-2,1.9-3.4,2.8-4.7,3.4
	c-1.2,0.6-2.3,0.8-3.7,1.1c-0.6,0.1-0.6-0.1-0.5-0.4c1.2-0.8,2.3-1.7,3.4-2.7c3.2-1.3,7-4.2,9.6-8.3c0,0,0.3-0.7,0.5-1.4
	c0.3-0.7,0.5-1.4,0.5-1.4c2.2-1.6,3,0.3,5.5-3.9c0,0-0.3,0.2-0.7,0.4c-0.3,0.2-0.7,0.4-0.7,0.4c0.4-1,0.6-1.7,0.9-2.1
	c-0.7,0.8-1.5,1.5-2.3,2.2c-0.5,0.5-1,0.9-1.6,1.3c1.2-1.8,2.4-3.6,3.4-5.4c0.3-0.3,0.5-0.6,0.8-0.9c0.7-0.8,1.4-1.7,1.8-2.6
	c-0.2,0.1-0.9,1.3-1.4,1.5c1.2-2.7,2.7-5.3,4.1-7.8c0.7-1.3,1.3-2.5,1.9-3.8c0.6-1.2,1-2.4,1.3-3.5c-0.2-2-1.3,3.6-2,2.4
	c1-2.2,0.7-5,1.7-5.5c-0.7,0.4-0.5-0.9-0.3-1.9c0.1-0.5,0.1-0.9,0-0.7c0.1-0.8,0.2-1.7,0.3-2.5c0.4-0.5,0.7-1.2,0.9-2.4
	c-0.6,0.5-0.4-0.7-0.4-1.9c0,0.4-0.1,0.7-0.2,1.1c0.2-3.3,0.1-6.6-0.2-9.8c0-3.2-0.3-6.5-0.8-9.6c-0.2,0.4-0.5,0.5-0.8,0.4
	c-0.1-0.6-0.3-1.2-0.4-1.7c0.1-0.3,0.1-0.5,0.2-0.7c0.1-0.4,0.1-0.9,0-1.6c-0.1-0.7-0.4-1.6-1-3c-0.8-1-0.9-0.8-1-0.3
	c-0.9-2.4-1.9-4.7-3-7c-0.3-0.6-0.5-1.2-0.7-1.8c0,0.1-0.1,0.2-0.1,0.3c-0.3-0.5-0.6-1.1-0.9-1.6c-0.5-1.1-1.1-2.2-1.1-2.9l-0.7,0.1
	c-1-1.5-2-3-3.1-4.4c0.1,0-0.1-0.3-0.5-0.7c0.1,0.1,0.2,0.2,0.2,0.4c-0.3-0.3-0.6-0.7-0.8-1c0.2,0.2,0.4,0.4,0.6,0.6
	c-1.3-2.4-4.2-5.5-6.2-7.3c0,0.3,0.1,0.6,0.3,1c-0.2-0.2-0.4-0.4-0.6-0.6c-1.1-1-2.3-2-3.4-3c-1.6-1.8-0.5-1.3,0.7-0.8
	c1.2,0.5,2.5,1.1,0.8-1c0,0,0.4,0.3,0.8,0.6c0.4,0.3,0.7,0.7,0.7,0.7c-0.2-0.2-0.1-0.3,0-0.3l2,1.7c-0.5-0.6-1.5-1.6-2.1-2.4
	c-0.6-0.7-0.9-1.2,0.1-1c0,0,0.2,0.1,0.5,0.4c0.3,0.2,0.7,0.5,1,0.8c0.8,0.6,1.5,1.2,1.5,1.2c-0.4-1.1,0.9-0.4,1.1-0.9
	c0,0-0.5-0.5-1.2-1.4c-0.4-0.4-0.8-0.9-1.3-1.4c-0.5-0.5-1-1-1.5-1.5c-1-1.1-2.2-2-3-2.8c-0.8-0.8-1.4-1.2-1.4-1.2
	c0.2,0.5,1.4,1.7,0.7,1.7c-1.4-0.8-1.8-1.2-2.3-1.7c-0.4-0.5-0.9-0.9-2.3-1.4l0.9,1.1c-0.1-0.3-0.4-0.5,0.2-0.3
	c1,0.3,1.2,0.9,1.1,1.1c-1.2-0.1-3.5-1.9-4-2.7c-3.4-1.7-1.2,0.6-2,0.4c-1.2-1.9-5.7-2.7-7.6-3.9l1.1,1.2c-1.5-0.2-2.7-0.6-3.8-1
	c-1.1-0.5-2-1-2.8-1.3l0.5,0.7c-3.8-1.2-6,0.3-8.6-2.2l0.3,0.4c-1.6-0.1-4,0-5.5-0.7c-0.1,0.2-0.3,0.5-1,0.5c-0.4-0.4-1-0.5-1.9-0.5
	c-0.8,0-1.8,0.2-3,0.3c1.6,0.2,1,1.2,2.6,1.5c-1.8,0.4-2.6,0.2-3.3-0.2c-0.7-0.4-1.4-0.9-2.9-0.8c-1.8,0.6,1.6,0.4,2.1,0.8
	c-1.2-0.1-2.3,0.1-3.4,0.3c-1.1,0.3-2.2,0.6-3.3,0.9c-1,0.3-2,0.7-2.9,0.8C58.8,5.4,58,5.3,57.2,5L59,4c-1.9-0.1-2.9,0.1-2.6,0.3
	c0.6-0.2,0.8,0,1,0.1c-2.6,1-4.7,1.3-7,1.5c-2.2,0.2-4.5,0.5-7,1.8c0.5,0.2,1.3,0,1.5,0.3c-1.1,0.7-1.9,0.5-2.8,0.5
	c-0.9,0-2.1,0.1-3.8,1.4l0.9,0c-1.1,0.9-2.3,0.8-2.2,0.6c0.2,0.4-0.2,0.9-0.9,1.4c-0.7,0.5-1.7,1.2-2.8,1.9
	c-2.1,1.4-4.4,3.4-4.8,5.1c-1.1,0.3-2.8,1.3-4.4,2.4c-1.5,1.2-2.9,2.5-3.3,3.4c-0.9,2.6,2.3-0.9,2.4,0.4c-1.3,1.5-2.7,1.6-4.3,4.1
	c-0.8-0.5,2.3-5.8-1.7-1.7l-0.1,0.9c0.3-0.5,0.7-1.3,1.3-1.8c1.5-0.9-0.1,1.2-0.2,1.6c0,0-0.3,0.3-0.6,0.7c-0.4,0.4-0.8,1-1.3,1.6
	c-1,1.2-1.8,2.4-1.8,2.4c-0.5-0.1-0.3-0.9,0.2-1.7c0.5-0.8,1-1.6,1.1-1.8c-0.7,1-1.3,2.1-1.9,3.3c-0.6,1.2-1.1,2.4-1.6,3.6
	c-1,2.4-2,4.8-3.2,6.7l0.5-0.2c-3,5,0.4,3.7-2.5,7.4c-0.4,2.3,1.2-0.5,0.3,2.9c-0.2,1-0.5,0.3-0.5,0.1c-1.3,4.2,0.4,2-1.2,5.8l1-0.6
	c0,0.3-0.1,0.5-0.1,0.8c-0.7,2-1.5,4-2.1,6.1c-0.3,1.2-0.6,2.3-0.7,3.5c-0.1,1.1-0.1,2.3,0,3.3c0.8-0.3,0.7-2.9,1.4-3.9
	c-0.8,2.8-0.8,6.2-0.3,9.5c0.5,3.3,1.2,6.5,1.5,9.1c-1.1-1.4-0.9,2.9-2.3-0.3c0.8-1.1-0.2-2.5-0.5-4.4c-0.4,0.8-0.4,2-0.2,3.3
	c0.3,1.3,0.8,2.7,1.4,4.1C5.1,91,5.7,92.3,6,93.3c0.4,1,0.5,1.8,0.1,2.2l1.1,0.4c0.2,0.8,0.4,3-0.3,1.8c0,0,0.2,0.3,0.4,0.8
	c0.3,0.5,0.7,1.1,1,1.8c0.4,0.7,0.8,1.3,1.1,1.8c0.3,0.5,0.5,0.8,0.5,0.8c-0.5-2.1-1-6.7-2.3-7.6c0.2-1.8,1.4,2,1.8,0.3
	c0.1,2,0.5,2.5,1,3c0.5,0.4,1.1,0.8,1.9,2.6c-0.9-0.5-0.8,0.5-0.5,1.8c0.3,1.2,0.8,2.6,0.5,2.6c0.4,0.5,0.9,1.5,1.4,2.4
	c0.5,1,0.8,2,1,2.5c0.7,1,2,2.5,3.5,4c1.5,1.5,3.2,3.1,4.4,4.6c-0.8-1.3-2-3.3-1.3-3.6c0.9,1.7,2.4,3,3.2,2.7
	c-1.7-2.8-2.4-2.9-3.1-2.8c-0.7,0-1.5,0.3-3-2.4c-0.1-0.9-0.3-1.6-0.7-2.6c-0.4-0.9-1-1.9-1.7-3.2c0.6,0.4,0.8,0.4,1.1,0.4
	c0.5,0.8,1.1,1.5,1.7,2.3c0.1,0.2,0.2,0.4,0.3,0.5c0.6,1,1.4,1.9,2.2,2.8c0.9,0.9,1.8,1.8,2.7,2.7c0.9,0.9,1.7,1.8,2.4,2.8
	c0.5,0.9,0.3,1.3,0.4,2c0,0.6,0.4,1.4,2.1,3c0,0-0.9-0.5-1.8-1c-0.5-0.2-0.9-0.5-1.2-0.7c-0.3-0.2-0.5-0.3-0.5-0.3
	c1.8,1.3,2,1.5,1.9,1.8c0,0.3-0.2,0.6,1.2,1.9l-0.7-1.5c1.8,1.3,2.5,1.8,3.2,3l-0.9-2c1.1,0.6,2.9,1.8,2.6,2.3
	c0.4,0,0.6-0.2,0.7-0.3c0.1,0.3,0.5,0.7,1.7,1.4c-0.6-0.6-1.2-0.8-1-1.1c1.1,0.8,1.8,1.1,2.2,1.3c0.4,0.1,0.6,0.1,0.7-0.1
	c0.2-0.2,0.2-0.6,1.6,0.3c-0.3-0.5,0.6-0.3,1.7,0.1c-0.4,0.7,0.8,1.9,2.3,3c1.5,1.1,3.4,2.1,4,2.9l0,0c0,0,0.2,0.2,0.6,0.3
	c0.4,0.2,0.9,0.5,1.4,0.7c0.5,0.3,1,0.5,1.4,0.7c0.4,0.2,0.7,0.3,0.7,0.3c-0.9-0.4,0.2-0.5,1.6-0.3l-0.2-0.1
	c1.5,0.1-1.2-2.1,2.8-0.6c0,0,0.5,0.2,1,0.5c0.5,0.3,1,0.5,1,0.5c-0.4-0.1,0-0.3,0.3-0.4l2.2,0.9c0.9-0.2,1.8-0.3,2.6-0.1
	c0.8,0.1,1.7,0.3,2.5,0.6c1.7,0.5,3.5,1,5.6,0.6c-1.2,0.1-3-0.1-2.2-0.6c0.8-0.2,2,0.1,2.6,0.3l-0.2-0.2c0,0,0.5,0.1,1.2,0.2
	c0.7,0.1,1.7,0.2,2.7,0.3c1,0.1,2,0.2,2.8,0.2c0.8,0,1.3,0,1.3,0c-0.4-0.3-1.6-0.2-2.6-0.3c-1-0.1-1.6-0.2-0.6-0.6
	c0.6-0.4,1.4-0.5,2.3-0.4c0.9,0,1.8,0.2,2.5,0.1c-0.1,0.5-2.7,1.2,0,1.1c0.3-0.3,2.7-1.1,1.5-1.2c1.4,0,3-0.2,4.7-0.3
	c1.6-0.2,3.3-0.3,4.6-0.3c0.7-0.4-0.5-0.2-0.9-0.2l-0.2,0.2c-1.7,0.2-0.5-1-3.6,0.2c-0.3-0.7,0.8-1,2.3-1.4c0.8-0.2,1.6-0.4,2.4-0.6
	c0.8-0.2,1.6-0.4,2.3-0.7c0,0-1.1,0.2-2.3,0.2c-1.1,0.1-2.3,0.2-2.3,0.2c3.3-1.9,7.3-3.4,11.3-5c4-1.6,8-3.5,10.9-5.7
	c-1.5,1.7-3.2,2.3-2.4,3.1c2.1-1,2.9-1.7,3.8-2.2c0.9-0.6,1.6-1.2,3.5-2.7L115.6,121.9z M24.3,22.3c0.7-1,1.8-1.8,2.4-1.9
	c-1.6,1.5-3.2,3.2-3.4,3.9C23.1,24.2,23.6,23.3,24.3,22.3z M4.3,69.4L4,71.8l-0.1-0.2l0.3-2.4L4.3,69.4z M86.3,133.7
	c0.5,0,1.1-0.1,1.6-0.2C87,133.8,86.5,133.8,86.3,133.7c-0.1,0-0.1,0-0.2,0C86.2,133.7,86.2,133.7,86.3,133.7
	C86.3,133.7,86.3,133.7,86.3,133.7z M110.2,16.5c0.4,0.7,1.1,1.9,2,2.8c-1.1-0.9-2.2-1.8-3.4-2.6c-0.6-0.7-1.3-1.3-1.3-1.3
	C108.4,15.6,108.3,14.8,110.2,16.5z M99.1,11c-0.6-0.3-1.2-0.6-1.8-0.8c0-0.2,0.2-0.3,0.1-0.4C98.1,10.1,98.9,10.7,99.1,11z
	 M84.6,3.5c0,0,0.6,0.1,1.1,0.2c0.5,0.1,1.1,0.2,1.1,0.2c2.2,1.4-0.2,1.1-2.5,0.9C84.2,4.9,84,5,83.5,5.1c-0.4,0-0.7-0.2-1-0.4
	c-0.5,0-0.9,0-1.1,0.1l-0.2-0.2c0.5-0.3,0.9-0.1,1.3,0.1c0.5,0,1.1,0,1.8,0.1c0.5-0.5-1.9-1.4-2.5-1.9C83,3.3,83.9,4,85.5,4
	C85.4,3.8,85.6,3.7,84.6,3.5z M51.7,6.2c1-0.2,2.1-0.2,2.9-0.5C55.4,6,54,6,53.5,6.5c0,0-0.2,0-0.6,0.1c-0.3,0.1-0.8,0.2-1.3,0.2
	C51.2,7,50.7,7,50.4,7.1c-0.4,0.1-0.6,0.1-0.6,0.1C49.9,6.6,50.8,6.3,51.7,6.2z M30.1,17.7c0.4,0.5,3.2-1.7,3.6-1.9
	c0.2,0.1,0.3,0.2,0.3,0.3c-0.9,0.6-1.8,1.2-2.6,1.9c-0.5,0.2-1,0.6-1.4,1L30.1,17.7z M7.5,92.4l0.1-1.3l0.9,2L7.5,92.4z M8.6,89.8
	C8.8,90.4,9,91,9.2,91.6c0.4,1.5,1.3,3.3,1.4,4C9.6,94.1,8.4,90.8,8.6,89.8z M81.2,135.8c0,0-0.3,0-0.8,0.1c-0.5,0-1.2,0.1-1.8,0.1
	c-0.7,0-1.3,0.1-1.8,0.1c-0.5,0-0.8,0-0.8,0s0.3,0,0.8,0c0.5,0,1.1-0.1,1.8-0.1c0.7,0,1.3-0.1,1.8-0.1c0.5-0.1,0.8-0.1,0.8-0.1
	l-0.7-0.5l1.1,0.5l-0.3,0L81.2,135.8z M82,135c0,0,0.2,0,0.5,0c0.3,0,0.7,0,1.1-0.1c0.8,0,1.6-0.1,1.6-0.1l-1.7-0.2c0,0,1.2,0,2.4,0
	c1.2,0,2.5-0.1,2.5-0.1C85.9,135.8,82.5,135.6,82,135z"/>
</svg>
