<?xml version="1.0" encoding="utf-8"?>
<!-- Generator: Adobe Illustrator 18.0.0, SVG Export Plug-In . SVG Version: 6.00 Build 0)  -->
<!DOCTYPE svg PUBLIC "-//W3C//DTD SVG 1.1//EN" "http://www.w3.org/Graphics/SVG/1.1/DTD/svg11.dtd">
<svg version="1.1" id="Layer_1" xmlns="http://www.w3.org/2000/svg" xmlns:xlink="http://www.w3.org/1999/xlink" x="0px" y="0px"
	 viewBox="38.6 181.9 557.3 436" enable-background="new 38.6 181.9 557.3 436" xml:space="preserve">
<path fill="#FFFFFF" d="M428,538.2c-3,1.2-5.4,1.8-7.8,2.4c0.6,1.8,1.8,3.6,2.4,6.6c-3-0.6-5.4-0.6-6.6-1.2c-3,3.6-6,7.2-9.6,11.4
	c-0.6,0-3,0-4.8-0.6c-0.6,3-1.2,6-1.8,9c-0.6,0-1.2,0-1.8,0c-1.2-2.4-2.4-4.8-3-7.2c-0.6-10.2-6.6-16.8-13.2-23.4
	c-5.4-5.4-10.8-11.4-15-18c-5.4-9-3-18,0.6-27.1c0.6-1.2,1.2-1.8,1.8-3c6-12.6,4.8-13.8-7.2-21c-14.4-8.4-27.1-19.2-40.3-29.5
	c-2.4-1.8-4.2-4.2-6.6-6.6c-3.6-3-6.6-6.6-10.2,0.6c-2.4,4.2-10.2,3.6-14.4-0.6c-2.4-2.4-4.8-5.4-7.2-7.8c-2.4-1.8-4.8-3-7.2-4.8
	c-0.6,1.2-1.8,1.8-2.4,3c4.8,5.4,9.6,10.2,14.4,15.6c4.2,4.8,9,9.6,12,14.4s6.6,5.4,11.4,4.8c3-0.6,6,0,8.4,0c0,0.6,0,1.2,0,2.4
	c-1.8,1.2-3.6,2.4-5.4,3.6c0.6,0,1.2,0.6,1.8,0.6c-1.2,6-1.8,12-3,19.8c-3.6-4.2-5.4-6.6-7.2-9c-4.8-7.2-6-7.2-10.2,0.6
	c-10.8-9-21.6-17.4-32.5-26.5c-10.2-7.8-16.8-18.6-16.8-32.5c0-14.4,9-25.9,24-28.9c-2.4-6-5.4-12-7.2-18
	c-4.2-13.2-7.2-26.5-10.8-39.7c-4.2-16.2-3.6-34.3-15-47.5c-3.6-4.2-6-8.4-9.6-12c-10.8-10.2-21-21-32.5-30.1
	c-19.2-15.6-41.5-21-64.9-12c-15,5.4-27.1,15.6-35.5,29.5c-13.8,24-23.4,49.9-24,78.2c-0.6,17.4-1.2,35.5,0.6,52.9
	c1.2,15,6,29.5,8.4,43.9c3,16.8,5.4,34.3,7.8,51.7c0.6,2.4-1.8,5.4-2.4,8.4c-0.6,0-1.8,0-2.4,0c-4.2-8.4-8.4-17.4-12.6-25.9
	c-7.2-15-15-29.5-21-45.1c-4.2-11.4-6.6-23.4-9-35.5c-4.8-31.9,0-63.1,7.8-93.8c4.2-16.2,13.2-30.7,18.6-46.3
	c9-24.6,29.5-37.9,49.3-51.7c6-4.2,14.4-5.4,21.6-7.2c4.8-1.2,9.6-2.4,14.4-3c16.2-1.2,29.5,4.8,40.9,15.6
	c21.6,20.4,43.9,40.9,64.9,61.9c7.8,7.8,16.8,10.8,26.5,10.8c18,0,33.1,7.2,48.7,13.8c10.2,4.8,21,9,31.3,13.8c0-4.8,0-9.6,0-14.4
	c0.6-13.8,10.8-20.4,24-16.2c20.4,6.6,33.1,21.6,45.7,38.5c3,3.6,9,5.4,13.2,8.4c1.8,1.2,3,2.4,4.8,3.6c-0.6,0.6-1.2,1.2-1.8,2.4
	c-4.8-3-9-5.4-14.4-8.4c-0.6,2.4-1.8,4.2-2.4,6c5.4,3,12.6,2.4,13.2,10.2c-3-1.8-5.4-3.6-9.6-6c-0.6,3-0.6,4.8-0.6,6.6
	c-4.8-3-4.2-12.6-13.8-10.2c0.6,2.4,1.8,4.8,2.4,7.2c-10.2-13.2-16.8-30.1-32.5-37.9c-1.2,0.6-1.8,1.2-3,1.8
	c1.8,4.2,2.4,8.4,4.8,11.4c4.2,6.6,10.8,12,5.4,21.6c-0.6,1.2,3,6.6,5.4,9c18,18,36.1,36.1,49.9,57.7c2.4,3.6,4.8,4.8,7.8,3
	c14.4-9,28.3-6.6,40.9,2.4c8.4,6,14.4,14.4,22.2,21.6c6,5.4,12.6,9,19.2,13.8c-0.6,1.8-0.6,4.8-1.2,7.8c-1.8,0-4.2,0.6-4.8,0.6
	c-3,3.6-6,6.6-8.4,10.2c-2.4-1.8-3.6-3.6-6-5.4c-1.8,1.8-3,3-4.2,4.8c-0.6,0-1.2,0-1.2-0.6c-6-7.8-12-15.6-19.2-22.8
	c-1.8-1.8-7.2-3-9.6-1.8c-9.6,4.8-16.2,9.6-12,22.2c7.2,21.6,15,43.3,31.9,58.9c6,6,15,9,22.2,13.8c16.8,10.8,33.7,21.6,43.9,40.3
	c1.8,3.6,4.2,7.2,4.8,10.8c2.4,10.2,6,19.2,12,27.1c3.6,4.8,3,15.6-1.2,18.6c-5.4,4.8-10.8,3.6-17.4,1.2c-8.4-3.6-16.8-7.2-25.2-9
	c-12-3-21-10.8-28.9-19.8c-14-14-18.8-32.6-25.4-50c-1.8-5.4-4.8-11.4-9-15c-14.4-10.8-28.9-21-43.9-31.3c-3-2.4-7.2-3-10.8-4.2
	c-11.4-4.2-12-4.2-19.2,6c-3,4.8-7.2,9-11.4,12.6c-10.8,10.2-8.4,19.8,5.4,24.6c5.4,1.8,10.2,3.6,15.6,6
	C424.4,534.6,425.6,536.4,428,538.2z M511.6,515.9c-0.6,1.2-0.6,2.4-1.2,3c-1.2,1.2-3,3-4.2,4.2c0,0-1.8-1.2-1.8-1.8
	c0.6-1.8,1.2-4.8,2.4-5.4c5.4-3,2.4-6,0.6-8.4c-4.8-6-10.8-10.8-15-16.8c-5.4-9-10.8-18-14.4-27.7c-8.4-19.8-15.6-40.3-22.8-60.7
	c-6-16.8-19.2-28.3-30.1-40.9c-11.4-13.2-24-25.9-36.7-37.9c-6.6-6.6-13.8-12.6-22.2-18c-7.2-4.8-15.6-7.2-23.4-10.8
	c-19.2-9-39.7-15.6-61.3-18.6c-10.8-1.8-21.6-4.2-27.7,10.2c-1.8,4.8-4.2,8.4-1.2,13.2c0.6,1.2,0.6,2.4,1.2,3.6
	c1.8,12.6,3,25.9,6,38.5c3,16.8,9,31.9,19.8,45.7c15.6,19.8,34.3,36.1,53.5,52.3c19.8,16.8,43.3,24,67.3,30.7
	c9.6,2.4,19.2,4.8,27.7,8.4c13.8,6,26.5,13.8,39.7,20.4c4.2,1.8,7.8,3,9-3c0.6-1.8,3-3.6,4.8-5.4c0.6,0.6,1.8,1.8,2.4,2.4
	c-3,4.2-6,7.8-9,12c6,4.8,12.6,9.6,19.8,15.6c0.6-5.4-1.8-10.8,6-9c-0.6,1.2-0.6,2.4-1.2,3c-3.6,3-5.4,5.4,0,8.4
	c0.6,0.6,1.2,1.2,1.8,1.8c3,6,6.6,11.4,9.6,17.4c1.2,2.4,1.8,6,2.4,9c0.6,3.6,0.6,7.8,1.8,11.4c1.8,3.6,4.2,7.2,7.2,10.2
	c1.2,1.8,4.2,3.6,6,3c15-1.8,24.6,3,29.5,16.2c2.4,5.4,5.4,8.4,10.2,10.2c4.2,1.8,8.4,3.6,12.6,5.4c1.8,0.6,5.4,1.2,6,0.6
	c1.2-1.8,1.8-5.4,1.2-7.2c-3.6-5.4-7.2-10.8-12-14.4c-13.2-9-19.8-20.4-16.2-36.7c0.6-1.8-1.2-4.8-3-6.6c-1.2-1.8-3.6-3-5.4-4.2
	c-5.4-4.2-9-9-17.4-9.6c-5.4-0.6-10.8-7.2-16.2-11.4C515.8,516.5,514,516.5,511.6,515.9z M90.8,225.6c1.2,0,1.8-0.6,3-0.6
	c1.8,4.8,3.6,9.6,6,15.6c4.8-4.8,10.8-8.4,13.2-13.8c2.4-5.4,1.2-12.6,1.8-18.6c0.6,0,1.8-0.6,2.4-0.6c1.8,4.8,3,9.6,4.8,13.8
	c2.4-0.6,5.4-1.8,8.4-2.4c9.6-2.4,12-6,11.4-16.8c0-1.8,1.2-3.6,2.4-5.4c1.8,2.4,2.4,3.6,2.4,4.8c0.6,14.4,0.6,14.4,15,15h0.6
	c1.8-1.2,4.2-2.4,4.8-3.6c1.2-4.8,1.8-9,2.4-14.4c5.4,4.8,5.4,9,3.6,13.8c-1.8,4.8-0.6,7.8,4.2,9.6s9,1.8,11.4-4.2
	c1.2-3,2.4-6.6,3-9.6c0.6,0.6,1.2,1.2,1.2,1.8c0,2.4,1.2,6,0,7.8c-6.6,8.4,0,12.6,5.4,17.4c3,2.4,6.6,4.8,10.2,6.6
	c1.8-3.6,3.6-7.8,5.4-11.4c0-0.6,0.6-0.6,3-1.2c-0.6,4.2,0,7.8-1.2,10.8c-4.2,8.4,1.2,18,10.8,19.8c7.2-16.2,7.2-18.6-3-27.7
	c-10.8-9.6-22.2-18.6-32.5-28.9c-10.2-9.6-22.2-13.8-35.5-14.4c-19.8-0.6-37.9,6-53.5,18.6c-12,9.6-23.4,18.6-29.5,33.1
	c-4.8,11.4-10.2,22.8-14.4,34.9c-3.6,9.6-5.4,19.8-7.8,28.9c6,1.8,10.2,3,14.4,3.6c1.8,0,4.2-2.4,4.8-4.2c1.8-4.8,2.4-9.6,4.2-14.4
	c3-9,9-18-2.4-25.9c-0.6-0.6,0-3,0-6.6c2.4,2.4,3.6,3,4.2,4.2c3.6,4.8,6.6,6,9-0.6c0.6-1.8,1.8-3,3-4.2c6-7.8,7.2-15.6,3-24.6
	C90.2,230.4,90.8,228,90.8,225.6z M271.1,413.7c11.4,0,15.6,7.8,21.6,12.6c2.4,1.8,5.4,1.2,8.4,1.8c-0.6-3,0-6.6-1.2-8.4
	c-5.4-6.6-12-13.2-18-19.2c-8.4-8.4-16.8-9.6-22.2-3c-4.8,6.6-9,14.4-6.6,22.8c6.6,19.8,24,30.7,38.5,43.9c0.6,0.6,3.6,0,5.4-0.6
	c0.6-0.6,1.2-3,0.6-4.2c-1.2-3.6-3-7.8-5.4-10.8c-6-7.8-13.2-14.4-19.2-22.2C271.7,422.8,271.7,417.9,271.1,413.7z M69.7,402.9
	c-1.2-6-1.8-11.4-3.6-16.8c-0.6-1.2-6-0.6-9-1.2c-1.2,0-1.8-1.8-2.4-2.4c1.2-0.6,1.8-1.8,3-2.4c3-0.6,5.4,0,9.6,0
	c-0.6-11.4-1.2-22.2-1.8-33.7c-4.2,0-7.8-0.6-10.8,0c-4.8,0.6-10.8,1.8-10.8,7.8c0,7.8-0.6,16.2,0.6,24c2.4,12.6,6.6,25.2,10.2,37.9
	c4.8,16.2,1.2,13.8,18.6,12.6c0.6,0,0.6-0.6,1.8-1.2c-1.2-4.2-1.2-9.6-3.6-13.2c-2.4-3-7.2-4.8-12-7.8
	C63.7,405.3,66.1,404.1,69.7,402.9z M410.6,547.2c-3.6-7.8-13.8-10.2-15-18.6c0,0-0.6,0-0.6-0.6c-7.8-7.8-7.2-19.8,1.2-27.1
	c4.8-4.2,9-9.6,12.6-14.4c2.4-3.6,2.4-6-3-6.6s-10.8-3-16.2-4.2c-3-0.6-7.8-0.6-8.4,1.2c-4.2,7.2-7.8,15-10.8,23.4
	c-1.2,3.6-1.2,9,0.6,12.6c3,6,7.8,11.4,12.6,16.2c3.6,4.2,9.6,6.6,11.4,11.4C398.6,547.2,402.8,548.4,410.6,547.2z M527.8,429.4
	c-1.2-3.6-1.8-7.2-3.6-10.2c-3-4.8-6.6-8.4-10.2-12.6c-7.8-10.2-28.9-18-41.5-12.6c-12.6,4.8-13.8,6-8.4,17.4
	c1.8,3.6,2.4,7.2,3.6,10.8c1.2,1.8,2.4,4.8,4.2,4.8c1.8,0.6,4.2-1.2,6-2.4c1.8-1.8,3.6-3.6,5.4-5.4c7.2-7.8,13.2-6.6,19.2-1.8
	c3,2.4,7.2,4.2,9,7.8C514.6,430.6,519.4,430.6,527.8,429.4z M396.8,318.7c1.2-1.2,1.8-1.8,3-3c-1.8-3-3-6-4.8-8.4
	c-4.2-5.4-9-10.2-7.8-17.4c0.6-2.4,1.8-5.4,3.6-6c1.8-0.6,5.4,0,7.2,1.2c6,5.4,10.8,12,16.2,17.4c3,3.6,6.6,6.6,10.2,9.6
	c1.2,1.2,3.6,0.6,5.4,1.2c0-1.8,1.2-4.8,0-6c-2.4-3.6-5.4-7.8-9-10.8c-9-9-17.4-19.2-30.1-22.8c-4.8-1.2-12-1.8-15.6,0.6
	c-7.8,4.8-8.4,21-1.2,28.3c4.2,4.2,9,8.4,13.8,12C390.2,315.7,393.8,316.9,396.8,318.7z M66.1,326.6c0.6-10.8-0.6-13.8-7.2-14.4
	c-9-0.6-11.4,1.8-13.2,12.6c0,0.6,0,1.2,0,2.4c-1.8,12.6-1.8,12,10.8,13.2c8.4,1.2,9.6-2.4,9.6-9C66.1,329.6,66.1,328.4,66.1,326.6z
	 M238.1,275.5c3-4.8,5.4-7.8,6.6-11.4c4.2-7.8,2.4-11.4-6.6-13.2c-3,4.2-6,8.4-9.6,13.2C231.5,267,234.5,270.7,238.1,275.5z
	 M246.5,283.3c5.4-0.6,13.2-13.2,11.4-16.8c-0.6-1.2-2.4-2.4-3.6-3c-1.2,0-3,1.2-3.6,1.8c-3,3.6-5.4,7.2-7.8,10.8
	c-0.6,1.2,0,3,0.6,4.8C244.1,282.1,245.9,282.7,246.5,283.3z M553.1,598.3c-1.2-12-11.4-18.6-22.2-15.6c-0.6,5.4,3.6,7.2,7.2,6.6
	c5.4-0.6,7.8,0,9.6,5.4C548.3,595.9,551.3,597.1,553.1,598.3z M78.2,440.8c-3.6-6-10.2-9-13.2-6c-1.2,1.2-1.2,6,0,7.2
	C69.7,448,73.3,442.6,78.2,440.8z M575.3,581.5c5.4-6,1.8-9.6-0.6-12.6c-0.6-0.6-3.6,1.2-5.4,1.8
	C571.1,574.2,572.9,577.9,575.3,581.5z M571.7,562.2c-1.8-4.8-1.8-9.6-8.4-9.6C562.7,562.8,563.3,563.4,571.7,562.2z M79.4,448
	c-1.2-0.6-2.4-1.2-3.6-1.8c-1.8,2.4-3.6,4.8-4.8,7.2c1.8,0.6,4.8,2.4,4.8,1.8C77,453.4,78.2,450.4,79.4,448z"/>
<path fill="#FFFFFF" d="M436.5,300.7c7.8-3,18.6,1.8,18.6,7.8C449.1,306.1,443.7,303.7,436.5,300.7z"/>
<path fill="#FFFFFF" d="M341.5,377.7c-1.2-4.8,4.2-14.4,8.4-15c1.2,0,3.6,1.8,3.6,3C353.5,368.6,345.1,377.1,341.5,377.7z"/>
<path fill="#FFFFFF" d="M426.2,446.8c1.2-7.2,4.2-12,10.2-15.6C438.9,436.6,433.4,445,426.2,446.8z"/>
<path fill="#FFFFFF" d="M455.1,481.1c2.4-3.6,4.2-6.6,7.2-9.6c0.6-0.6,3-1.2,3.6-0.6s1.8,2.4,1.2,3.6c-1.8,4.2-4.8,7.8-9.6,8.4
	C456.9,482.9,455.7,481.7,455.1,481.1z"/>
<path fill="#FFFFFF" d="M303.6,342.8c-6.6-7.8,4.2-10.2,3-16.2C313.8,330.8,313.8,330.8,303.6,342.8z"/>
<path fill="#FFFFFF" d="M277.7,293.5c1.8,7.8-3,12-7.8,16.2C268.1,301.9,274.1,298.3,277.7,293.5z"/>
<path fill="#FFFFFF" d="M283.8,324.8c-2.4-7.2,3-10.2,5.4-14.4c0-0.6,3,0,3.6,0.6c0.6,1.2,1.2,3.6,0,4.2
	C291,318.7,288,321.2,283.8,324.8z"/>
<path fill="#FFFFFF" d="M333.7,351.8c-2.4,3.6-4.8,7.2-6.6,10.2h-0.6c-1.2-1.2-3-2.4-3-3c1.8-3.6,4.2-7.2,6.6-10.2
	C331.2,349.4,332.5,350.6,333.7,351.8z"/>
<path fill="#FFFFFF" d="M408.2,417.3c1.8,7.8-1.8,12-7.8,16.2C398.6,425.8,402.8,422.2,408.2,417.3z"/>
<path fill="#FFFFFF" d="M435.3,460c3.6-3,7.2-6.6,11.4-10.2C447.3,457,444.3,460.6,435.3,460z"/>
<path fill="#FFFFFF" d="M367.9,398.1c-4.2-4.2-1.8-7.2,1.2-9.6c1.2-1.2,3.6-1.2,5.4-1.2c0,0.6,0.6,1.2,0.6,1.8
	C372.7,392.1,370.3,395.1,367.9,398.1z"/>
</svg>
