<?xml version="1.0" encoding="utf-8"?>
<!-- Generator: Adobe Illustrator 18.0.0, SVG Export Plug-In . SVG Version: 6.00 Build 0)  -->
<!DOCTYPE svg PUBLIC "-//W3C//DTD SVG 1.1//EN" "http://www.w3.org/Graphics/SVG/1.1/DTD/svg11.dtd">
<svg version="1.1" id="Layer_1" xmlns="http://www.w3.org/2000/svg" xmlns:xlink="http://www.w3.org/1999/xlink" x="0px" y="0px"
	 viewBox="0 93.6 612 604.8" enable-background="new 0 93.6 612 604.8" xml:space="preserve">
<g>
	<path fill="#0099cc" d="M612,396.1c0,75-33.7,129.5-87.9,185.5c-54.2,52.4-129.3,106.9-212.2,99.7s-158-16.7-212.2-67.3
		c-54.2-47-87.9-135.4-87.9-217.6c0-75,33.7-129.5,87.9-185.5c54.5-52.8,129.5-107,212.2-99.8c82.9,7.2,158,16.7,212.2,67.3
		C578.6,225.5,612,313.6,612,396.1z"/>
	<g>
		<g>
			<g>
				<g>
					<path fill="#0099cc" d="M608.8,349.9c0,0.9,0.2,2.3,0.2,3.4C608.6,350,608.4,348.4,608.8,349.9z"/>
					<path fill="#0099cc" d="M611.1,396.1c-0.2-12-1.1-31-2.3-42.7c0.5,2.7,0.9,6.3,1.6,10.6c0.5,4.3,0.9,8.8,1.4,13.3c0,1.1,0.2,2.3,0.2,3.4
						s0,2,0,3.2c0,2,0,4.1,0,5.6C612,392.8,611.8,395.3,611.1,396.1z"/>
					<path fill="#0099cc" d="M612.5,347.1c0,0,0.2,0.9,0.2,2.3c0,1.4,0.2,3.4,0.5,5.2c0.2,3.8,0.5,7.5,0.5,7.5C611.8,353.4,613.1,355,612.5,347.1z"
						/>
					<path fill="#0099cc" d="M610.9,352.8L610,352c0,0,0-0.5,0-1.4c0-0.7,0-1.8,0-2.7c-0.2-2-0.2-4.1-0.2-4.1s0.5,2.3,0.7,4.3
						C610.6,350.8,610.9,352.8,610.9,352.8z"/>
					<path fill="#0099cc" d="M47.5,289c1.1-1.1,2-1.6,2-0.9c0,0-0.5,0.2-1.1,0.5C47.9,288.9,47.5,289,47.5,289z"/>
					<path fill="#0099cc" d="M29.2,317.9c-1.4,2.7-2,4.7-2.7,6.6C27.1,322.4,27.8,320.6,29.2,317.9z"/>
					<path fill="#0099cc" d="M63.7,263.4c0,0-0.9,1.1-1.8,2.5c-0.9,1.1-1.6,2.5-1.6,2.5C61.2,266.4,62.6,264.9,63.7,263.4z"/>
					<path fill="#0099cc" d="M388.5,123.3c5.4,1.6,10.6,3.2,14.5,4.3C392.1,126.3,391.4,124.7,388.5,123.3z"/>
					<path fill="#0099cc" d="M11.5,475.4c0,0,0.2,0.2,0.5,0.7c0.2,0.2,0.5,0.7,0.5,0.7C12.7,478.4,12.4,479.4,11.5,475.4z"/>
					<path fill="#0099cc" d="M15.1,321.5c0.5,0,0.7,0.5,0.7,1.1c-0.2,0.7-0.5,1.1-0.7,1.8V321.5z"/>
					<path fill="#0099cc" d="M77.3,243.4c0,0,0-0.2,0.2-0.2l3.6-3.4C79.3,241.9,78.2,242.9,77.3,243.4z"/>
					<path fill="#0099cc" d="M25.8,523.5c0.5,2.3,0.9,4.3,0.9,6.3C25.1,525,24.9,522.8,25.8,523.5z"/>
					<path fill="#0099cc" d="M26.2,325.4L26.2,325.4c0-0.2,0.2-0.7,0.2-0.9C26.4,324.8,26.4,324.9,26.2,325.4z"/>
					<path fill="#0099cc" d="M37.7,275.4c-1.6,2.3-2.9,4.3-4.5,6.8C34.8,279,36.6,276.6,37.7,275.4z"/>
					<path fill="#0099cc" d="M388.5,123.3c-1.6-0.5-3.2-0.9-4.7-1.4C386,122.3,387.4,122.7,388.5,123.3z"/>
					<path fill="#0099cc" d="M599.1,310.9c-1.4-4.7-1.1-5.9-0.7-7C598.7,306.6,598.9,309.1,599.1,310.9z"/>
					<path fill="#0099cc" d="M607,407.6v-1.8C607.3,406.5,607,407.3,607,407.6z"/>
					<path fill="#0099cc" d="M529.3,566.7c-0.7,0.5-1.4,1.1-2,1.4C528.2,566.7,529.1,566.5,529.3,566.7z"/>
					<path fill="#0099cc" d="M400.2,678.8c1.4-0.7,2.9-1.4,4.3-1.8l4.3-1.8c2.9-1.1,5.9-2.3,8.8-3.4c5.9-2.3,11.3-4.5,16.3-6.8l-3.8,0.9
						c0,0,0.7-0.2,1.6-0.7s2.3-0.9,3.4-1.6c2.5-1.1,5-2.5,5-2.5l-0.7-1.1c8.1-4.1,16.5-9.7,23.7-14.5c3.6-2.5,6.8-4.7,9.7-6.3
						c2.7-1.8,5-3.2,6.8-3.6l-2.9-0.5c0,0,4.1-2.5,8.1-5c2-1.1,4.1-2.7,5.4-3.6c1.6-0.9,2.5-1.6,2.5-1.6s-2.3,1.4-4.7,2.9
						c-1.1,0.7-2.3,1.4-3.2,1.8c-0.9,0.5-1.6,0.9-1.6,0.9c4.3-3.2,8.8-7,13.8-10.8c4.7-3.8,9.5-7.7,14-11.3c4.3-3.6,8.1-7,11.3-9.5
						c2.9-2.7,5.2-4.5,6.1-5.4l-2,0.7c2.3-2.7,4.7-4.1,7.5-6.8l-2.7,1.1c5.6-5.9,10.2-10.6,13.8-15.1c1.8-2.3,3.6-4.3,5.4-6.6
						c1.6-2,3.4-4.3,5-6.3c6.6-8.4,13.3-17.4,24-31.9c5.2-8.4-3.4,4.3-3.8,4.1c1.1-2.5,3.6-6.1,6.1-9.5c2.5-3.4,4.5-6.6,5.6-7.7
						c-1.6,0.7-4.1,4.5-5.6,6.6c-1.8,2-2.3,2.7,0.2-2.5c5-6.6-4.3,3.8,3.4-8.1c0,0,1.1-0.9,2.5-1.8c1.1-0.9,2.3-1.8,2.3-1.8
						c1.8-3.6,1.6-4.3,1.6-5.2c0-0.5,0.2-1.1,0.7-2.3c0.2-0.7,0.7-1.4,1.1-2.3c0.4-0.9,0.9-2,1.6-3.6c7-12.7-5.2,17.2,5-3.8
						c1.4-2.7,2-5.6,2.9-8.8c0.7-3.2,1.6-6.6,2.3-10.4c1.4-7.5,3.2-16,6.1-26.9c1.4-9.5,0-7.2-0.9-5.9c-0.5,0.7-0.9,1.1-0.7,0
						c0-0.7,0.2-1.8,0.5-3.4c0.2-1.8,0.7-4.1,1.1-7.5c0,0-0.9,4.1-2,8.1c-1.1,4.1-2.5,8.1-2.5,8.1c0.2-2.3-0.2-2.7-0.2-4.1
						s0.5-3.4,1.4-9c0.7-1.8,1.6-4.3,2.5-7.2s1.4-6.1,1.6-9.3c-2,12.2-2,6.8-2.3,1.1c-0.2-5.6-0.5-11.3-2.7-0.2c0,0,0.2-2,0.5-4.1
						c0.2-2,0.2-4.3,0.2-4.3c-0.2,1.1-0.5,1.4-0.5,0.7l0.2-11.1c-0.5,3.4-0.7,9.3-1.1,13.1c-0.7,3.8-1.4,6.1-1.8,2.3
						c0,0,0-0.9,0.2-2.5c0-1.6,0-3.4,0-5.4c0-4.1,0-7.9,0-7.9c-1.4,4.3-1.8-1.6-2.7-0.7c0,0-0.2,2.9-0.7,7.2
						c-0.2,2.3-0.2,4.7-0.7,7.5c-0.5,2.7-0.7,5.4-1.1,8.4c-0.2,2.9-0.9,5.6-1.6,8.4c-0.5,2.7-0.9,5-1.6,7.2
						c-1.1,4.1-1.8,6.8-1.8,6.8c1.1-1.6,2.9-7.9,3.2-5.4c-0.9,6.1-1.8,8.4-2.5,10.6c-0.9,2.3-1.8,4.3-2.7,10.2l2.3-4.5
						c-0.7,0.7-1.1,2.3-0.7-0.2c0.5-4.1,1.6-5.6,2.3-5.4c0,2-0.9,5.9-2,9.5s-2.9,7-3.8,8.6c-0.7,1.8-0.9,3.2-1.4,4.3
						c-0.2,1.1-0.5,1.8-0.7,2.3c-0.2,1.1,0,1.1,0.5,0.9c0.9-0.5,2.3-2.3,1.8-0.7c-2.5,3.2-4.7,9-7.5,14.9c-2.5,6.1-5.6,12-8.4,15.8
						l4.1-4.7c-3.8,11.1-11.1,19.2-15.1,24.4l2.5-1.6c-9.3,13.3-11.5,22.1-22.6,29.2l1.8-0.9c-2,2.7-4.5,6.1-7.2,9.3
						c-2.7,3.2-5.6,6.3-8.1,8.4c0.2,0.5,0,1.6-1.8,3.8c-1.8,0.7-3.6,2.7-5.9,5.2c-2.3,2.7-5.2,5.6-8.6,9.3c5-4.3,5-1.4,10.4-5.9
						c-9.7,12.2-11.8,8.1-21.5,16.7c-5.2,5.9,5.9-3.8,7.9-4.5c-7.7,6.3-14.7,14-21.5,20.6c-3.4,3.2-6.8,6.3-9.9,8.8
						c-3.4,2.5-6.6,4.3-9.7,5.4l6.1-6.1c-7,4.1-10.4,6.6-9.3,6.3c2-1.6,2.9-1.8,3.8-2c-9,7.9-17.4,12.7-25.8,16.7
						c-8.6,4.1-17.2,7.9-27.6,13.3c2-0.2,5.2-1.4,5.4-0.9c-4.7,2.7-7.7,3.2-11.3,3.8c-1.8,0.2-3.8,0.7-6.3,1.6
						c-1.4,0.5-2.7,0.9-4.3,1.6c-1.6,0.7-3.4,1.4-5.4,2.3l3.6-0.5c-5.4,2.5-9.9,2.7-9.3,2.3c0.5,1.8-8.6,4.7-19.2,7.5
						c-2.7,0.7-5.4,1.1-8.1,1.8c-1.4,0.2-2.7,0.7-4.1,0.9s-2.7,0.5-3.8,0.7c-2.5,0.5-5,1.1-7.2,1.6c-2.3,0.7-4.1,1.4-5.6,1.8
						c-4.5-0.9-12.9-0.9-21.2-2c-2-0.2-4.1-0.5-6.1-0.5c-2-0.2-3.8-0.5-5.6-0.7c-3.6-0.5-6.6-0.5-8.6-0.5c-11.3,1.1,9.7,3.2,5.4,4.7
						c-8.8-0.7-13.1-3.2-26.2-3.8c0-1.8,26-1.4,1.8-4.7l-3.6,0.7c2.5,0.2,6.1,0.2,9.5,0.7c7,1.8-4.3,0.9-6.1,1.1
						c0,0-6.6-0.9-13.1-1.8c-6.6-0.9-12.9-2-12.9-2c-1.6-2.3,13.8,0.2,15.6-0.2c-5.2-0.5-10.6-0.9-16-1.4s-11.1-0.9-16.7-1.6
						c-11.1-1.4-22.1-2.9-31.2-5.9l1.6,1.1c-11.8-3.6-15.4-3.8-18.3-4.1c-2.9-0.3-5.4-0.2-14.2-5c-5-1.4-4.3-0.7-4.1,0
						c0,0.5-0.5,0.9-7.7-2c-4.1-1.6-1.4-1.4-0.7-1.4c-2.3-0.9-3.8-1.8-5.4-2.3c-1.4-0.7-2.5-1.1-3.4-1.6c-1.8-0.7-2.7-0.9-3.8-1.1
						c-1.8-0.5-3.6-0.9-10.8-6.1l2.3,3.8c-2.3-1.4-4.5-2.9-6.8-4.5c-2.3-1.4-4.3-3.2-6.3-5c-2-1.6-4.3-3.4-6.1-5
						c-2-1.8-3.8-3.6-5.9-5.4c-3.8-3.4-7.2-7.2-10.8-10.6c-3.6-3.4-6.8-6.8-10.4-9.7c-0.5,1.8,7.9,9.5,10.4,13.3
						c-4.3-4.5-8.8-9.5-13.8-14.5c-2.3-2.7-4.7-5.2-7.2-7.9c-1.4-1.4-2.5-2.7-3.6-4.1l-3.4-4.3c-1.1-1.4-2.3-2.7-3.4-4.1
						c-1.1-1.4-2-2.9-3.2-4.3c-2-2.9-4.1-5.6-6.1-8.6c-3.6-5.9-7-11.3-9.3-16.5c4.5,5.2-2.3-10.8,5.6,1.1c0,2.3,1.1,4.5,2.9,7
						c1.8,2.5,3.6,5.6,5.9,8.8c-0.9-3.2-2.9-7.5-5.6-12.2c-1.6-2.3-2.9-4.7-4.3-7.5c-1.6-2.5-3.2-5.2-4.7-7.7
						c-2.9-5.2-5.6-10.2-7.5-14.2c-1.8-4.1-2.7-7.2-2-8.4l-2.9-2.5c-1.1-3.4-2.9-12-0.2-6.6c0,0-0.7-1.4-1.6-3.6
						c-0.9-2-2.3-5-3.2-7.9c-2-5.9-4.3-11.5-4.3-11.5c0.5,2.3,0.9,5,1.4,7.9s1.1,6.3,1.8,9.5c1.6,6.3,3.4,12,5.4,14.2
						c0.7,3.6-0.7,1.4-2-0.9c-1.4-2.3-2.5-4.7-2.5-1.6c-3.2-16.7-5-9.3-9.5-26c2.5,3.4,1.6-0.9,1.1-6.1c-0.7-5.2-1.8-11.1-1.1-10.8
						c-0.9-2.7-1.6-7.2-2.3-11.5c-0.2-2.3-0.7-4.3-0.7-6.3c-0.2-2-0.2-3.6-0.2-5c-1.8-9.7-6.3-32.1-5.6-48.1c-0.2,2.9-0.7,7-1.1,9.9
						c-0.2,3.2-0.7,5.4-1.6,5c0-2,0-4.1,0-5.9c0-2,0-3.8,0-5.4c-0.2-3.4-0.7-5.9-1.6-6.6c-1.4,14,0,16.3,1.4,18.1
						c0.7,0.9,1.4,1.8,1.8,3.8c0.2,1.1,0.5,2.5,0.7,4.5s0.5,4.3,0.5,7.7c-1.4,6.6-0.9,13.6,1.1,26.4c-2.5-5.6-2.3-2.9-4.1-5.2
						c0.5-4.3,0-8.8-0.5-13.8c-0.2-5-1.1-10.4-1.8-15.8c-0.2-2.7-0.5-5.6-0.7-8.4c-0.2-2.7-0.7-5.6-0.7-8.6c0-2.7,0-5.6,0-8.4
						c0-1.4,0-2.7,0-4.1s0.2-2.7,0.5-4.1c0.7-4.5,1.8-5,2.7-6.8s2-5.2,2.9-14.9c0,0,0,4.3,0,8.6c0,2,0,4.3,0,5.9s0.2,2.7,0.2,2.7
						c-0.2-4.7,0-7.2,0.2-8.8c0.2-1.6,0.5-2,0.7-2.3c0.7-0.7,1.1-0.9,2.3-8.4c0,0-0.2,0.5-0.5,0.9c-0.2,0.5-0.5,1.4-0.7,2
						c-0.5,1.6-0.9,2.9-0.9,2.9c0.2-4.7,0.7-7.9,1.4-10.4c0.7-2.7,1.1-4.7,2-7.2c0,0-0.2,0.5-0.7,1.1c-0.2,0.7-0.7,1.6-1.1,2.5
						c-0.9,1.8-1.6,3.8-1.6,3.8c0.2-2.5,0.5-6.1,1.4-9c0.7-2.9,1.4-5.2,2-5.2c-0.2-1.4-0.5-1.8-0.9-2c0.2-0.5,0.7-1.1,0.9-2.7
						c0.5-1.4,1.1-3.4,1.8-6.3c-1.1,3.4-1.6,5.6-2.3,5.6c3.2-10.8,2.9-12.2,2.5-12.7s-1.4,0.2,0.9-6.6c-1.1,2-0.7-2,0.9-7
						c0.7,0.5,2-0.9,3.6-3.2c1.6-2.3,3.2-5.6,5.4-8.8c3.8-6.8,8.8-14.2,11.3-16.9l0,0c0,0,0.2-0.2,0.5-0.7c0.2-0.5,0.7-1.1,1.1-1.8
						c1.1-1.4,2.5-3.4,3.8-5.2c1.4-2,2.7-3.8,3.8-5.2s1.8-2.3,1.8-2.3c-2.3,2.9-0.9-0.9,2-5.6l-0.5,0.7c1.4-2.7-0.2-1.8-1.1-1.8
						c-0.7-0.2-0.5-1.6,5.2-8.6c0,0,1.6-1.8,3.2-3.6s3.4-3.4,3.4-3.4c-1.1,1.4-0.5-0.5-0.2-1.1c0,0,1.8-1.8,3.4-3.6
						c0.9-0.9,1.8-1.8,2.5-2.5s1.1-1.1,1.1-1.1c1.8-3.4,4.1-6.3,6.3-9.3c2.5-2.7,5.2-5.2,7.9-7.9c2.7-2.5,5.6-5,8.6-7.9
						c1.4-1.4,2.9-2.9,4.3-4.3c1.6-1.4,2.9-2.9,4.5-4.7c-1.8,1.8-4.1,4.1-5.9,5.4c-1.6,1.4-2.5,2-1.8,0.5c2-2.7,6.3-6.1,8.4-7.5
						l-1.1,2.9c0,0,1.6-1.4,4.1-3.4s5.9-4.7,9-7.2c3.4-2.7,6.8-5.2,9.3-7s4.3-3.2,4.3-3.2c-1.4,0.5-5.6,3.8-9,6.1
						c-3.4,2.3-5.4,3.8-2.7,0.7c2.9-4.3,11.3-9.7,16.3-13.3c0,1.1-8.4,8.8,0.9,2c0.9-1.1,8.6-8.6,4.3-6.1c2.5-1.6,5.2-3.4,7.9-5.2
						c2.9-1.8,5.6-3.8,8.8-5.6c5.9-3.6,11.8-7,16.7-9c2.5-2-2,0.5-3.6,1.1l-0.5,0.7c-6.1,3.4-2.3-1.4-12.9,7.2
						c-1.4-0.9,2.7-3.8,8.1-7.5c2.7-1.8,6.1-3.6,9-5.4c3.2-1.8,6.1-3.6,8.8-5.2c0,0-1.1,0.5-2.7,1.1c-1.6,0.7-3.8,1.8-5.9,2.9
						c-4.3,2.3-8.6,4.3-8.6,4.3c12.4-10.6,29.4-20.3,47.2-27.1c17.9-7,36.4-11.1,52.2-13.6c-2.3,0.5-4.5,1.1-6.6,1.6
						c-2,0.5-3.8,0.9-5.2,1.4c-2.9,0.9-4.5,1.6-3.6,2.5c4.7-0.7,8.4-1.4,11.1-1.8c1.4-0.2,2.7-0.5,3.8-0.5c1.1-0.2,2.3-0.2,3.2-0.5
						c4.3-0.5,8.4-1.4,18.1-1.4h-1.6c2.5-0.5,5.2-0.7,8.1-0.7c2.7,0.2,5.6,0.5,8.4,0.7c2.7,0.2,5.4,0.2,7.9,0.5
						c2.5,0.2,4.5,0,6.3-0.2c-2.3-0.9-5.9-0.9-9-0.9s-5.6-0.2-5.6-1.4c0,0,1.6,0,3.8,0.2c2.3,0,5.4,0.5,8.6,0.7
						c6.3,0.7,12.7,1.4,12.7,1.4c-3.8-1.1-10.2-1.8-16.7-2.3c-3.2-0.2-6.6-0.2-9.5-0.2c-3.2,0-5.9-0.2-8.4-0.2
						c-1.8,0.2-1.8,0.2-0.7,0.2c0.5,0,1.1,0,2,0s1.8,0.2,2.7,0.2c3.8,0.5,8.1,1.1,6.6,1.8c-2.9-0.2-5.4-0.2-7.9-0.5
						c-2.3-0.2-4.5,0-6.6,0c-3.8,0-7-0.2-9.9-0.5c-5.6,0-9.9-0.5-15.8-0.9c-1.8,0-2-0.5-1.4-0.7c0.7-0.5,2.3-0.9,4.3-1.4
						c4.1-0.7,9.5-1.4,11.5-1.8c7.7,0.9,16.9,1.1,27.1,2.5c5,0.5,10.4,1.1,16,1.6s11.3,0.9,17.2,1.1c0,0,3.2-0.2,6.6-0.2
						c3.2-0.2,6.6-0.2,6.6-0.2c5.6,1.6,7.2,3.2,9.9,4.5c2.7,1.4,6.6,2.5,16.9,3.8l-5.9-2.3c4.5,0.2,7.7,0.5,9.7,0.7
						c-4.3-1.1-8.8-2.5-13.3-3.6c-4.5-1.1-8.8-2.3-12.9-3.4c12.2-1.6,33.9,5.9,50.8,10.2c-0.9-0.5-6.8-2-8.4-2.9
						c3.2,0.5,6.6,1.1,9.7,1.8c3.2,0.7,6.3,1.4,9.5,2.5c3.2,0.9,6.3,1.8,9.5,2.7c2.9,1.1,6.1,2.3,9,3.2c2.9,1.1,5.9,2.3,8.6,3.4
						c2.7,1.1,5.4,2.3,8.1,3.4c2.7,1.1,5.2,2.5,7.7,3.6c2.5,1.1,4.7,2.3,7,3.4c4.1,1.1,0.5-0.9-3.8-2.9s-9-4.3-6.8-4.5
						c2.5,1.1,5,2.3,7.5,3.2c2.5,0.9,4.7,2,7,2.9c2,0.9,4.1,1.8,5.4,2.7c1.6,0.9,2.5,1.8,2.9,2.5c-1.4-2.3,3.8,0.7,7.5,2.7
						c1.8,0.9,3.2,1.8,3.2,1.6s-1.6-1.6-5.9-4.5c2,1.1,4.3,2.3,6.3,3.4c2,1.4,4.1,2.5,6.3,3.8c4.3,2.5,8.1,5.6,12.2,8.6
						c7.9,6.1,15.1,13.3,22.4,20.3c14,14.7,25.1,31.6,34.4,48.6c-0.2-2,0.2-2.3,1.6-1.1c-1.8-2.7-3.6-5.9-5.6-9.3
						c-0.9-1.6-1.8-3.4-2.9-5c-1.1-1.6-2-3.2-3.2-4.7c-0.9-1.6-2-3.2-2.9-4.5c-0.5-0.7-0.9-1.6-1.4-2.3c-0.5-0.7-0.9-1.4-1.4-2
						c-1.6-2.5-2.9-4.7-3.8-6.6c3.2,2.9,6.3,7.2,8.4,11.1c2.1,3.9,3.6,7,4.7,7.9c-2-4.1-7.2-11.1-6.3-12c3.8,4.3,6.3,7.9,8.4,11.5
						c1.8,3.6,3.4,7,5.2,10.4l-2.9-3.4c1.4,2.7,2.7,5,3.6,7c0.9,2,1.4,3.6,2,5c0.9,2.7,1.4,4.5,1.8,6.3c1.1,3.4,2.3,7,8.1,18.8
						c5.2,8.1,1.1-0.7,2.7-1.6c0.9,2.9,3.8,8.8,6.3,14.9c2.5,6.1,5,12.2,4.7,15.6c0,0-0.2-0.9-0.7-2.3c-0.5-1.4-1.1-3.2-2-5.2
						c-1.4-3.6-2.9-7.5-2.9-7.5c1.6,5.4,3.6,10.4,5,15.1s2.5,9,3.4,12.9c0.2-0.9,0.5-1.6-0.2-3.8c0.2,1.1,0.5,2.3,0.9,3.4
						c0.2,1.1,0.5,2.3,0.7,3.4c0.5,2.3,1.1,4.5,1.6,6.8c1.1,4.3,1.6,8.4,1.4,10.6l2.5,2c-1.8-5-6.1-20.1-5.6-23.1
						c2,0.9,5.4,16.7,6.8,23.5c-0.7-3.8-1.4-7-2-10.2c-0.7-2.9-1.1-5.6-1.6-7.9s-0.9-4.5-1.1-6.6c-0.5-2-0.9-3.8-1.1-5.6
						c-0.7-3.6-1.6-7-2.7-11.1c-1.4-4.1-3.2-8.6-5.9-14.7c0,0,0.2,1.1,0.5,2.3c0.3,1.2,0.5,2.3,0.5,2.3
						c-7.5-14.7-12.2-30.7-19.7-43.4c2.3,3.4,3.4,3.6,2.7,1.8c-8.6-13.6-17.6-26.7-28.2-39.1c-2.7-3.2-5.6-6.1-8.4-9.3
						c-1.4-1.6-2.9-2.9-4.5-4.5c-1.6-1.4-3.2-2.9-4.7-4.3c-3.2-2.9-6.6-5.6-9.9-8.6c-3.2-2.9-7-5.4-10.8-8.1c0,0-1.8-2-3.8-4.1
						c-2-1.8-4.1-3.8-4.1-3.8l-1.4,0.9c-7.7-4.5-8.4-5.4-8.1-5.9c0.2-0.7,1.1-0.9-4.1-3.6c3.8,2,3.2,2,3.6,2.7
						c-4.3-2.9-7.2-4.7-9.3-5.6c-2-0.9-3.2-1.1-4.1-1.4c-1.8-0.2-2.7,0-7.9-2.7c2.3,2,7.2,4.5,10.8,6.6c3.6,2.3,6.1,3.8,3.4,3.6
						c-1.1-0.7-2.3-1.4-3.4-2.3c-1.1-0.7-2.5-1.4-3.6-2c-2.5-1.4-5.2-2.7-7.7-4.1c-2.7-1.4-5.4-2.5-8.1-3.6
						c-2.7-1.1-5.2-2.5-7.9-3.4c-10.2-4.1-18.3-7-19.4-9.3c-18.8-4.5-39.5-8.6-59.9-12c-20.1-3.4-39.8-5.9-55.4-7.5
						c-4.3,0.2,2.7,0.7,0.9,1.1c-3.2-0.7-7.2-1.6-12-1.6c-2.3,0-4.7-0.2-7.2-0.2s-5,0-7.2,0.2c-4.7,0.5-8.8,0.9-12,0.9
						c-3.2,0.2-5,0.5-5.2,0c-6.1,1.4-8.6,3.2-10.2,3.8c-4.1,0.2-8.6,0.9-13.3,1.6c-1.1,0.2-2.5,0.5-3.6,0.7
						c-1.1,0.2-2.5,0.7-3.6,0.9c-2.5,0.7-5,1.4-7.5,1.8l7.5-1.6l-0.7,0.5l-10.6,2.3l0.5-0.2c-12.4,4.1-25.5,9-37.7,15.4
						c-6.3,2.9-12,6.3-17.9,9.3c-5.6,3.2-11.3,6.3-16.5,9c12-6.3-1.6,3.6,4.3,0.9c-2.9,0.9-6.6,2.7-10.6,5.2
						c-4.1,2.3-8.6,5.2-13.3,8.6c-4.7,3.2-9.5,7-14.2,10.8s-9.3,7.9-13.6,11.8c0.5,0.5-0.5,2,1.8,0.7l-10.8,7.9l1.8-0.7
						c-4.3,4.1-8.8,8.4-13.3,12.4c-4.3,4.3-8.8,8.4-12.9,12.4c-8.1,8.1-15.4,15.8-19.9,22.6c3.2-3.8,5-5.4,6.1-6.3s1.6-0.7,2.3-0.9
						c-11.1,13.1-21,26-32.3,42.7c0.7-0.9,1.4-1.4,1.6-1.1c-1.4,2.3-2.9,4.7-4.5,7.2s-3.2,5-4.7,7.2l0.9,1.4c-0.7,1.1-1.4,2.3-2,3.4
						c-0.7,1.1-1.4,2.5-1.8,3.8c-1.4,2.7-2.7,5.4-3.8,8.1c-2.3,5.6-5,11.5-7.5,17.4c0,1.4-0.7,3.6-1.8,6.8c-0.9,3.2-2.3,7-3.6,11.1
						c-1.1,4.3-2.5,8.8-3.6,13.1c-0.9,4.3-1.6,8.6-1.8,12.2c-1.1,5.4,3.4-11.5,1.4,3.6c-1.8,0.9-2.3,5.9-2.7,10.8
						c-0.5,5-0.5,9.7-2.3,10.2c0,0,0,0.9,0.2,2c0.2,1.4,0.2,2.9,0.5,4.7c0.5,3.4,0.9,6.8,0.9,6.8L2,405.9c1.8,5.6,1.8,9.9,1.6,15.1
						c-0.5,5-0.7,10.8,0.9,19.2c0.2-0.9,0.2-2.7,0.5-2c0,1.4,0.2,3.2,0.5,5s0.5,3.6,0.5,5c0.2,2.7,0,3.4-1.1-1.4
						c1.1,9,7.2,39.3,6.1,25.3c-0.5,0.7-1.1-2.3-1.8-5.9s-1.4-8.1-1.6-10.8c1.4,0.5,3.8,13.8,6.1,16.7c0,0.5,0,2.3,0.2,3.6l1.4,1.6
						c2.3,16.9,9.3,32.8,11.8,45c0.7,0.5,2.3,3.2,4.5,8.6l-1.6,0.9c0,0,0.5,1.1,1.1,2.7c0.6,1.6,1.6,3.6,2.7,5.6
						c2,4.1,4.1,8.1,4.1,8.1l-1.1-8.8c1.1,2.3,2.3,4.3,3.2,6.3s1.8,4.1,2.9,6.1c1.8,3.8,3.6,7.7,5.2,11.3c3.6,7.2,6.8,14.2,11.5,21
						c1.4,0.5,2.9,2.3,5.2,5c2.3,2.7,4.7,6.1,7.7,9.9c2.9,3.6,6.3,7.5,9.5,10.8c1.6,1.8,3.4,3.2,5,4.5c1.6,1.4,3.4,2.5,4.7,3.4
						c0,0-2.3-2.3-4.3-4.7c-1.1-1.1-2.3-2.3-2.9-3.2c-0.7-0.9-1.4-1.6-1.4-1.6c1.1,1.4,2.3,2.5,3.4,3.6s2.3,2,3.2,2.9
						c2,1.8,3.8,3.6,5.6,5.2c3.6,2.9,6.6,5.4,9.7,7.9c6.3,4.5,12.4,9,23.1,16.3c-4.7-2.7-8.4-4.7-11.3-6.8c-2.9-2-5.4-3.8-8.4-5.6
						s-5.6-4.1-9.5-7c-3.8-2.9-8.6-6.6-14.9-11.5c2.9,2.7,5.9,5.2,8.8,7.7s5.6,5,8.4,7.2c1.4,1.1,2.7,2.5,4.1,3.4
						c1.4,1.1,2.7,2.3,4.1,3.2c2.7,2,5.4,4.3,8.1,6.3c2.9,1.8,5.6,3.8,8.4,5.6c1.4,0.9,2.9,1.8,4.3,2.7c1.6,0.9,2.9,1.6,4.5,2.5
						c2.9,1.6,6.1,3.4,9.3,4.7c3.2,1.4,6.6,2.9,9.9,4.1c-1.6-1.4-7.9-5.2-1.1-2.7c2.3,2,8.6,4.5,13.8,6.6c5.2,1.8,9.5,3.4,7,3.6
						c8.8,2.5,10.8,0.9,16,2.3c0,0,1.8,0.7,4.3,1.6c2.7,0.9,6.3,2,9.7,3.2c3.6,1.1,7.2,2.3,9.9,2.9c2.7,0.7,4.5,1.4,4.5,1.4
						l-0.9-0.5c25.3,2.9,48.1,6.3,71.2,9.7c5.6,0.9,11.5,1.6,17.2,2.5l4.3,0.7c1.4,0.2,2.9,0.5,4.5,0.5c3.2,0.2,6.3,0.5,9.5,0.7
						l4.7,0.2c1.6,0,3.2,0,4.7,0c3.2-0.2,6.3-0.2,9.7-0.5l2.5-0.2l2.5-0.2c1.6-0.2,3.2-0.5,4.7-0.7c3.2-0.5,6.6-0.9,9.7-1.6
						l-1.1-0.9l13.1-1.1c-5.2,0.7-4.1,0-1.8-0.7c1.1-0.5,2.7-0.9,4.1-1.4s2.3-0.9,2.3-1.4c0,0,2-0.5,5.2-1.1
						c1.6-0.2,3.4-0.7,5.2-1.1c0.9-0.2,2-0.5,2.9-0.7s2-0.7,2.9-0.9c4.1-1.1,8.1-2.3,11.1-3.2c1.6-0.5,2.7-0.9,3.6-1.1
						c0.9-0.2,1.4-0.5,1.4-0.5c0.2-0.5-0.5-1.1-1.8-1.1c-0.7,0-1.8,0.2-2.9,0.5C403.6,677.3,402,677.8,400.2,678.8z M30.7,532.7
						l-2.9-7.2c-0.7-1.4-1.4-2.9-1.8-4.5c0,0,0.5,1.1,0.9,2.3c0.5,1.1,0.9,2.3,0.9,2.3C29.6,529.2,31.4,531.5,30.7,532.7z
						 M416.1,118.8c3.4,1.6-5.2-0.9-7.7-1.1c0,0,2.9,0.7,6.1,1.4c1.6,0.2,2.9,0.7,4.1,1.1c1.1,0.2,1.8,0.5,1.8,0.5
						C422.2,120.4,417.9,119.3,416.1,118.8z M41.8,527.2l2.7,3.4l1.4,5.2c0,0-1.1-2-2.3-4.3C42.9,529.2,41.8,527.2,41.8,527.2z
						 M102.4,612.8c0,0-0.5-0.5-1.1-1.1c-0.7-0.7-1.6-1.6-2.5-2.7c-1.8-2-3.6-3.8-3.6-3.8l0.9,0.5c0,0,1.8,1.8,3.6,3.8
						c1.8,2,3.6,3.8,3.6,3.8L102.4,612.8z M204.1,674c-0.7-0.2-1.4-0.5-2-0.7C202.7,673.5,203.4,673.8,204.1,674
						c4.1,1.6,7,1.6,9.7,2c2.7,0.5,5.2,0.9,8.4,2.7c-4.3,0.2-7.7-0.7-10.4-1.6C208.6,676.2,206.3,675.1,204.1,674z M50.2,565.7
						c-1.8-3.2-2.5-5-3.8-7.2c0.2,1.1,0.9,3.4,1.1,4.7c0.5,1.4,0.2,2-1.1-0.2c-1.1-3.8-7-14.9-5.9-15.6c1.8,5.2,4.7,9,6.8,11.8
						C49.3,562.2,50.8,564.2,50.2,565.7z M18.3,317.8l-0.7,2.7c0,0,0.2-0.7,0.7-1.4c0.5-0.9,0.9-2,1.6-3.2c1.1-2.3,2.3-4.5,2.3-4.5
						s-0.9,1.6-1.8,3.2c-0.5,0.9-0.9,1.6-1.4,2.3C18.5,317.4,18.3,317.8,18.3,317.8z M40,276.4c1.1-0.9,2.3-2.5,3.6-4.3
						c1.3-1.8,2.9-3.8,4.5-6.1c3.2-4.5,6.8-9.3,9.7-13.1c0.2-1.4-1.6-0.5-4.1,2.3c-1.4,1.4-2.9,2.9-4.5,5c-1.6,2-3.2,4.3-4.7,6.8
						c-2.3,2.7-3.4,4.3-3.8,5.4c-0.4,1.1-0.5,1.6-0.2,1.8C40.9,274.5,41.8,274.4,40,276.4z M107.1,627.3l-1.4-2.7
						c0,0,0.5,0.5,1.1,0.9c0.5,0.5,1.1,0.7,1.1,0.7s-0.5-0.5-1.1-1.1c-0.7-0.7-1.6-1.6-2.7-2.7c-1.8-1.8-3.8-3.8-3.8-3.8
						c2.9,2,5.4,4.1,7.7,6.1c2.3,1.8,4.5,3.8,6.3,5.4c2,1.8,3.6,3.6,5.2,5s3.2,2.7,4.7,3.8c-1.4-0.9-3.2-2.3-5-3.8
						c-1.8-1.6-3.8-3.4-5.6-5C109.8,627.3,106.9,625.1,107.1,627.3z M103.1,200.6c7.9-6.1,21.9-16.7,21.5-14.7
						c-0.5-1.1-3.6,0.5-7,2.7c-3.4,2.3-7,5.2-8.6,6.8C107.1,197.3,105.8,198.6,103.1,200.6z M105.3,204c-2.7,2.3-5,3.8-6.8,5.2
						c-1.8,1.4-3.2,2.5-4.5,3.6c-2.7,2-5.4,3.6-9.7,7c9-11.1,13.8-11.8,13.3-9.7c7.7-6.1,5.4-5.6,9-9.5L105.3,204z M90.6,210.1
						l-3.8,4.5c-4.1,5.6-3.2,8.4-11.3,14c0,0,0.7-0.9,1.8-2.3c1.1-1.4,2.5-2.9,3.8-4.7c1.4-1.8,2.9-3.4,3.8-4.7c1.1-1.4,1.8-2,1.8-2
						C87.7,213.4,89,211.7,90.6,210.1z M185.3,136l-5.4,2.3C184.9,135.5,185.5,135.5,185.3,136l4.5-1.8
						C179,141.3,184.4,137.3,185.3,136z M111.6,190.9c0,0-3.2,2.7-6.3,5.6c-3.2,2.9-6.3,5.6-6.3,5.6
						C100.6,202.3,107.8,194.5,111.6,190.9z M182.8,139.6c-6.1,3.6-21.5,14-19.4,12.4c0.2-0.5,1.1-1.4,2.7-2.7
						c1.6-1.1,3.6-2.5,5.6-3.8c2-1.4,4.3-2.7,6.3-3.8C180.1,140.7,181.9,140.1,182.8,139.6z M531.1,182.1c0,0-1.8-1.8-3.8-3.6
						c-1.8-1.8-3.8-3.6-3.8-3.6s1.1,0.5,2.5,1.1c1.1,0.7,2.5,1.1,2.5,1.1L531.1,182.1z M422.4,126l2.7-0.2c0,0,1.6,0.5,2.9,0.7
						c1.6,0.5,2.9,0.9,2.9,0.9s-2-0.5-4.3-0.9C424.4,126.5,422.4,126,422.4,126z M309.8,110.3c0.7-0.2,0.2-0.7-0.7-1.1
						c-1.8-0.2-3.2-0.5-4.1-0.9c1.6,0,3.2,0.5,4.1,0.9c4.5,0.5,11.3,1.1,14.5,0.9c-1.8-0.9-8.8-1.4-11.3-2.3
						c10.6-0.9,33.2,6.8,27.1,0.9c4.3,1.1,19.2,4.1,13.8,4.5C341.5,111.6,318.9,110,309.8,110.3c-0.5,0.2-1.6,0.5-3.6,0.5
						C306.9,110.5,308.3,110.5,309.8,110.3z M166.8,156.1c-3.6,2.3-5.2,3.2-6.1,3.6c-3.2,1.8-5.9,2.9-5.4,1.8
						c7.7-4.5,3.4-0.9,5.4-1.8C162.7,158.6,165,157.5,166.8,156.1z M145.1,172.3l11.8-7.7l-6.3,3.4c0,0,1.1-0.7,2.9-1.8
						c1.8-1.1,4.1-2.5,6.3-3.6c4.5-2.5,9.3-5.2,9.3-5.2C159.6,164.9,147.6,172.3,145.1,172.3z M141.9,176l-2.9,0.9l4.3-1.8
						L141.9,176l0.7-0.2c0,0-4.7,3.6-9.5,7c-4.5,3.6-9.3,7.5-9.3,7.5s4.5-3.6,8.8-7.2C137.4,179.4,141.9,176,141.9,176z M12.4,372.3
						c0.9,2.3,1.6,2.3,2.3,0.7c0.2-0.7,0.7-1.8,0.9-3.2s0.7-2.9,1.1-4.5c0.7-3.4,1.4-7.2,2.3-10.2c0.9-3.2,1.8-5.6,2.5-6.8
						c-0.7-0.7-0.9-3.2-1.8-2.9c-0.5,0.2-0.9,1.1-1.6,3.4c-0.5,1.1-0.7,2.7-1.1,4.5c-0.2,0.9-0.5,2-0.7,3.2
						c-0.2,1.1-0.5,2.5-0.7,3.8c0.2-5,1.1-8.1,1.6-10.4c0.7-2.3,1.1-3.4,1.6-4.5c0.9-2,1.4-2.9,1.1-9c-0.7,2.3-1.4,4.7-2,7
						c-0.7,2.5-1.1,4.7-1.8,6.8c-0.7,2-1.1,3.8-1.6,5.4c-0.5,1.4-0.7,2.5-0.7,2.9c0,0,0.2-2.7,0.9-5.6c0.5-2.7,1.1-5.6,1.1-5.6
						C12,352.8,14,364.5,12.4,372.3z M26.4,492.2c0,0,1.1,3.6,2.3,7c0.5,1.8,1.1,3.6,1.6,5s0.7,2.3,0.7,2.3s-1.1-3.4-2-6.8
						s-2-6.8-2-6.8L26.4,492.2z M307.6,679.6c-0.5-0.7,4.1-0.7,9.3-0.9c5.2-0.2,10.8,0.2,13.1,0.9c-2.3,0.2-4.7,0.2-7.2,0
						c-2.3,0-4.5,0-6.6-0.2C312.1,679.6,308.9,679.3,307.6,679.6z M455.2,636.8c0,0-0.9,0.5-2.3,1.4c-1.4,0.7-3.2,1.8-5,2.7
						s-3.6,2-5,2.7s-2.3,1.1-2.3,1.1c0.9-1.8,3.8-3.8,7.7-5.9c1.8-1.1,3.8-2,5.9-3.2c1.8-1.1,3.8-2.3,5.2-3.6
						C462.2,631.8,456.7,634.8,455.2,636.8z M537,566.7l3.8-3.6l-5.4,2.7L537,566.7z M529.7,570c1.6-3.2-6.6,4.7-8.4,6.8L529.7,570z
						 M584.2,490.9c0,0-0.2,0.5-0.5,0.9c-0.2,0.7-0.7,1.4-0.9,2c-0.7,1.6-1.6,2.9-1.6,2.9s1.1-1.1,2.3-2.3c0.7-0.5,1.1-1.1,1.6-1.6
						s0.7-0.7,0.7-0.7L584.2,490.9z M581.3,501.8c-2,0.7-3.2-0.7-10.6,13.1c0.9,1.4,3.2-2.3,1.6,3.6c3.2-4.1,4.7-8.1,6.1-10.4
						c-2,2.9-3.6,6.8-5,7C575.8,509.6,579.2,504.6,581.3,501.8c0.7-0.2,1.6-0.7,2.7-2.5C583.5,498.9,582.6,499.9,581.3,501.8z
						 M550.1,550c-1.1,1.8-2.3,3.2-2.5,4.1l-0.9,0.5C547.6,552.5,548.7,551,550.1,550c1.4-1.8,2.9-4.1,4.5-6.3
						c0-2.3-7.2,5.9-9.7,7.5c3.6-3.6,7.5-6.3,11.1-12.2c-0.9,0.5-0.5-0.5-3.2,2.9c0,0,1.4-1.8,2.7-3.8c1.4-1.8,2.7-3.8,2.7-3.8
						c3.8-3.8,4.5-3.6,3.4-1.4c-0.5,1.1-1.6,2.7-2.7,4.7c-1.1,1.8-2.7,3.8-4.1,6.1c0,0.5-0.2,1.1-1.1,2.9
						C552.6,548,551.4,548.8,550.1,550z M593.7,487.1l-2.5,4.5c-1.6,2.3-1.4,0.5-2,1.1C591.9,487.2,596,480.2,593.7,487.1z
						 M357.8,680.5c3.4-0.9-4.7-1.4-12.4,0l3.8-2.5c0.2,0.7,4.1,0.5,8.1,0c4.1-0.7,8.4-1.6,9.3-1.8
						C369.5,677.8,363.4,678.3,357.8,680.5z M44.1,541.2c0.2-0.9-0.2-2.7-1.1-5c-0.5-1.1-0.9-2.3-1.6-3.6c-0.5-1.4-1.1-2.7-1.6-4.1
						c-2.3-5.4-5-10.8-5.2-13.1c0.9,2.5,2.5,5.4,3.8,8.8c1.6,3.2,2.9,6.8,4.3,9.5C45.4,539.5,46.8,543.7,44.1,541.2z M29.6,509.4
						c-1.8-5.2-2.5-6.6-1.1-6.6c-0.2-2.7-2.3-6.6-2.5-9.3C30.1,503.2,28,503.2,29.6,509.4c0.5,1.4,1.1,2.9,1.6,4.7
						C30.5,512.2,30.1,510.6,29.6,509.4z M173.1,659.5l6.3,4.1c0,0,0.7,0.2,1.8,0.5c1.1,0.2,2.5,0.7,3.8,1.1
						c2.7,0.7,5.6,1.6,5.6,1.6s-4.3-1.8-8.8-3.4C177.4,661.5,173.1,659.5,173.1,659.5z M292.9,685.3c-0.9-1.1,12.2,0,14.9,0.9
						c-0.7-1.4-9.5-2-16.3-2.9c-0.9-0.2-2.3-0.5-4.5-0.7c1.4,0.2,2.9,0.5,4.5,0.7c2.5,0.7,0.7,1.1,0.7,1.6h-3.4l9.5,1.4L292.9,685.3
						z M494.5,617.8c5.4-5.9,6.3-6.1,10.6-9.3C504.2,610,498.8,614.8,494.5,617.8z M228.3,678c13.1,1.6-5.9-3.2,2.7-2.3l-6.8-1.1
						c11.3,0.5,7.7,2.9,15.6,3.8c0,0-1.4-0.2-2.7-0.2c-1.4-0.2-2.7-0.2-2.7-0.2c-2.3,0.2-0.2,0.9,2.5,1.4c2.7,0.7,5.9,1.1,6.3,1.8
						C236.8,681,222.8,677.3,228.3,678z M504.7,610.5c9-9.5,9-6.1,15.1-11.3C512.8,606.8,512.3,604.2,504.7,610.5z M310.3,691.8
						l-0.9,0.2c0,0,0.7,0,1.6,0.2c1.1,0.2,2.5,0.2,3.8,0.5c2.7,0.2,5.6,0.7,5.6,0.7l0.9-0.2c0,0-2.7-0.2-5.6-0.7
						c-1.4-0.2-2.7-0.2-3.8-0.5C311,692,310.3,691.8,310.3,691.8z"/>
					<path fill="#0099cc" d="M507.8,589.7c2.3-2.3,3.8-3.6,5.2-4.7C511.2,586.5,509.6,588.2,507.8,589.7z"/>
					<path fill="#0099cc" d="M29.2,476.4c-0.5-0.2-0.9-1.1-1.4-2.7C28,473.9,28.2,474.6,29.2,476.4z"/>
					<path fill="#0099cc" d="M24.6,451.9c0-0.2,0-0.7-0.2-0.9c0-0.2,0-0.5,0-0.7L24.6,451.9z"/>
					<path fill="#0099cc" d="M595.5,304.1c0,2.9-0.5,1.6-1.1-0.9c-0.7-2.5-1.4-6.1-2-8.1C593.7,299.4,595.3,300.5,595.5,304.1z"/>
					<path fill="#0099cc" d="M586.7,270.9c0.7,2.5,1.6,6.1,2.9,10.4C588.5,278.6,587.8,275.8,586.7,270.9z"/>
					<path fill="#0099cc" d="M595.5,297.4c-1.1-3.2-2.3-6.1-3.2-8.8c-1.1-2.7-2-5.2-2.7-7.5c0.9,2,1.6,3.8,2.7,6.3
						C593.5,289.9,594.4,293.1,595.5,297.4z"/>
					<path fill="#0099cc" d="M537.9,192.9c0.7,1.1,1.8,2.5,2.9,3.8c0.5,0.7,1.1,1.4,1.8,2c0.5,0.7,1.1,1.4,1.6,2c2,2.5,3.8,4.5,3.8,4.5
						c-14.9-16.7,1.4,4.7,1.8,6.6c-4.1-5.4-6.1-8.4-7.5-11.1C540.8,198.4,539.9,196.6,537.9,192.9z"/>
					<path fill="#0099cc" d="M516.4,172.3c1.8,1.6,3.4,2.9,5,3.8C519.6,174.9,518,173.5,516.4,172.3z"/>
					<path fill="#0099cc" d="M509.2,167.6c-2.9-2.5-5-4.3-6.3-5.9c-1.6-1.6-2.5-2.7-3.8-4.1c4.3,2,7.2,4.7,9.9,7.2c2.7,2.5,5,4.7,7.5,7.2
						c-1.1-0.9-2-1.8-3.2-2.7c-0.9-0.7-1.8-1.4-2.7-1.8C509.2,166.7,508.5,166.5,509.2,167.6z"/>
					<path fill="#0099cc" d="M279.8,118.1c1.8-0.2,5.9-0.2,6.1,0.2c0,0-0.7,0-2,0c-0.7,0-1.4,0-2,0c-0.7,0-1.6,0.2-2.3,0.2
						c-3.2,0.5-6.3,0.9-6.3,0.9C268.3,119.9,277.3,118.6,279.8,118.1z"/>
					<path fill="#0099cc" d="M233.2,125.6c-9.7,3.4-4.1,3.2-9,4.5l-0.2-2.3L233.2,125.6z"/>
					<path fill="#0099cc" d="M235.3,113.3l3.2-0.7c-1.1,0.2-2.3,0.7-3.6,0.9L235.3,113.3z"/>
					<path fill="#0099cc" d="M189.4,148.4l7.2-1.4C188.9,150.7,187.8,149.1,189.4,148.4z"/>
					<path fill="#0099cc" d="M157.3,171.5c0,0,1.4-0.7,2.7-1.6c1.4-0.7,2.7-1.4,2.7-1.4s-0.2,0.2-0.7,0.5c-0.5,0.2-1.1,0.7-1.8,1.1
						c-1.4,0.9-3.4,2.3-5.4,3.6c-2,1.3-3.8,2.7-5.4,3.6c-1.4,0.9-2.5,1.8-2.5,1.8s0.7-0.5,1.6-1.4c0.9-0.7,2.3-1.6,3.6-2.7
						C154.8,173.4,157.3,171.5,157.3,171.5z"/>
					<path fill="#0099cc" d="M119.8,200.6l-0.9,1.6c0,0-2.5,2-5,4.1c-2.5,2-5,4.3-5,4.3s2.7-2.5,5.4-5C117.1,203.1,119.8,200.6,119.8,200.6z"/>
					<path fill="#0099cc" d="M143.3,639.2c0.5,1.4-3.8-0.7-8.8-3.2c-4.7-2.9-10.4-6.6-13.1-8.1c2.3,0.2,5.9,2.5,9.5,5.2
						C134.5,635.8,139,638.3,143.3,639.2z"/>
					<path fill="#0099cc" d="M494.7,602.2c0,0-0.9,0.7-2.5,2c-1.4,1.1-3.4,2.7-5.4,4.3c-4.1,2.9-7.9,6.1-7.9,6.1c5.9-5.2,6.6-5.9,7.5-6.3
						C487.7,607.7,488.6,607.2,494.7,602.2z"/>
				</g>
			</g>
		</g>
	</g>
</g>
<g>
	<polygon fill="#FFFFFF" points="214.2,256.9 214.2,568.5 474.6,412.6 	"/>
	<g>
		<g>
			<g>
				<g>
					<path fill="#FFFFFF" d="M233.9,268.9c-0.5-0.2-0.9-0.7-1.4-1.1C233.9,268.4,234.6,268.9,233.9,268.9z"/>
					<path fill="#FFFFFF" d="M214.7,256c5.2,2.9,13.3,7.9,17.9,11.8C227.8,265.4,214.9,259.4,214.7,256z"/>
					<path fill="#FFFFFF" d="M232.8,272.8l-6.1-4.5C231,270,229.6,270.5,232.8,272.8z"/>
					<polygon fill="#FFFFFF" points="231.6,269.4 232.6,268.9 235.5,271.6 					"/>
					<path fill="#FFFFFF" d="M394.1,469.1c0.9,0,1.6,0,1.4,0.7L394.1,469.1z"/>
					<path fill="#FFFFFF" d="M377.2,474.4c-1.4,0.7-2.3,1.1-3.2,1.6C374.9,475.4,375.6,475.1,377.2,474.4z"/>
					<path fill="#FFFFFF" d="M407.2,460.8l-2.5,1.6C405.4,461.8,406.3,461.2,407.2,460.8z"/>
					<path fill="#FFFFFF" d="M383.1,353.9c-2-2-4.1-3.8-5.6-5.2C382.4,350.9,382.2,352.5,383.1,353.9z"/>
					<path fill="#FFFFFF" d="M302.6,503.8l-0.2,0.9C301.5,504.9,301,504.9,302.6,503.8z"/>
					<path fill="#FFFFFF" d="M367.5,466.2c0.2,0.2,0.2,0.7,0.2,1.1c-0.2,0-0.7,0.2-0.9,0.2L367.5,466.2z"/>
					<path fill="#FFFFFF" d="M417,453.4C417,453.1,417,453.1,417,453.4l2.5-1.1C418.3,452.9,417.6,453.4,417,453.4z"/>
					<path fill="#FFFFFF" d="M281.4,515.2c-1.1,0.2-2.3,0.2-3.4,0.2C280,514.7,281.4,514.7,281.4,515.2z"/>
					<path fill="#FFFFFF" d="M373.6,476.1L373.6,476.1c0,0,0.2-0.2,0.5-0.2C373.8,476.1,373.8,476.1,373.6,476.1z"/>
					<path fill="#FFFFFF" d="M389.2,454.2c-1.1,0.7-2.3,1.1-3.6,1.8C386.9,454.9,388.3,454.2,389.2,454.2z"/>
					<path fill="#FFFFFF" d="M383.1,353.9l1.8,1.8C383.7,355,383.3,354.5,383.1,353.9z"/>
					<path fill="#FFFFFF" d="M252,277.8c2,1.1,2.3,2,2.5,2.7C253.3,279.5,252.4,278.6,252,277.8z"/>
					<path fill="#FFFFFF" d="M209.5,262.9V262C209.5,262.1,209.5,262.5,209.5,262.9z"/>
					<path fill="#FFFFFF" d="M207.5,354.9c-0.2,0.5-0.5,0.9-0.7,1.1C206.8,355.4,207,354.9,207.5,354.9z"/>
					<path fill="#FFFFFF" d="M225.1,439.8c-1.1-6.1,1.1-12.2,1.1-17.4l-0.9,1.8l0.7-5.2h-1.4c0.7-8.8-0.7-19.7,1.4-22.8l-2,1.1
						l1.6-9.3l-1.4,5.2c-0.5-10.4,1.1-26.2,1.1-28.5l-0.7,0.9c-0.5-1.8,0-2.9,0.5-4.7l-1.1,1.4c0.2-15.6-2.3-19.9-1.1-37.5
						c-0.2-4.7-0.5,2.7-0.9,2.7c-0.9-2.7,0-8.8,0.5-9.9c-1.8,1.4-1.1,8.8-2.7,3.2c0.9-4.1-1.6,2.7-1.4-4.3l2.3-2.7
						c-0.5-3.8-1.8-0.7-1.6-7c0.9-7,2.5,8.6,2.9-2.7c-0.2-5.6-5.2-12-4.1-22.8c-1.1-9.5-3.6,5-2.9-8.1l-1.6,8.4
						c-0.7-2.3-1.8-0.9-1.4-6.6c0.9-1.8,2-5.4,2-8.4c-1.8,12.2-2.7-10.8-4.7,0.7v-4.3c0,0.5-0.2,0.7-0.5,0.5l-0.2-5.6
						c-0.5,3.4-0.7,11.8-2.5,7.9l-0.5-8.1c-1.4,2.3-1.8-0.9-2.7-0.2l-2.5,24.2c0.7-0.9,1.4-4.5,2-3.2c0.7,6.6-1.4,5.2-0.2,11.3
						l0.9-2.7c-0.5,0.5-0.5,1.4-0.7,0c-0.7-2,0-2.9,0.7-3.2c1.4,2,0.5,8.1-0.5,9.9c0.2,7.9,2.3,1.6,2.7,3.4
						c-2.3,4.1,0,13.1-0.9,17.9l1.4-3.2c1.6,5.9,0.2,11.3-0.2,14.7l1.1-1.4c-0.2,8.4,3.6,12.4-0.5,18.8l0.7-0.9
						c0.5,3.4,1.1,8.6,0,11.8c0.5,0,1.1,0.7,1.1,2c-1.6,1.8-0.5,5.4,0,10.4c0.5-3.4,2.5-2.3,2.9-5.9c2,7.7-2.3,7-2.3,13.6
						c1.1,3.8,1.1-3.4,1.8-4.5c-1.1,9.9,4.7,20.6,0.7,26.9l-1.4-4.3c-0.9,4.1-0.9,6.1-0.5,5.6c-0.2-1.4,0.2-1.8,0.7-2.3
						c2,12-2.9,19-2.3,31c0.7-0.9,0.9-2.7,1.6-2.7c0.9,5.6-3.8,5.4-2.3,14.5l0.9-1.8c0.5,2.9-0.7,5.2-0.9,4.7
						c3.4,0.2-0.2,19.2,4.3,25.5c-1.8,4.5-3.4,17.2-2.3,21c2,5.6,2.3-5,4.3-2.9c0,4.3-1.8,6.6-1.1,13.1c-1.8,0-3.8-12.9-5-0.7
						l1.1,1.8c-0.2-1.4-0.5-2.9-0.2-4.7c1.1-3.6,1.4,2,1.8,2.9l-0.7,13.1c-2,0.9-1.6-6.8-2-7.7c0.5,10.4,3.4,22.8,2,32.5l0.7-0.9
						c-0.5,3.2-0.5,5-0.2,6.6c0.2,1.4,0.7,2,0.9,3.2c0.5,0.9,0.7,1.6,0.7,2.9s-0.2,2.9-1.1,6.6c0.2,2.9,0.9,2,1.4,1.6
						c0.5-0.5,0.9-0.7,1.1,3.4c0,2.3-0.7,1.8-1.1,1.6c-0.5,9.3,0.9,5.4,0.7,8.8c0.7-0.5,1.8-0.7,3.4-1.4v-2.7
						c3.6-1.4,8.1-2.5,13.8-4.7c1.4-0.5,2.9-1.1,4.3-1.8c1.4-0.7,2.5-1.1,3.8-1.8c2.3-1.1,4.3-2.3,6.1-3.6c-1.4-1.1-6.1,1.8-8.6,2
						c12.2-3.8,25.5-14.9,36.4-19.4c-2.3,2.9,6.3,0,0.7,4.7c-2.7-0.9-5,2-8.4,3.8c7.9,0.7,21.5-15.6,25.3-13.1l0.7-2.3
						c1.6-0.7,6.1-1.8,3.8,0.2l10.2-7.5c-4.5,1.1-14,3.4-15.6,6.6c-4.1,0.2,3.8-3.6,0-3.8c8.6-2,3.8-3.6,11.8-7.7
						c-2.3,4.1,9-1.6,9.5-0.5c2.3-1.8,8.4-4.1,10.8-4.7c4.5-2.5,13.3-9.9,20.8-13.6c-2.9,0.9-7.7,2.5-8.1,1.1
						c3.8-1.4,7.7-3.6,7.2-5.4c-13.8,4.5-1.8,5.9-13.8,10.6c-3.8-0.2-7,1.4-12.9,4.1c2-2.5,0.7-2.3,0.9-4.1c9-0.5,18.3-10.4,28.2-14
						c4.5-1.1,2.9,2.9,11.8-2l-6.8,5.6c7.5-5.9,2.5,0,9.5-3.6l-3.4,0.5c4.1-2.7,5.6-3.4,8.4-3.8l-4.5,0.2c2-1.6,6.1-4.3,6.8-3.2
						c0.2-0.9,0.2-1.4,0-1.6c0.7,0,1.8-0.5,4.3-2c-1.6,0.7-2.7,1.6-2.9,0.9c10.2-5.4,1.1-3.4,7.5-6.8c-1.1,0.2,0.2-1.4,2.3-2.9
						c1.6,2.9,14-3.8,18.1-4.3l0,0l9-3.8c-1.8,0.7-0.5-1.1,1.8-2.9l-0.5,0.2c2.3-2-5-1.4,3.4-5.2l4.7-1.6c-0.9,0.5-0.5-0.5,0-0.9
						l4.7-1.8c5-6.6,13.3-5.9,20.1-11.8c-2,1.6-5.6,3.4-4.7,1.6c1.4-1.1,3.8-2.3,5.2-2.5h-0.7l15.8-7c-1.8-0.2-9.9,4.5-7,1.4
						c1.4-2.7,6.3-3.8,9-5.2c0.2,0.9-4.3,4.5,0.9,2c0.2-0.5,1.4-1.4,2-2.3c0.2-0.2,0.5-0.5,0.7-0.7s0.2-0.5,0.5-0.5
						c0-0.2-0.2-0.2-0.9,0c7.2-3.2,18.1-9,28-13.1c1.6-1.4-2.7,0.7-3.8,1.4l-0.2,0.5c-5.4,2.7-4.3-0.2-11.3,5.2
						c-3.2-0.9,5.4-5,12.7-9c-1.4-0.9-2.9-1.8-4.3-2.5l2.7,2.5l-8.4,3.6c1.1-1.4,2.5-2.5,3.8-3.6c-4.5-2.3-8.4-4.3-12-6.6
						c-1.8-1.1-3.6-2.3-5.4-3.6c-1.8-1.1-3.8-2.5-5.4-3.6c-7-4.7-13.6-9.9-19.7-13.6c4.5,1.6,7.5,4.5,8.1,2.3
						c-8.1-6.1-7.2-5-15.6-10.6l0.7,0.5c-5-1.6-9.9-7.2-14-7.2c1.4,2.3,7,2.7,5.6,5l-10.8-6.6c2.7,3.4,10.8,6.6,14.7,9.5
						c3.2,1.6-5.9-3.8-3.6-4.5c10.2,6.1,11.5,8.8,15.4,14c2,3.4-5.4-1.1-7.2-2.3c-5-6.1-13.8-12.9-24.6-17.9l-6.6-1.6
						c-4.1-4.5-0.2-6.1-9.3-11.3l2,2.7c-2.3-0.7-3.6-1.4-4.5-1.8c3.4,3.2,6.8,6.8,9.7,9.7c-6.6-0.5-14-9.9-21-15.1
						c0.2,0.5,2.7,2.3,3.2,3.4c-11.5-6.1-21.5-16-29.8-21.7c-4.3-1.1,6.8,5,4.1,5.6c-4.1-3.4-10.2-5-10.4-7.2
						c0.7,3.4-10.6-6.1-3.2,1.1c-16.9-8.8-33.9-21.7-49.7-32.8c0.5,1.1,0,1.6-0.9,1.8c5.6,3.4,13.6,8.8,15.6,12.2
						c-4.3-1.1-7.9-6.8-9.3-6.8c1.6,1.6,5.2,3.8,4.7,5c-5.4-1.6-7.2-5-10.4-7.2l2.3,0.5c-9.7-7.7-3.6-7.2-15.1-13.3
						c-4.7-1.1-0.7,1.1-1.6,2.7c-2.3-2.3-11.8-5.4-13.6-8.8l6.8,3.8c-4.5-3.4-9-5.9-12-8.6c0.2,0.5,0.2,1.1,1.1,1.8
						c-3.4-2.7-8.4-5.4-9.7-7.7l-2,1.1c2.7,0.5,9.5,4.5,10.2,6.1c-1.6,1.1-7.7-3.8-10.8-5.4c12.9,8.4,11.3,11.1,23.1,16.7l-1.6-1.6
						c7.7,2.7,13.6,9.3,19.7,12.9c-1.8-0.7-2.7-0.2-2,0.5c14.2,6.6,26.7,15.6,42.5,23.7l3.6,4.5l1.1-1.1c7.9,3.8,0.5,2.9,5.4,5.6
						c-1.8-1.1-1.4-1.1-1.6-1.6c7.7,6.8,5.6,1.6,10.2,5c-1.4-2.7-9-6.1-5.9-6.8c7.7,6.8,21.7,13.8,21,17.9
						c16.7,8.4,35.5,22.1,48.8,30.5c2.3,0.5-0.9-1.1,0-1.1c4.3,5,18.8,9.5,17.9,11.1c2.9,1.1,4.7,0.5,5.6,0.5
						c2.9,2.9,6.8,5.6,11.1,8.6l-2.9-2.3h0.5l4.1,3.4h-0.2c2.3,1.4,4.5,2.9,6.8,4.3l1.6,0.9l0.7,0.5l1.6,0.9c2,1.4,3.8,2.7,4.5,3.6
						c-1.1,0.5-2.3,0.9-3.4,1.1c1.8-0.5,2.9-0.2,3.4,0s0.7,0.7,2,0.5c-3.8,0.5-6.3,1.1-8.4,1.8l-0.7,0.2l-0.2,0.2h-0.2l-0.5,0.2
						c-1.4,0.7-2.5,1.6-3.8,2.3c-2.5,1.6-5.2,3.2-7.5,4.5c0.5,0.5-0.2,1.4,1.4,1.1l-6.3,2.3l1.1,0.2c-9.7,6.6-22.6,10.2-28.5,15.4
						c4.3-2.3,4.7-1.6,5.6-0.9c-7.2,4.3-14,8.4-23.1,12.7c0.5,0,0.9,0,1.1,0c-2,1.6-5.2,2.5-7.7,3.6l0.5,1.6
						c-4.7,2-9.9,5.9-15.6,7.9c-1.1,2.7-13.3,6.1-18.8,10.2c-2.5,1.1,5.9-1.4-0.5,2.3c-2.7-2.3-8.4,5-10.6,2l-5,4.5l-2-0.9
						c-2.9,5.6-7.9,2.9-14.5,8.1c0.7,0,1.4-0.2,1.1,0.2c-2.5,1.1-7.9,4.1-4.3,0.7c-3.8,2.3-16.9,9.3-10.2,7.5
						c-0.9-0.7,4.7-2.9,7.2-4.1c0.5,1.6-5.4,4.3-5.9,6.6c-0.2,0-1.1,0.2-1.8,0.2l-0.2,1.4c-7.9,2.7-14.5,8.1-20.6,9.3
						c0,0.7-1.1,1.6-3.6,2.9l-1.1-1.6l-7.5,4.5l5,0.2c-7.9,5.4-15.4,6.1-22.4,9.7c0,3.8-13.8,6.8-18.1,12.7l5.6-2.5
						c-2.9,1.6-5.2,2.9-7,4.1c-0.9,0.7-1.8,1.1-2.5,1.8c-0.5,0.5-0.5,0.5-0.7,0.5l-0.2,0.2c-0.7,0.7-2,1.8-3.2,1.8
						c1.4-1.6,1.8-1.8,2.5-2.5c0.2-0.2,0.2-0.2,0.5-0.5c0,0,0-0.2,0.2-0.2c0,0,0,0,0.2-0.2s0.5-0.5,0.7-0.5c1.8-1.4,4.1-3.4,7-5.9
						c-2.5,1.8-5.2,3.4-7.7,5l-0.5,0.2l-0.2,0.2l0,0l0,0c0,0,0,0-0.2,0h-0.2c-0.2-0.2,0-0.9-0.2-0.5c0,0-0.2,0.5-0.5,0.7
						c-0.7,0.9-1.4,2.3-2,2.7c0.9-1.4,0.9-1.8,0.9-2.3s0-0.7,1.1-1.1c-0.2,0-0.9,0-1.6,0c-0.2,0-0.5,0-0.7-0.2l-0.2-0.2
						c0,0-0.2-0.5-0.2-0.9l2.3-14.5l-0.5,0.5c-4.5-24.6,2.9-45.9,1.1-70.7l-1.1,0.5l1.6-6.1c-0.9,4.7-1.4-2-2.3-2.5l2.3-15.8
						C226.7,434.9,224.6,435.8,225.1,439.8z M277.5,519l3.4-1.8c0.7-0.5,1.4-0.9,2-1.1l-2,1.1C279.3,518.2,278.4,519.7,277.5,519z
						 M366.8,355.4c-1.1-1.6,2.3,1.1,3.6,1.6l-5.2-3.4C364.3,353.9,366.1,355,366.8,355.4z M284.1,529.2l-1.1,2.3l-2.7,0.5
						L284.1,529.2z M238.4,556.7l5-2l-0.2,0.5l-5,2L238.4,556.7z M221.9,536.2c0,0.2-0.2,0.7-0.2,1.1
						C221.7,536.8,221.9,536.7,221.9,536.2c0.9-4.1-1.4-5.6,0.9-9C224.6,531.2,222.8,533.8,221.9,536.2z M262.6,530.2
						c1.6-0.7,2.5-1.1,3.6-1.8c-1.1-0.2-4.7,0.7-2.7-0.9c2-0.2,7.2-3.2,8.1-2C266.2,527.2,264.9,532,262.6,530.2z M370.4,466.6
						l-1.1,0.9l4.7-1.6L370.4,466.6z M390.5,456.1c3.2,0,9-3.8,13.3-5.9c0.5-1.8-4.7-0.7-9.5,2.3C388,454.9,393.5,455.6,390.5,456.1
						z M230.1,552.7l1.1,0.7l-0.7,0.7c0,0,0.9-0.2,1.8-0.7c0.5-0.2,1.1-0.5,1.6-0.7s0.7-0.2,0.7-0.2c-0.7,0.7-1.4,1.1-1.8,1.6
						c-0.5,0.5-1.1,0.7-1.6,0.9c-1.1,0.5-2,0.9-2.7,0.9c-1.6,0.2-2.7,0-3.4,0c0.7-0.5,2.3-0.5,3.6-0.9
						C229.8,554.7,231,554,230.1,552.7z M432.6,431.9c4.7-1.6,12.9-5,12.7-3.6c-0.9-2-7.5,0.7-9.3,1.8
						C435,430.9,434.1,431.4,432.6,431.9z M434.6,435.8c-6.6,2.7-7.5,2-13.1,3.2c5.4-4.3,8.6-2.9,8.4-1.6c4.7-1.6,3.2-2.3,5.2-3.8
						L434.6,435.8z M425.1,434.1l-2.3,1.8c-2.5,2.5-1.8,5-7.2,5.2l7.2-5.2C423.3,435.2,424,434.9,425.1,434.1z M459,411.4v0.9
						C457.9,411.4,458.3,411.4,459,411.4c0,0,0-0.7,0-0.9C463.1,411.9,460.4,411.4,459,411.4z M437.5,427.6l-7.2,4.1
						C431.2,432.4,435.3,429.1,437.5,427.6z M463.1,411.4c0.7,0.2,1.4,0.7,2.3,1.1c-1.8,1.4-4.3,2.9-4.1,2.5
						c-0.7-0.5,0.9-1.6,2.9-2.5C463.5,412.3,463.1,411.8,463.1,411.4z M313.2,318.1l4.5,2.7h-2.9L313.2,318.1z M366.6,348.8H365
						l-2.5-1.6L366.6,348.8z M415.2,377.6c-0.5,0.2-0.5,0.7-0.2,1.1c0.7,0.5,1.1,1.1,1.4,1.6c-0.7-0.5-1.1-1.1-1.4-1.6
						c-1.8-1.4-4.7-2.9-6.3-3.4c0.5,1.1,3.4,2.7,4.3,3.8c-5.4-1.1-12.7-11.8-12.4-5.6c-1.6-1.6-7.2-6.8-4.5-6.1
						C400.9,371,410.9,376.3,415.2,377.6c0.5,0,0.9,0,1.8,0.5C416.5,378.4,415.8,378,415.2,377.6z M469.2,416.5
						c-2,1.1-3.2,1.6-3.6,1.6c-2,0.9-3.8,1.1-4.1,0.5c2-0.9,2.7-0.9,3.2-0.9c0.5,0.2,0.2,0.5,1.1,0.2
						C466.7,417.6,468,417.1,469.2,416.5z M457.2,423.9l7.5-3.4c0,0-1.1,0.5-2.3,0.7c-1.2,0.2-2,0.7-2,0.7s2.9-1.1,6.1-2.3
						c3.4-1.4,6.8-2.7,6.8-2.7c-2.5,2-6.3,4.1-9.3,5.4C460.6,423.8,458.1,424.4,457.2,423.9z M455.6,426.2l-1.8-0.2h2.5L455.6,426.2
						h0.5l-10.4,5.4L455.6,426.2z M350.7,485.9c-1.6,5.9,10.6-2.7,13.6-2c-0.2-1.6,2.3-5.6-7.5,0.2c7.9-6.3,6.8-0.9,9.9-7
						c-3.8,2.7-9.5,4.7-10.2,5l4.7-2.9C357.3,478.4,354.6,484.6,350.7,485.9z M299.2,517.7l-6.3,3.6l6.1-3.4L299.2,517.7z
						 M212.9,484.8c-0.9,0.5-2.9-9-0.9-11.3C212.2,478.4,212.2,483.6,212.9,484.8z M213.1,406.4l-0.9,8.4c-2.3-1.6,0-7.5-0.2-11.3
						C213.1,402,212.4,404.9,213.1,406.4z M213.1,352.4l0.5-2.7l-2.3,2.7H213.1z M210.2,355.9c-1.1-1.6-1.6,4.1-1.4,5.4L210.2,355.9
						z M208.1,307.1l0.2,3.4l2-3.2L208.1,307.1z M210.6,312.8c-1.4,0.9-3.4,0.5-2.5,8.4c1.6,0.2,1.6-1.8,3.4,1.1
						c0.5-2.7-0.2-4.7-0.5-6.1c-0.2,1.8,0.5,3.8-0.7,4.3C209.7,317.8,210,314.5,210.6,312.8c0.5-0.2,0.9-0.7,1.1-1.8
						C211.3,310.9,210.9,311.6,210.6,312.8z M212.2,341.6c0.2,1.1,0.5,2,0.7,2.5l-0.5,0.5C211.8,343.5,212,342.6,212.2,341.6
						c-0.2-1.1-0.5-2.5-0.5-3.8c-1.4-0.9-2.3,4.5-2.9,6.1c0.5-2.7,1.6-4.7,0.9-8.4c-0.5,0.5-0.7,0-0.7,2.3l-0.2-4.7
						c1.8-5.4,2.3-0.2,2.9,4.7c0.2,0.2,0.7,0.5,0.9,1.6C212.7,340.1,212.4,340.8,212.2,341.6z M215.1,303.5l-0.5,2.5
						c-0.5,1.4-1.1,0.5-1.4,0.9C213.3,303.9,214.2,299.9,215.1,303.5z M215.6,459.9c-0.5-1.8-1.8,2.3-1.6,6.1l-2-2
						c1.4,0,1.1-7.9,1.1-8.8C215.1,453.8,214.2,456.8,215.6,459.9z M276.4,529.7c2.5,1.4,10.2-5,12.4-5.6
						C284.5,527.2,274.8,533.7,276.4,529.7z M290.6,519.8c2.3-1.4,2.9-2,3.4-0.7c1.4-0.2,2.9-1.8,4.3-2.3
						C294.2,520.5,293.6,518.7,290.6,519.8c-0.7,0.5-1.4,0.7-2.3,1.1C289.3,520.5,290,520.2,290.6,519.8z M216.7,551.2
						c0,0,0.5-0.9,0.9-1.8c0.4-0.9,0.9-1.6,0.9-1.6l-0.2-4.3c0,0,0,0.7-0.2,1.4c-0.2,0.7-0.5,1.6-0.5,2.5
						C217.2,549.2,216.7,551.2,216.7,551.2z M219.9,491.8c-1.1,0.5-1.1-6.1-0.5-7.5c-1.4,0.5-1.1,4.7-1.4,8.1c0,0.5-0.2,1.1-0.2,2.3
						c0-0.7,0.2-1.4,0.2-2.3c0.2-1.4,0.9-0.5,1.6-0.5l0.5,1.8l0.5-4.7L219.9,491.8z M221.3,385c-1.1-3.8-0.7-4.3-0.2-7
						C221.5,378.9,221.7,382.4,221.3,385z M221,524.2c-0.7-6.6-2,3.2-2.7-1.1l0.2,3.4c-1.4-5.6,1.6-4.1,1.1-7.9l0.2,2.7
						c1.4,2,0.9-4.1,1.8-4.5C222.4,519.7,221.3,526.7,221,524.2z M222.2,378.8c-1.4-6.6,1.4-5.4,1.6-9.3
						C224.9,374.6,222.6,374,222.2,378.8z M224.9,482.9l0.2,0.5l0.7-5.2l-0.2-0.5L224.9,482.9z"/>
					<path fill="#FFFFFF" d="M208.6,370.9c-0.2-1.6-0.2-2.7,0-3.6C208.8,368.4,208.8,369.4,208.6,370.9z"/>
					<path fill="#FFFFFF" d="M308.9,519.7c0-0.5,0.2-0.9,0.9-1.4C309.8,518.5,309.6,519,308.9,519.7z"/>
					<path fill="#FFFFFF" d="M320.2,513.7c0.2,0,0.2-0.2,0.5-0.2c0,0,0.2,0,0.5,0L320.2,513.7z"/>
					<path fill="#FFFFFF" d="M256.1,278.1c-1.6-2.7,2.5,1.1,4.3,2.3C258.5,279.4,257.2,280,256.1,278.1z"/>
					<path fill="#FFFFFF" d="M269.4,289.4c-0.9-1.1-2.3-2.3-4.1-3.6C266.5,286.5,267.8,287.4,269.4,289.4z"/>
					<path fill="#FFFFFF" d="M257.6,281.5c2.9,1.4,5.6,2.9,7.5,4.3C263.3,284.8,261.5,284.4,257.6,281.5z"/>
					<path fill="#FFFFFF" d="M309.2,312.8c-1.8-2.3-6.6-4.5-6.6-4.5c10.2,5-0.9-2.7-1.4-3.8C307.1,308.4,306.7,309.4,309.2,312.8z"
						/>
					<path fill="#FFFFFF" d="M321.8,320.9c-0.9-0.7-2-1.1-2.7-1.4C320,319.8,320.9,320.4,321.8,320.9z"/>
					<path fill="#FFFFFF" d="M325.9,322c3.2,2.3,3.8,3.8,5,5.6c-4.5-1.8-6.1-4.7-9-6.8C324.3,322.4,326.6,323.6,325.9,322z"/>
					<path fill="#FFFFFF" d="M432.1,379.3c-0.7-0.7-2.5-1.6-2.3-2.3l5.6,3.4C437.5,381.9,433.2,379.6,432.1,379.3z"/>
					<path fill="#FFFFFF" d="M451.3,394.1c4.5,2.7,2.9,0,5,1.6l-1.4,1.8L451.3,394.1z"/>
					<path fill="#FFFFFF" d="M443.2,402.3l-1.1-0.9c0.5,0.2,0.9,0.7,1.6,0.9H443.2z"/>
					<path fill="#FFFFFF" d="M480.9,409.4c0,0,0-0.7-0.5-1.6c-0.2-0.9-0.7-1.8-0.7-1.8C485.2,409.9,481.8,409.9,480.9,409.4z"/>
					<polygon fill="#FFFFFF" points="468.3,425.4 473.2,423.1 459.5,430.6 					"/>
					<polygon fill="#FFFFFF" points="443.9,438.4 443.4,439.4 437.3,442.2 					"/>
					<path fill="#FFFFFF" d="M212.2,574.8c0.5-1.4,3.2-3.4,6.3-5.4c3.2-2,6.6-4.1,8.1-5.2c-1.1,2.3-3.6,3.4-6.1,4.5
						C218.1,570,215.6,571.2,212.2,574.8z"/>
					<path fill="#FFFFFF" d="M209.7,379.9l-0.5,9.9C208.4,382.1,209,387.9,209.7,379.9z"/>
				</g>
			</g>
		</g>
	</g>
</g>
</svg>
