<?xml version="1.0" encoding="utf-8"?>
<!-- Generator: Adobe Illustrator 18.0.0, SVG Export Plug-In . SVG Version: 6.00 Build 0)  -->
<!DOCTYPE svg PUBLIC "-//W3C//DTD SVG 1.1//EN" "http://www.w3.org/Graphics/SVG/1.1/DTD/svg11.dtd">
<svg version="1.1" id="Layer_1" xmlns="http://www.w3.org/2000/svg" xmlns:xlink="http://www.w3.org/1999/xlink" x="0px" y="0px"
	 viewBox="0 0 148.2 145.3" enable-background="new 0 0 148.2 145.3" xml:space="preserve">
<g>
	<path fill="#ffffff" d="M131.3,144.9c-0.2-0.1-0.5-0.2-0.8-0.2c-0.3-0.5-0.9-1.2-1.9-1.7l-2-0.9l-0.1,0.2c-0.5-1.5-1.6-2.3-2.3-2.8
		c-0.1,0-0.1-0.1-0.2-0.1l0-0.1l-0.2-0.5c-0.9-2.7-2.9-4.3-4.5-5.5c-0.6-0.4-1.1-0.8-1.6-1.2l0.2-0.1l-0.3-0.5c0,0,0-0.1,0-0.1
		l1-1.3l-2.5-1c-0.4-0.5-1-1.1-1.8-1.4l0,0c-0.8-2.7-2.8-4.3-4.6-5.7c-0.2-0.2-0.4-0.3-0.7-0.5c0,0,0-0.1,0-0.1
		c-0.1-0.7-0.5-1.4-1-1.8l-0.9-0.7l1.9-4.7l-5.3,2.3l-1.8-1.7l-0.2-3l-4.3-2.4c0,0-1.4,1.7-1.4,1.7c-0.3,0.3-0.6,0.7-0.9,1l-1.3-0.6
		l0,2.2c0,0,0,0,0,0l-0.7-0.3l0,0.7c-0.2,0.1-0.4,0.2-0.6,0.3c-0.2,0.1-0.5,0.2-0.7,0.4c-0.4,0.2-0.9,0.5-1.5,0.8l0-0.1l-4.2,3
		l0,0.1c-0.2,0.1-0.5,0.3-0.8,0.4c-1.2,0.6-2.4,1.2-3.9,1.9l0.5,1.8c0,0,0,0,0,0l0,0c-3.4,1.3-6.4,2.4-9.2,3.4l-0.8-1.8
		c-0.6,0.2-1.3,0.3-1.9,0.5l-1.3,0.3c-1.7,0.3-3.3,0.5-5,0.8c-0.3,0-0.5,0.1-0.8,0.1l-0.3,0l-0.1,0l-0.1,1.1
		c-1.8,0.2-3.5,0.3-5.2,0.4l-0.2-1.3l-0.4,0l-0.3,0c-1,0-1.9-0.1-2.8-0.1c-0.2,0-0.4,0-0.6,0l-1.1-0.1l0,0h-0.3l-3-0.3
		c-0.9-0.1-1.7-0.2-2.5-0.3l-0.1,0c-0.6-0.1-1.1-0.2-1.7-0.3c-0.6-0.2-1.2-0.3-1.9-0.5c-1.3-0.3-2.6-0.7-3.8-1
		c-1.4-0.5-2.5-0.8-3.6-1.1c-0.4-0.2-1-0.5-1.6-0.7c-0.7-0.4-1.4-0.8-2.2-1.3c-0.8-0.5-1.7-1-2.6-1.6c-0.7-0.5-1.4-1-2.1-1.6
		l-0.3-0.3l-0.3-0.1c-0.3-0.2-1.2-0.7-1.6-1l-0.1-0.1c-1.5-1.5-3-3-4.4-4.5l-0.2-0.2c-1.5-1.8-3.1-3.7-4.4-5.6
		c-1.4-2.2-2.6-4-3.4-5.6c-0.4-0.7-0.7-1.3-0.9-1.9l-0.1-0.1c-0.4-0.8-0.9-1.7-1.3-2.5c-0.6-1.5-1.3-3-1.9-4.4l-0.4-1l-0.3-1L6,87
		l-0.7-2.1c-0.2-0.7-0.4-1.2-0.5-1.7l-0.9-3.7c-0.2-0.8-0.4-1.5-0.5-2.1l-0.1-0.3l-0.1-0.2c-0.3-0.7-0.6-1.4-1.1-2
		c0-0.1,0-0.2,0-0.3l0-0.7c0-0.4,0-0.8,0-1l0-0.3l-0.1-0.2l-0.4-2.5c-0.1-0.5-0.1-0.8-0.2-1l-0.1-0.2l-0.1-0.3c0-0.3,0-0.6-0.1-0.9
		c0-0.8,0-1.5,0-2.3l0-0.4c0-0.2,0-0.4,0-0.6l0-0.1c0-0.4,0-1-0.2-1.7L1,62.1c0-0.4,0.1-0.8,0.1-1.3c0.1-0.7,0.1-1.3,0.2-2.1l0,0
		l0.3-1.5c0.2-0.6,0.3-1.2,0.5-1.7l0.1-0.3l0-0.3c0-0.1,0.1-0.6,0.1-0.6l0-0.2l-0.1-1.9c-0.1-0.7-0.1-1.7-0.4-2.6
		c0.2-0.8,0.4-1.3,0.6-1.8l0.1-0.2c0.3-0.9,0.6-1.7,1.1-3.2l-0.3-0.1c0.1-0.3,0.2-0.7,0.3-1c0,0,0.3,0,0.3,0L5.6,43l0.7-1.6
		c0.1-0.2,0.2-0.4,0.2-0.5c0.4-1,1-2,1.6-3.2l0.5-0.9c0.7-1.2,1.4-2.4,2.3-3.6l1.3-1.9L10.6,30c1.6-1.5,2.6-3,3.5-4.4
		c0.2-0.3,0.4-0.6,0.6-0.9l0.1,0.1c0.3-0.2,0.7-0.4,2.5-2.7c0.1,0,0.3,0,0.4,0c0.6,0,1.2-0.2,1.9-0.6l0.1-0.1l0.1-0.1
		c0.9-0.8,1.7-1.7,2.5-2.5c0.6-0.7,1.2-1.3,1.8-1.8c0.7-0.7,1.4-1.4,2-2.1l0.5-0.6l1.1,1l0.3-0.2c1.4-1,2.7-1.9,4.1-2.8
		c0.6-0.4,1.2-0.8,1.8-1.2l0.3-0.2l0.8-0.9c1.4-1.5,2.5-2.8,3.2-3.5l0.1-0.1c0.4-0.1,0.5-0.2,0.5-0.2c0,0,0,0,0,0
		c-0.1,0-0.2,0-0.3,0l0.2-0.2l-0.3,0.2c-0.6-0.1-1.1-0.6-1.4-1.3c-0.2-0.5-0.2-1.2,0.1-1.5l2.7,4.1c1.6-0.7,2.7-1.3,3.7-1.9l0.1,0.2
		l2.7-1.9l1.6-1l0-0.1c0.3-0.1,0.5-0.2,0.9-0.4l0.6-0.2L49.9,2l0.7-0.1l0.8-0.1l0-0.3c0.6-0.1,1.1-0.2,1.6-0.3
		c1-0.2,1.8-0.3,2.5-0.5c0.1,0,0.2,0.1,0.2,0.1c0,0-0.1-0.1-0.2-0.1c0.6-0.2,1.1-0.4,1.4-0.6l0.5,1.7c0.5-0.1,1.6-0.5,2.7-0.8
		l1.5-0.4l0.2,1.1l0.2,0c1.4,0,2.8-0.3,3.9-0.8c0.1-0.1,0.2-0.1,0.3-0.2c0.4,0.1,0.8,0.1,1.1,0.2c0.4,0.1,0.7,0.1,1,0.2L69,1.1
		c0.1,0,0.3,0.1,0.4,0.1c0.5,0.2,1.2,0.4,2.1,0.7L71.8,2l0.3,0c0.1,0,0.3,0,0.4,0c0.1,0,0.3,0,0.4,0L73.3,3l1.4,0.2
		c1.2,0.2,2.4,0.5,3.5,0.7L78.5,4l0.3,0c0.7,0,1.4,0,2.1-0.1c0.7,0,1.4,0,2.1,0.1l0.4,1.9l2.3-1c0.9,0.1,3.4,0.8,6.5,2
		c1.9,0.7,3.8,1.6,5.6,2.6c0.3,0.2,0.6,0.3,0.9,0.5l0.3,0.2l1.7,1.1c0.5,0.5,1.2,1,2,1.6c0.4,0.3,0.8,0.6,1.1,0.8
		c0.3,0.2,0.5,0.4,0.8,0.6c0.8,0.8,1.7,1.5,2.7,2.1l0,0.1l2.3,1.9l0.4,0.2l1.4,0.8l0.1,0.1c0.4,0.5,0.8,1,1.2,1.4l-2.5-0.5l2.4,2.3
		l-0.1,0l1.7,1.7l-0.1,0.2l0.1,0.1l-2.4,2.4l3.9-0.1l0,0.1h0.7l2.1,2.3l1,1.8l0.2,0.3c0,0.1,0.1,0.1,0.1,0.2l0.2,0.4l0.1,0.2
		c0.3,0.5,0.6,0.9,0.9,1.3l0.3,0.3c0.1,0.1,0.2,0.2,0.2,0.3c0.3,0.3,0.5,0.7,0.7,1l0.1,0.2c0.1,0.2,0.3,0.4,0.4,0.6
		c0.1,0.1,0.2,0.3,0.3,0.5c0.3,0.6,0.5,1.2,0.8,1.9l-0.9,0.4c0,0.1,0.1,0.3,0.1,0.4l-0.7,0.1l0.1,0.7l-0.6-0.1l1.2,3.9l0.9,3.5
		l0.3-0.3c0.1,0.3,0.3,0.5,0.4,0.8c0,0.1,0.1,0.2,0.1,0.3c-0.1,0.3-0.2,0.7-0.2,1.1c0,0.2,0,0.3,0.1,0.4l0.1,0.6l0.4,0.5l0.1,0.1
		l0.5,1.1l0,0.2l0.1,0l0,0.2l0.1,0.3l0,0.6l-0.1,0l0,0.1l-0.4,0l-1-0.5l0,0l-0.1,0h0c-0.7-0.3-1.2-0.5-1.8-0.5
		c-1.3-0.4-2-0.6-2.6-0.6c-0.2,0-0.3,0-0.5,0c-0.2-0.1-0.4-0.2-0.7-0.3l-0.2-0.1c0,0-0.7-0.1-1.3-0.1c-0.6-0.4-1.2-0.6-1.6-0.7
		l-0.2-0.1l-0.2,0c-1.1-0.2-2.2-0.3-3.5-0.5c-1.1-0.1-2-0.2-3-0.3c-0.3-0.1-0.6-0.3-0.9-0.4c-0.1-0.1-0.2-0.2-0.3-0.2
		c0,0-0.1-0.1-0.1-0.1c-0.1-0.2-0.2-0.5-0.3-0.7c-0.1-0.3-0.1-0.5-0.2-0.6l-0.1-0.3l-0.3-1.5l0-0.3l-0.2-0.5c-0.4-1-0.9-1.9-1.5-2.5
		c0,0,0-0.1,0-0.1l0.5-0.1l-0.4-0.5l0.5-0.4l-2.2-1.9l-0.3-0.5l-0.1,0l-1-1.6l-0.7,0.2L99,34l-0.2,0.1c-0.7-1-1.4-1.9-2.1-2.6
		c-0.5-0.5-0.9-1-1.2-1.4l0.3-0.3l-1.2-1.6L94.3,28c-0.2-0.3-0.4-0.6-0.8-0.8c-0.3-0.2-0.6-0.3-1-0.5l-0.1,0l-0.1,0L88.7,24
		l-0.3-0.9h-1.8c-0.5,0-1,0.2-1.3,0.3l-0.9-0.4c-0.3-0.1-0.5-0.2-0.8-0.3l-0.9-0.2c-0.1-0.1-0.2-0.2-0.3-0.2c-0.2-0.1-0.6-0.3-1-0.5
		l-1.3-0.6l-0.2-0.1c-1.9-0.5-3.2-0.7-4.3-0.7c-0.6,0-1.1,0.1-1.6,0.2c-0.3,0.1-0.6,0.1-1,0.1c0,0-0.1,0-0.1,0l-0.5-0.2l0,0L72,20.5
		l-0.3-0.1l-0.4-0.1l-3.2-0.5l-0.4,0.8c-0.2,0-0.3,0-0.5,0c-0.2,0-0.3,0-0.5,0c-0.2,0-0.3,0-0.5,0.1l-1.5,0.2
		c-0.5,0.1-0.9,0.1-1.3,0.1c-0.5,0-0.9,0.1-1.3,0.1l-0.3,0l-0.3,0.1l-0.6,0.1l-1-0.3l0-0.3l-0.7,0l-3.2-0.9l-0.7-0.2L54,19.2
		l-3.2,3.2l0.6,0.7l-0.1,0c-0.1,0-0.2,0.1-0.2,0.1l0,0l-2.6,1.3c-0.3,0.1-0.7,0.3-1,0.4c-0.4,0.2-0.9,0.3-1.2,0.4h-0.4l-0.7,0.5
		c-0.1,0.1-0.2,0.1-0.3,0.2c-0.2,0.1-0.3,0.3-0.5,0.4l-0.8,0.6c-0.5,0.4-1.1,0.9-1.6,1.3c-0.1,0.1-0.2,0.2-0.3,0.2l-0.1,0.1L41.2,29
		l-0.6,0.5c-0.5,0.4-1,0.8-1.5,1.2c-0.2,0.2-0.4,0.3-0.5,0.4c-0.3,0.2-0.5,0.4-0.9,0.7c-0.4,0.3-0.8,0.7-1.2,1.1L36.4,33
		c-0.2,0.2-0.5,0.4-0.7,0.6c-0.7,0.6-1.4,1.3-2.1,2.1c-0.6,0.8-1,1.4-1.2,1.7L32,38c-0.2,0.2-0.3,0.3-0.4,0.6l-1.4,2.3l0.1,0.1
		c-0.1,0.2-0.4,0.7-0.4,0.7c-0.1,0.1-0.3,0.1-0.4,0.2v-2.2l-0.6,1l-1.2-2.5l-0.8,3.9l-0.1-0.1L26.7,43l-0.1,0l-0.3,2.2l-1.9,3.3
		c-0.1,0.2-0.2,0.4-0.3,0.7c-0.2,0.4-0.4,0.8-0.5,1.1L23.3,51l0,0.2c-0.1,0.4-0.2,0.6-0.3,0.9l-0.1,0.2c-0.2,0.4-0.3,0.8-0.5,1.2
		l-0.3,1.2l0,0.3c0,0.4-0.2,1.1-0.4,1.7l-0.3,0.3l-0.2,0.7l-0.1,0.3l0,0.3L21,59.4c-0.1,0.4-0.2,0.7-0.2,0.7l-0.3,0.5l-0.8,2.9
		l0.7,0.2l0,0.1c0,0.8,0,1.6,0,2.3c0,0.3,0,0.6,0,1c0,0.2,0,0.3,0,0.5h-0.4l-0.1,3l0,0.8l0,0.1c0,0.3,0.1,0.5,0.1,0.7l0.3,1.4l0,0.1
		c0.7,2.4,1.3,4.7,2,7c0.1,1.6,0.8,4.2,1.4,5.9l0.1,0.2l0.1,0.2c0.2,0.3,0.5,0.9,1,1.3l0.2,0.4c0.1,0.4,0.3,0.8,0.4,1.2l0,0.2
		c0.1,0.4,0.2,0.7,0.3,1c0.2,0.8,0.5,1.6,1,2.7c0.3,0.6,0.7,1.1,1,1.6l0.3,0.4l0.8,1l0.7,0.8c0.2,0.2,0.4,0.5,0.6,0.7l0.6-0.5
		l0.2,0.3c0.4,0.5,0.9,1.1,1.3,1.6l-2.1,0.7c0,0,5.4,2.9,5.6,3l-0.3,0.2l2,1.5l-1.2,0.1l3,1.4l-0.2,0.1l0.3,0.1l-0.1,0.1l0.7,0.3
		l-0.1,0.2c0,0,0.3,0.2,0.4,0.3l-0.4,0.3l1.4,0.5l-0.2,0.4l0,0l-0.4,0.7l-1.5,1.2l0.9,0l-1,2l3.5-2l0.8,0l0.1,0.1l-0.7,0.8l1.3-0.2
		l0.8,0.8l0.2-0.4l0.7,0.5l0.3-1.1l0,0l0.6,0.2l0-0.2l2.7,0.3l-0.1-0.4l1.5,0.6l-0.1-1.1l2.4-0.3l1.8,2l1.6-2.2h0.2l0.7,0.2l1.7,1.6
		l1-2c0.4,0,0.7,0.1,1.1,0.1L62,110l0,0l0.4,0l0.4,0c0.8,0,1.8-0.1,2.8-0.3c0.8-0.2,1.8-0.4,2.6-0.7l0.8-0.3
		c0.6-0.2,1.2-0.5,1.7-0.7c0.4-0.2,0.7-0.3,1-0.5c0.4-0.2,0.7-0.4,0.8-0.5l0.1-0.1c0.4-0.3,0.6-0.7,0.8-1.1l0,0
		c0.4,0.4,0.9,0.6,1.5,0.7l0.9,0.1l0.4-0.3l0.7,0.1l0.2-0.5l1.2-0.3l-0.3-1.4c0.1-0.1,0.1-0.2,0.2-0.3l0.7-0.2v-0.6l0.3-0.2
		c0.1,0,0.1-0.1,0.3-0.2c0,0,0.2-0.1,0.2-0.1l0,0c0.6,0,1.1-0.2,1.6-0.4c0,0,0,0,0.1,0l0.3,0.4c0.3-0.2,0.6-0.5,0.9-0.6
		c0.3-0.2,0.6-0.5,0.9-0.6c0.2-0.2,0.4-0.3,0.5-0.5l0.1,0.1l0.2-0.2l2.4,2.4l0.5-4.9l0.3-0.3c1.5-1.8,2-2.5,2.3-3.1
		c0.1-0.1,0.1-0.2,0.2-0.3c0.2-0.3,0.5-0.6,1-1.2l0.2-0.3c0.4-0.5,0.9-1.1,1.6-2c0.4-0.3,0.8-0.6,1.2-1l0.4-0.4
		c0.1-0.1,0.3-0.3,0.4-0.3c0,0-0.4,0.3-1,0.4c0,0,0,0,0,0l-2.9-2.1c-0.1-0.5,0-0.9,0.1-1.2l4.1,2.9c1.4-1.7,2.6-3.6,3.6-5.5l0,0
		c1.9-3.2,2.7-4.8,3.4-6.2l0.4-0.7c0.5-0.9,0.8-1.7,1.2-2.7c0.2-0.6,0.4-1.2,0.7-1.9l0.7-2.6l-0.2-0.1c0-0.1,0.1-0.2,0.1-0.3
		c0,0,0-0.1,0.1-0.1l0.6-0.5l0.2-0.7c0-0.2,0.1-0.4,0.2-0.8c0.1-0.5,0-1,0-1.3l-0.1-0.5l0-0.1l0.2,0l0,0v-0.1l6-1.6l-4.7-1.6
		l-0.3-0.7l1.5-1.5c0.4-0.4,0.7-0.6,1-0.8c1-0.6,2.1-1.1,3.4-1.3c0.8-0.2,1.7-0.2,2.5-0.2c1.3,0,2.7,0.2,4.2,0.5l0.1-0.2
		c0.2,0,0.4,0.1,0.6,0.2c0.5,0.1,1,0.3,1.4,0.5l0.8,0.3c0.2,0.1,0.4,0.2,0.6,0.3c0.3,0.4,0.7,0.8,1.1,1.2l0.2,0.2
		c0,0,0.1,0.1,0.1,0.1l-0.3,1.1l0.1,1.1l0,0.1c-0.1,0.2-0.3,0.4-0.4,0.7c-0.4,1.1-0.8,2-0.6,2.9c-0.1,0.3-0.2,0.5-0.2,0.7
		c-0.1,0.4-0.2,0.9-0.3,1.5l-0.2,0.8c-0.1,0.4-0.2,0.8-0.3,1.3c-0.1,0.3-0.1,0.6-0.2,0.8c-0.1,0.2-0.1,0.4-0.2,0.6l-0.2,0.7
		c-0.2,0.7-0.4,1.4-0.6,2.2c-0.1,0.5-0.3,1-0.5,1.4c-0.1,0.2-0.2,0.5-0.3,0.7c-0.1,0.2-0.2,0.5-0.3,0.8c-0.3,0.8-0.7,1.7-1.1,2.5
		c-0.9,1.8-1.6,2.7-1.8,3l-0.5,0.5l-0.1,0.7c-0.1,0.3-0.2,1,0,1.7c0,0-0.5,0.8-0.5,0.8l-0.7,1.1c-0.5,0.9-0.5,1.9,0.1,2.8l0,0
		l1.1,1.3l0.3,0.3c0.7,0.8,1.3,1.5,1.9,2.2l1.7,1.9c1.9,2.2,3.9,4.5,6.5,7.5l-0.1,0.1c1.7,2.1,2.9,3.6,4,4.6
		c0.1,0.4,0.3,0.7,0.4,0.9l0.2,0.3l0.3,0.2c2.7,2.3,4.8,5.4,6.7,8.1c1.4,2,2.6,3.8,3.9,5.2c0.2,0.9,0.7,1.9,1.3,3.1l0.1,0.3l0.2,0.2
		c1.4,1.7,2.8,3.4,4.1,5c-3.9,3.4-8.1,7.5-12.7,12.7L131.3,144.9z M0,42.8c0.1,0,0.3,0,0.4,0l1.8,0.9L0,42.8z"/>
</g>
</svg>
